/* XPM */
static const char *file[] = {
/* columns rows colors chars-per-pixel */
"64 64 144 2 ",
"   c #010101",
".  c #060708",
"X  c #070808",
"o  c #0A0A0C",
"O  c #0D0E11",
"+  c #0F1114",
"@  c #111216",
"#  c #141519",
"$  c #16181D",
"%  c #191A1D",
"&  c #1B1D22",
"*  c #1E2025",
"=  c #1F2229",
"-  c #232527",
";  c #23252C",
":  c #292B2E",
">  c #242630",
",  c #262A32",
"<  c #2A2B31",
"1  c #292B38",
"2  c #2E333D",
"3  c #32343B",
"4  c #333544",
"5  c #343945",
"6  c #3A3C42",
"7  c #373D49",
"8  c #3C3D4E",
"9  c #3E4350",
"0  c #43454E",
"q  c #404357",
"w  c #414856",
"e  c #4A4D56",
"r  c #4A4D5E",
"t  c #4F5159",
"y  c #4D5565",
"u  c #4E536A",
"i  c #565967",
"p  c #595C67",
"a  c #535C6E",
"s  c #585C6F",
"d  c #5F6167",
"f  c #596276",
"g  c #5D647B",
"h  c #616471",
"j  c #64677D",
"k  c #6B6E78",
"l  c #646781",
"z  c #626B80",
"x  c #696D81",
"c  c #666A89",
"v  c #686E8C",
"b  c #6A738A",
"n  c #7B7F87",
"m  c #727588",
"M  c #777A88",
"N  c #7C7F88",
"B  c #6A7091",
"V  c #6D7991",
"C  c #717691",
"Z  c #747B93",
"A  c #737F98",
"S  c #787D99",
"D  c #75829C",
"F  c #7D829C",
"G  c #7A84A2",
"H  c #82869C",
"J  c #858A9F",
"K  c #8D929E",
"L  c #868CA2",
"P  c #8185AA",
"I  c #8391AE",
"U  c #8990AB",
"Y  c #8796B3",
"T  c #8993B5",
"R  c #8A99B7",
"E  c #8F96BB",
"W  c #8F9FBE",
"Q  c #989DB3",
"!  c #9093B8",
"~  c #969DBA",
"^  c #9BA0AD",
"/  c #9EA3BE",
"(  c #A0A6BD",
")  c #949CC3",
"_  c #999DCB",
"`  c #95A5C6",
"'  c #99A1CE",
"]  c #97A8C9",
"[  c #99AACB",
"{  c #9FA7D0",
"}  c #A6ACC0",
"|  c #A8AEC4",
" . c #A4AACA",
".. c #AEB4C2",
"X. c #B1B7CA",
"o. c #B4BBCC",
"O. c #B9BFCE",
"+. c #A2AAD6",
"@. c #A2B3D7",
"#. c #AFB4D7",
"$. c #A5B7DB",
"%. c #ABB3DE",
"&. c #B1B9D9",
"*. c #ACB1E3",
"=. c #ABBDE2",
"-. c #B1BAE5",
";. c #B1BBF2",
":. c #BDC3DC",
">. c #ADC0E6",
",. c #AFC3E9",
"<. c #B3C6ED",
"1. c #BCC2EA",
"2. c #B4C8EF",
"3. c #BAC4F0",
"4. c #B7CBF3",
"5. c #B8CCF5",
"6. c #B7C1F9",
"7. c #BCC6FE",
"8. c #BFC9FF",
"9. c #BDD2FB",
"0. c #C4CAD7",
"q. c #C4CBDC",
"w. c #C9CFE5",
"e. c #D7DDED",
"r. c #C2CAF4",
"t. c #C1C6FF",
"y. c #C3CDFF",
"u. c #C9CFFF",
"i. c #C9D2F3",
"p. c #C2D3FF",
"a. c #CBD4FF",
"s. c #CFD8FF",
"d. c #D3DAF4",
"f. c #D1D7FF",
"g. c #D4DCFF",
"h. c #D8DFFF",
"j. c #D8E0F6",
"k. c #D7E0FF",
"l. c #DCE4FF",
"z. c #E0E7FF",
"x. c #E4EBFF",
"c. c #E8EFFF",
"v. c #E9F0FF",
"b. c None",
/* pixels */
"b.b.b.b.b.b.b.b.b.b.b.b.b.b.b.b.b.b.b.b.b.b.b.b.b.b.b.b.b.b.b.b.b.b.b.b.b.b.b.b.b.b.b.b.b.b.b.b.b.b.b.b.b.b.b.b.b.b.b.b.b.b.b.b.",
"b.b.b.b.b.b.b.b.b.b.b.b.b.b.b.b.b.b.b.b.b.b.b.b.b.b.b.b.b.b.b.b.b.b.b.b.b.b.b.b.b.b.b.b.b.b.b.b.b.b.b.b.b.b.b.b.b.b.b.b.b.b.b.b.",
"b.b.b.b.b.b.b.b.b.b.b.b.b.b.b.b.b.b.b.b.b.b.b.b.b.b.b.b.b.b.b.b.b.b.b.b.b.b.b.b.b.b.b.b.b.b.b.b.b.b.b.b.b.b.b.b.b.b.b.b.b.b.b.b.",
"b.b.b.b.b.b.b.b.b.b.b.b.b.b.b.b.b.b.b.b.b.b.b.b.b.b.b.b.b.b.b.b.b.b.b.b.b.b.b.b.b.b.b.b.b.b.b.b.b.b.b.b.b.b.b.b.b.b.b.b.b.b.b.b.",
"b.b.b.b.b.b.b.b.b.b.b.b.b.b.b.b.b.b.b.b.b.b.b.b.b.b.b.b.b.b.b.b.b.b.b.b.b.b.b.b.b.b.b.b.b.b.b.b.b.b.b.b.b.b.b.b.b.b.b.b.b.b.b.b.",
"b.b.b.b.b.b.b.b.b.b.b.b.b.b.b.b.b.b.b.b.b.b.b.b.b.b.b.b.b.b.b.b.b.b.b.b.b.b.b.b.b.b.b.b.b.b.b.b.b.b.b.b.b.b.b.b.b.b.b.b.b.b.b.b.",
"b.b.b.b.b.b.b.b.b.b.b.b.b.b.b.b.b.b.b.b.b.b.b.b.b.b.b.b.b.b.b.b.b.b.b.b.b.b.b.b.b.b.b.b.b.b.b.b.b.b.b.b.b.b.b.b.b.b.b.b.b.b.b.b.",
"b.b.b.b.b.b.b.b.b.b.b.b.b.b.b.b.b.b.b.b.b.b.b.b.b.    b.b.b.b.b.b.b.b.b.b.b.b.b.b.b.b.b.b.b.b.b.b.b.b.b.b.b.b.b.b.b.b.b.b.b.b.b.",
"b.b.b.b.b.b.b.b.b.b.b.b.b.b.b.b.b.b.b.b.b.b.b.b.        b.b.b.b.b.b.b.b.b.b.b.b.b.b.b.b.b.b.b.b.b.b.b.b.b.b.b.b.b.b.b.b.b.b.b.b.",
"b.b.b.b.b.b.b.b.b.b.b.b.b.b.b.b.b.b.b.b.b.b.b.    1 5       b.b.b.b.b.b.b.b.b.b.b.b.b.b.b.b.b.b.b.b.b.b.b.b.b.b.b.b.b.b.b.b.b.b.",
"b.b.b.b.b.b.b.b.b.b.b.b.b.b.b.b.b.b.b.b.b.b.    4 ;.7.B .     b.b.b.b.b.b.b.b.b.b.b.b.b.b.b.b.b.b.b.b.b.b.b.b.b.b.b.b.b.b.b.b.b.",
"b.b.b.b.b.b.b.b.b.b.b.b.b.b.b.b.b.b.b.b.b.    q 6.7.7.7.' >       b.b.b.b.b.b.b.b.b.b.b.b.b.b.b.b.b.b.b.b.b.b.b.b.b.b.b.b.b.b.b.",
"b.b.b.b.b.b.b.b.b.b.b.b.b.b.b.b.b.b.b.b.    u 7.7.7.8.8.8.7.c .     b.b.b.b.b.b.b.b.b.b.b.b.b.b.b.b.b.b.b.b.b.b.b.b.b.b.b.b.b.b.",
"b.b.b.b.b.b.b.b.b.b.b.b.b.b.b.b.b.b.b.    g 8.8.8.8.8.8.t.t.t.+.5       b.b.b.b.b.b.b.b.b.b.b.b.b.b.b.b.b.b.b.b.b.b.b.b.b.b.b.b.",
"b.b.b.b.b.b.b.b.b.b.b.b.b.b.b.b.b.      v 8.8.8.t.t.t.t.t.y.y.y.y.E ;       b.b.b.b.b.b.b.b.b.b.b.b.b.b.b.b.b.b.b.b.b.b.b.b.b.b.",
"b.b.b.b.b.b.b.b.b.b.b.b.b.b.b.b.    . G t.t.y.y.y.y.y.y.y.y.y.y.y.y.r.C #       b.b.b.b.b.b.b.b.b.b.b.b.b.b.b.b.b.b.b.b.b.b.b.b.",
"b.b.b.b.b.b.b.b.b.b.b.b.b.b.b.    o T t.t.t.t.y.y.y.y.y.y.y.y.y.p.p.p.p.r.S #       b.b.b.b.b.b.b.b.b.b.b.b.b.b.b.b.b.b.b.b.b.b.",
"b.b.b.b.b.b.b.b.b.b.b.b.b.b.    O ) y.y.y.y.y.y.y.y.y.y.p.p.a.p.p.a.a.a.a.a.r.C #       b.b.b.b.b.b.b.b.b.b.b.b.b.b.b.b.b.b.b.b.",
"b.b.b.b.b.b.b.b.b.b.b.b.b.    # { y.y.y.y.y.y.y.p.p.p.p.a.a.a.a.a.a.a.a.a.a.a.a.r.b O       b.b.b.b.b.b.b.b.b.b.b.b.b.b.b.b.b.b.",
"b.b.b.b.b.b.b.b.b.b.b.b.    & %.y.y.y.y.p.p.p.p.p.a.a.a.a.a.a.a.a.a.a.a.a.a.a.a.a.a.r.x @       b.b.b.b.b.b.b.b.b.b.b.b.b.b.b.b.",
"b.b.b.b.b.b.b.b.b.b.b.    ; -.y.p.p.p.p.p.a.a.a.a.a.a.a.a.a.a.a.a.a.a.a.s.s.s.f.s.s.f.f.i.Z $       b.b.b.b.b.b.b.b.b.b.b.b.b.b.",
"b.b.b.b.b.b.b.b.b.b.    3 3.p.p.p.a.a.a.a.a.a.a.a.a.a.a.a.a.a.a.a.a.s.s.s.f.f.f.f.f.f.f.g.g.s.L *       b.b.b.b.b.b.b.b.b.b.b.b.",
"b.b.b.b.b.b.b.b.b.    9 r.a.a.a.a.a.a.a.a.a.a.a.a.a.a.a.a.a.a.a.s.s.f.f.f.f.f.g.f.f.g.g.g.g.g.g.g.J -         b.b.b.b.b.b.b.b.b.",
"b.b.b.b.b.b.b.b.    r y.a.a.a.a.a.a.a.a.a.a.a.a.a.a.a.s.s.s.f.f.f.f.f.f.g.g.g.g.g.g.g.g.g.g.g.k.g.g.g.Q 3         b.b.b.b.b.b.b.",
"b.b.b.b.b.b.b.    s a.a.a.a.a.a.a.a.a.a.s.s.a.f.s.s.f.f.f.f.f.f.f.f.g.g.g.g.g.g.g.g.g.g.k.k.k.k.k.k.k.k.k.| e .       b.b.b.b.b.",
"b.b.b.b.b.b.    z a.a.a.a.a.a.a.s.a.s.s.s.f.f.f.f.f.f.f.g.g.g.g.g.g.g.g.g.g.g.g.k.h.k.k.k.k.k.k.k.k.k.l.l.l.l.:.h o       b.b.b.",
"b.b.b.b.      F a.a.a.a.a.a.a.s.s.s.f.f.f.f.f.f.f.f.g.g.g.g.g.g.g.g.g.k.g.k.k.k.k.k.k.k.k.k.l.l.k.l.l.l.l.l.l.l.l.X..     b.b.b.",
"b.b.b.    . U a.a.s.s.s.s.s.f.f.f.f.f.f.g.g.g.g.g.g.g.g.g.g.g.k.k.k.k.k.k.k.k.k.k.k.k.k.l.l.l.l.l.l.l.l.l.z.z.z.j.3     b.b.b.b.",
"b.b.    o ~ a.s.s.s.f.f.f.f.f.f.g.g.g.g.g.g.g.g.g.g.g.g.k.k.k.k.k.k.k.k.k.k.l.l.l.l.l.l.l.l.l.l.l.l.l.l.z.z.z.z.t     b.b.b.b.b.",
"b.    @  .s.f.f.f.f.f.f.g.g.g.g.g.g.g.g.g.g.g.k.k.g.k.k.k.k.k.k.k.k.l.l.l.l.l.l.l.l.l.l.l.z.z.z.z.z.z.z.z.z.z.k       b.b.b.b.b.",
"    $ &.f.f.f.f.g.g.g.g.g.g.g.g.g.g.g.g.k.k.k.k.k.k.k.k.k.k.l.l.k.l.l.l.l.l.l.l.l.z.z.z.z.z.z.z.z.z.z.z.z.c.K           b.b.b.b.",
"      i i.f.g.g.g.g.g.g.g.g.g.g.g.k.k.k.k.k.k.k.k.k.k.k.k.l.l.l.l.l.l.l.l.z.z.l.z.z.z.z.z.z.z.z.z.z.c.c.c...X             b.b.b.",
"b.      & / g.g.g.g.g.k.k.g.k.k.k.k.k.k.k.k.l.l.l.l.l.l.l.l.l.l.l.l.l.l.z.z.z.z.z.z.z.z.z.z.z.z.c.c.c.c.q.@           b.b.b.b.b.",
"b.b.b.      i i.g.g.k.k.k.k.k.k.k.k.l.l.l.l.l.l.l.l.l.l.l.l.l.l.z.z.z.z.z.z.z.z.z.z.c.c.c.c.c.c.c.c.c.e.-   2 &       b.b.b.b.b.",
"b.b.b.b.b.    & ( k.k.k.k.k.k.k.l.l.l.l.l.l.l.l.l.l.l.l.z.z.z.z.z.z.z.z.z.z.x.x.c.c.c.c.c.c.c.c.c.c.x.6   , 4.<.5     b.b.b.b.b.",
"b.b.b.b.b.b.      p d.k.l.l.l.l.l.l.l.l.l.z.z.z.z.z.z.z.z.z.z.z.x.c.c.c.c.c.c.c.c.c.c.c.c.c.c.v.v.v.d   $ =.9.9.9.f       b.b.b.",
"b.b.b.b.b.b.b.b.    & } l.l.l.l.l.l.l.l.z.z.z.z.z.z.z.z.z.z.x.x.c.c.c.c.c.c.c.c.c.c.c.v.v.v.v.v.v.F   o ] p.p.p.p.p.G       b.b.",
"b.b.b.b.b.b.b.b.b.      p d.z.z.z.z.z.z.z.z.z.z.x.c.x.x.c.c.c.c.c.c.c.c.c.c.c.v.v.v.v.v.v.c.c.c.^     I p.p.p.p.p.[ 2         b.",
"b.b.b.b.b.b.b.b.b.b.      ; o.z.z.z.z.z.z.z.x.x.c.c.c.c.c.c.c.c.v.c.c.v.v.v.v.v.v.c.c.c.c.x.x.o.o   b 9.p.p.p.>.y           b.b.",
"b.b.b.b.b.b.b.b.b.b.b.b.    . k l.x.c.x.c.c.c.c.c.c.c.c.c.c.c.v.v.v.v.v.v.c.c.c.c.x.x.z.z.z.w.%   y 9.p.p.9.V o         b.b.b.b.",
"b.b.b.b.b.b.b.b.b.b.b.b.b.      : O.c.c.c.c.c.c.c.c.c.v.v.v.v.v.v.c.c.c.c.x.x.z.z.z.z.l.z.d.<   5 9.p.p.Y &         b.b.b.b.b.b.",
"b.b.b.b.b.b.b.b.b.b.b.b.b.b.      X N x.c.c.c.v.v.v.v.v.v.c.c.c.c.x.x.z.z.z.z.z.l.l.l.l.h.0   - <.p.@.7         b.b.b.b.b.b.b.b.",
"b.b.b.b.b.b.b.b.b.b.b.b.b.b.    @     3 0.v.v.v.v.c.c.c.c.x.x.x.z.z.z.l.z.l.l.l.k.k.k.h.h   + $.,.y           b.b.b.b.b.b.b.b.b.",
"b.b.b.b.b.b.b.b.b.b.b.b.b.b.b.    7 $   o N x.c.c.x.x.z.z.z.z.z.l.l.l.l.l.k.k.h.h.g.g.H   . W V O         b.b.b.b.b.b.b.b.b.b.b.",
"b.b.b.b.b.b.b.b.b.b.b.b.b.b.b.b.    A y     3 q.z.z.z.z.l.l.l.l.k.k.k.h.h.g.g.g.g.f./ .   f ;         b.b.b.b.b.b.b.b.b.b.b.b.b.",
"b.b.b.b.b.b.b.b.b.b.b.b.b.b.b.b.b.  o @.R $   o M l.l.l.k.k.k.h.h.g.g.g.g.f.f.f.f.#.O   *         b.b.b.b.b.b.b.b.b.b.b.b.b.b.b.",
"b.b.b.b.b.b.b.b.b.b.b.b.b.b.b.b.b.    ; 5.2.y     6 :.h.h.g.g.g.g.g.f.f.f.f.a.a.1.&           b.b.b.b.b.b.b.b.b.b.b.b.b.b.b.b.b.",
"b.b.b.b.b.b.b.b.b.b.b.b.b.b.b.b.b.b.    a p.p.I @   o m f.g.f.f.f.f.f.a.a.a.a.y.4         b.b.b.b.b.b.b.b.b.b.b.b.b.b.b.b.b.b.b.",
"b.b.b.b.b.b.b.b.b.b.b.b.b.b.b.b.b.b.b.    Y p.p.2.y     ,  .a.a.a.a.a.a.a.u.y.r         b.b.b.b.b.b.b.b.b.b.b.b.b.b.b.b.b.b.b.b.",
"b.b.b.b.b.b.b.b.b.b.b.b.b.b.b.b.b.b.b.b.  @ ,.p.9.p.R &   . j r.a.u.u.y.y.y.l           b.b.b.b.b.b.b.b.b.b.b.b.b.b.b.b.b.b.b.b.",
"b.b.b.b.b.b.b.b.b.b.b.b.b.b.b.b.b.b.b.b.    9 p.9.9.9.4.a     & ! y.y.y.t.P           b.b.b.b.b.b.b.b.b.b.b.b.b.b.b.b.b.b.b.b.b.",
"b.b.b.b.b.b.b.b.b.b.b.b.b.b.b.b.b.b.b.b.b.    D p.p.p.p.p.` ;     8 *.t._ o         b.b.b.b.b.b.b.b.b.b.b.b.b.b.b.b.b.b.b.b.b.b.",
"b.b.b.b.b.b.b.b.b.b.b.b.b.b.b.b.b.b.b.b.b.b.  o =.p.p.p.p.p.9.y     O c @         b.b.b.b.b.b.b.b.b.b.b.b.b.b.b.b.b.b.b.b.b.b.b.",
"b.b.b.b.b.b.b.b.b.b.b.b.b.b.b.b.b.b.b.b.b.b.    5 9.p.p.p.$.w                     b.b.b.b.b.b.b.b.b.b.b.b.b.b.b.b.b.b.b.b.b.b.b.",
"b.b.b.b.b.b.b.b.b.b.b.b.b.b.b.b.b.b.b.b.b.b.b.    A p.5.z .                     b.b.b.b.b.b.b.b.b.b.b.b.b.b.b.b.b.b.b.b.b.b.b.b.",
"b.b.b.b.b.b.b.b.b.b.b.b.b.b.b.b.b.b.b.b.b.b.b.b.  o b #                       b.b.b.b.b.b.b.b.b.b.b.b.b.b.b.b.b.b.b.b.b.b.b.b.b.",
"b.b.b.b.b.b.b.b.b.b.b.b.b.b.b.b.b.b.b.b.b.b.b.b.              b.b.b.        b.b.b.b.b.b.b.b.b.b.b.b.b.b.b.b.b.b.b.b.b.b.b.b.b.b.",
"b.b.b.b.b.b.b.b.b.b.b.b.b.b.b.b.b.b.b.b.b.b.b.b.b.          b.b.b.b.b.      b.b.b.b.b.b.b.b.b.b.b.b.b.b.b.b.b.b.b.b.b.b.b.b.b.b.",
"b.b.b.b.b.b.b.b.b.b.b.b.b.b.b.b.b.b.b.b.b.b.b.b.b.b.b.b.b.b.b.b.b.b.b.b.b.b.b.b.b.b.b.b.b.b.b.b.b.b.b.b.b.b.b.b.b.b.b.b.b.b.b.b.",
"b.b.b.b.b.b.b.b.b.b.b.b.b.b.b.b.b.b.b.b.b.b.b.b.b.b.b.b.b.b.b.b.b.b.b.b.b.b.b.b.b.b.b.b.b.b.b.b.b.b.b.b.b.b.b.b.b.b.b.b.b.b.b.b.",
"b.b.b.b.b.b.b.b.b.b.b.b.b.b.b.b.b.b.b.b.b.b.b.b.b.b.b.b.b.b.b.b.b.b.b.b.b.b.b.b.b.b.b.b.b.b.b.b.b.b.b.b.b.b.b.b.b.b.b.b.b.b.b.b.",
"b.b.b.b.b.b.b.b.b.b.b.b.b.b.b.b.b.b.b.b.b.b.b.b.b.b.b.b.b.b.b.b.b.b.b.b.b.b.b.b.b.b.b.b.b.b.b.b.b.b.b.b.b.b.b.b.b.b.b.b.b.b.b.b.",
"b.b.b.b.b.b.b.b.b.b.b.b.b.b.b.b.b.b.b.b.b.b.b.b.b.b.b.b.b.b.b.b.b.b.b.b.b.b.b.b.b.b.b.b.b.b.b.b.b.b.b.b.b.b.b.b.b.b.b.b.b.b.b.b.",
"b.b.b.b.b.b.b.b.b.b.b.b.b.b.b.b.b.b.b.b.b.b.b.b.b.b.b.b.b.b.b.b.b.b.b.b.b.b.b.b.b.b.b.b.b.b.b.b.b.b.b.b.b.b.b.b.b.b.b.b.b.b.b.b."
};
