/* XPM */
static const char *folder[] = {
/* columns rows colors chars-per-pixel */
"64 64 207 2 ",
"   c #000000",
".  c #090500",
"X  c #0B0900",
"o  c gray4",
"O  c #120C00",
"+  c #190D00",
"@  c #141200",
"#  c #1A1300",
"$  c #1E1A00",
"%  c #111111",
"&  c #231A00",
"*  c #2B2300",
"=  c #2F2800",
"-  c #322400",
";  c #322A00",
":  c #3D2800",
">  c #3D3400",
",  c gray19",
"<  c #431A01",
"1  c #482B01",
"2  c #443B00",
"3  c #4A3D00",
"4  c #493500",
"5  c #742D02",
"6  c #723C02",
"7  c #534700",
"8  c #5C4300",
"9  c #574A00",
"0  c #5E5100",
"q  c #6F4900",
"w  c #6B5C00",
"e  c #6C5600",
"r  c #766500",
"t  c #7F6D00",
"y  c #5C5C5C",
"u  c #54534D",
"i  c #7D7546",
"p  c #696656",
"a  c #716C55",
"s  c #79734F",
"d  c #646464",
"f  c #6C6C6C",
"g  c #686865",
"h  c #757266",
"j  c #737373",
"k  c #7B7B7B",
"l  c #8D3703",
"z  c #A03D03",
"x  c #805A00",
"c  c #8E5002",
"v  c #A2420B",
"b  c #A44914",
"n  c #A74E19",
"m  c #A54B15",
"M  c #A7511E",
"N  c #856700",
"B  c #926100",
"V  c #9E6700",
"C  c #8A7700",
"Z  c #8D7900",
"A  c #927800",
"S  c #927F11",
"D  c #A77301",
"F  c #A67800",
"G  c #B87A00",
"H  c #9D5F3A",
"J  c #AB5828",
"K  c #A95924",
"L  c #A95E31",
"P  c #8A7F39",
"I  c #B2652D",
"U  c #B1682A",
"Y  c #BB742C",
"T  c #AA663A",
"R  c #B56A30",
"E  c #BA7835",
"W  c #AE622A",
"Q  c #C07C37",
"!  c #C57D2C",
"~  c #9E6747",
"^  c #847D4E",
"/  c #A17358",
"(  c #B77A55",
")  c #B06E47",
"_  c #A47D66",
"`  c #968100",
"'  c #9B8400",
"]  c #A18A00",
"[  c #A78700",
"{  c #BF8500",
"}  c #AA9200",
"|  c #B59B00",
" . c #BB9900",
".. c #BDA301",
"X. c #9D8F3A",
"o. c #97882F",
"O. c #B09E32",
"+. c #AB9A31",
"@. c #BAA525",
"#. c #D78F00",
"$. c #C99701",
"%. c #DD9E00",
"&. c #D08B0E",
"*. c #E59800",
"=. c #E59716",
"-. c #C1A600",
";. c #CDAC00",
":. c #C5A900",
">. c #CDB000",
",. c #D8BA00",
"<. c #D8BC14",
"1. c #C9B11C",
"2. c #EEA200",
"3. c #F6A202",
"4. c #FFAA00",
"5. c #FDA702",
"6. c #EBB400",
"7. c #E1BE00",
"8. c #E1B300",
"9. c #FFB300",
"0. c #FFBB00",
"q. c #F2B000",
"w. c #EFA012",
"e. c #F3BA12",
"r. c #F2AC11",
"t. c #CD8629",
"y. c #CB8938",
"u. c #D79832",
"i. c #D99025",
"p. c #C3AE2E",
"a. c #D1B927",
"s. c #C6B239",
"d. c #CEB622",
"f. c #E7A824",
"g. c #E8B326",
"h. c #E4C400",
"j. c #EBCA00",
"k. c #EBCB0E",
"l. c #EAC706",
"z. c #FFC300",
"x. c #F3CB00",
"c. c #FFCB00",
"v. c #F6D303",
"b. c #FED300",
"n. c #FFDB00",
"m. c #F5D409",
"M. c #E6C91A",
"N. c #DEC427",
"B. c #958B4B",
"V. c #8B8356",
"C. c #938B59",
"Z. c #9B925B",
"A. c #AC9E46",
"S. c #A79B56",
"D. c #B2A34A",
"F. c #8B8565",
"G. c #9B9469",
"H. c #8A8777",
"J. c #9A936D",
"K. c #BC8666",
"L. c #A59B63",
"P. c #A29B6E",
"I. c #A78775",
"U. c #A29B74",
"Y. c #AAA376",
"T. c #B4AD7E",
"R. c #B6AD72",
"E. c #C0AF49",
"W. c #C2B14B",
"Q. c #C08F72",
"!. c #C2947A",
"~. c #929191",
"^. c #9B9B9B",
"/. c #8E8C82",
"(. c #A9998A",
"). c #BEB583",
"_. c #B0A798",
"`. c #A4A4A4",
"'. c #ABABAB",
"]. c #B9B4A9",
"[. c #B4B4B4",
"{. c #BCBBBB",
"}. c #B3A9A3",
"|. c #C39E89",
" X c #C4BB88",
".X c #D1AC97",
"XX c #D3B5A4",
"oX c #D6BEB1",
"OX c #CBC28D",
"+X c #D3C8B9",
"@X c #DBD6BE",
"#X c #C5C1AD",
"$X c #C3C3C3",
"%X c #CBCBCB",
"&X c #D7CCC6",
"*X c #D9D4C9",
"=X c LightGray",
"-X c #DCDCDC",
";X c #E2DDC4",
":X c #E8E3CA",
">X c #EDE9D0",
",X c #E3E3E3",
"<X c gray92",
"1X c #EAE7E5",
"2X c #F3F3F3",
"3X c #FBFBFB",
"4X c None",
/* pixels */
"4X4X4X4X4X4X4X4X4X4X4X4X4X4X4X4X4X4X4X4X4X4X4X4X4X4X4X4X4X4X4X4X4X4X4X4X4X4X4X4X4X4X4X4X4X4X4X4X4X4X4X4X4X4X4X4X4X4X4X4X4X4X4X4X",
"4X4X4X4X4X4X4X4X4X4X4X4X4X4X4X4X4X4X4X4X4X4X4X4X4X4X4X4X4X4X4X4X4X4X4X4X4X4X4X4X4X4X4X4X4X4X4X4X4X4X4X4X4X4X4X4X4X4X4X4X4X4X4X4X",
"4X4X4X4X4X4X4X4X4X4X4X4X4X4X4X4X4X4X4X4X4X4X4X4X4X4X4X4X4X4X4X4X4X4X4X4X4X4X4X4X4X4X4X4X4X4X4X4X4X4X4X4X4X4X4X4X4X4X4X4X4X4X4X4X",
"4X4X4X4X4X4X4X4X4X4X4X4X4X4X4X4X4X4X4X4X4X4X4X4X4X4X4X4X4X4X4X4X4X4X4X4X4X4X4X4X4X4X4X4X4X4X4X4X4X4X4X4X4X4X4X4X4X4X4X4X4X4X4X4X",
"4X4X4X4X4X4X4X4X4X4X4X4X4X4X4X4X4X4X4X4X4X4X4X4X4X4X4X4X4X4X4X4X4X4X4X4X4X4X4X4X4X4X4X4X4X4X4X4X4X4X4X4X4X4X4X4X4X4X4X4X4X4X4X4X",
"4X4X4X4X4X4X4X4X4X4X4X4X4X4X4X4X4X4X4X4X4X4X4X4X4X4X4X4X4X4X4X4X4X4X4X4X4X4X4X4X4X4X4X4X4X4X4X4X4X4X4X4X4X4X4X4X4X4X4X4X4X4X4X4X",
"4X4X4X4X4X4X4X4X4X4X4X4X4X4X4X4X4X4X4X4X4X4X4X4X          4X4X4X4X4X4X4X4X4X4X4X4X4X4X4X4X4X4X4X4X4X4X4X4X4X4X4X4X4X4X4X4X4X4X4X",
"4X4X4X4X4X4X4X4X4X4X4X4X4X4X4X4X4X4X4X4X4X4X4X4X                  4X4X4X4X4X4X4X4X4X4X4X4X4X4X4X4X4X4X4X4X4X4X4X4X4X4X4X4X4X4X4X",
"4X4X4X4X4X4X4X4X4X4X4X4X4X4X4X4X4X4X4X4X4X4X4X4X  = h.| r > X             4X4X4X4X4X4X4X4X4X4X        4X4X4X4X4X4X4X4X4X4X4X4X4X",
"4X4X4X4X4X4X4X4X4X4X4X4X4X4X        4X4X4X4X4X    Z n.n.n.n.n.;.A 0 &               4X4X4X                        4X4X4X4X4X4X4X",
"4X4X4X4X4X4X4X4X4X4X4X4X4X4X                4X    h.n.n.n.n.n.n.n.n.n.h.| r > X             > ..j.:.' w 2 #                 4X4X",
"4X4X4X4X4X4X4X4X4X4X4X4X4X4X    -X~.u %         2 n.n.n.n.n.n.n.n.n.n.n.n.n.n.v.:.Z 9 $ > -.n.n.n.n.n.n.n.n.j...` w 2 @     4X4X",
"    4X4X4X4X4X4X4X4X4X4X4X4X    3X3X3X=X~.y , o ] n.n.n.n.n.n.n.n.n.n.n.n.n.n.n.n.n.n.n.n.n.n.n.n.n.n.n.n.n.n.n.n.n.n.>.    4X4X",
"          4X4X4X4X4X4X4X4X4X    3X3X3X3X3X3X=X~.R.W.N.m.n.n.n.n.n.n.n.n.n.n.n.n.n.n.n.n.n.n.n.n.n.n.n.n.n.n.n.n.n.n.n.w     4X4X",
"4X              4X4X4X4X4X4X    3X3X3X3X3X3X3X3X3X>XOXY.P.E.N.n.n.n.n.n.n.n.n.n.n.n.n.n.n.n.n.n.n.n.n.n.n.n.n.n.n.n.v.O   4X4X4X",
"4X    ' e +           4X4X4X    3X3X3X3X3X3X3X3X3X3X3X3X:XOXU.H.L.s.M.n.n.n.n.n.n.n.n.n.n.n.n.n.n.n.n.n.n.n.n.n.n.n.]     4X4X4X",
"4X    w n.7.B 1 O               3X3X3X3X3X3X3X3X3X3X3X3X3X3X3X:X XU./.H.S.s.M.n.n.n.n.n.n.n.n.n.n.n.n.n.n.n.n.n.n.n.>   4X4X4X4X",
"4X4X  @ v.n.n.v.D 6 < .         3X3X2X2X2X2X2X2X2X2X2X2X2X2X2X3X2X2X:X XJ.k k H.S.s.k.n.n.n.n.n.n.n.n.n.n.n.n.n.n.,.    4X4X4X4X",
"4X4X    } n.n.n.n.b.$.c 5 < .   <X<X<X<X2X2X2X2X2X<X<X<X<X<X2X2X2X2X2X2X2X;X XJ.k k k F.A.a.m.n.n.n.n.n.n.n.n.n.n.r     4X4X4X4X",
"4X4X4X  2 n.n.n.b.b.b.b.8.B l 5 .X1X<X<X<X<X<X<X<X<X<X<X<X<X<X<X<X<X<X<X<X<X<X<X;XT.G.j j j j F.A.a.m.n.n.n.n.n.v.@   4X4X4X4X4X",
"4X4X4X    7.n.n.b.b.b.b.b.b.x.D R v ( XX1X<X<X<X<X<X<X<X<X<X<X<X<X<X<X<X<X<X<X<X<X<X<X@XT.F.j j j j h B.n.n.n.n.}     4X4X4X4X4X",
"4X4X4X    N n.n.b.b.b.b.b.b.c.c.c.g.Q v b ( XX1X<X1X1X1X<X<X<X<X1X1X1X1X<X<X<X<X<X<X<X<X1X1X@XT.F.f f B.n.n.n.n.3     4X4X4X4X4X",
"4X4X4X4X  $ b.b.b.b.b.b.b.b.b.c.c.c.c.e.y.n z n K.oX1X1X1X1X1X1X1X1X1X1X1X1X1X1X1X1X1X1X1X1X1X1X*Xf f p.n.n.n.h.    4X4X4X4X4X4X",
"4X4X4X4X     .b.b.b.b.b.b.c.c.c.c.c.c.c.z.z.u.I z z M K.+X,X,X1X,X,X,X,X,X,X,X,X,X,X,X,X,X,X,X,X Xf f k.n.n.n.t     4X4X4X4X4X4X",
"4X4X4X4X4X  9 b.b.b.b.b.c.c.c.c.c.c.c.c.z.z.z.z.f.E v z z J Q.&X,X,X,X,X,X,X,X,X,X-X,X,X,X,X,X,XY.f h n.n.n.n.$   4X4X4X4X4X4X4X",
"4X4X4X4X4X  . j.b.b.b.b.c.c.c.c.c.c.c.z.z.z.z.z.z.z.e.y.n z z z J !.&X-X-X-X-X-X-X-X-X-X-X-X-X-XC.f X.n.n.n.|     4X4X4X4X4X4X4X",
"4X4X4X4X4X    A b.b.b.c.c.c.c.c.c.c.z.z.z.z.z.z.z.0.0.0.0.u.I z z z z T !.&X-X-X-X-X-X-X-X-X-X-Xh g d.n.n.n.7     4X4X4X4X4X4X4X",
"4X4X4X4X4X4X  ; b.b.c.c.c.c.c.c.c.c.z.z.z.z.z.z.z.0.0.0.0.0.0.f.E v z z z z T |.*X=X-X-X-X-X-X+Xg g v.n.n.j..   4X4X4X4X4X4X4X4X",
"4X4X4X4X4X4X    ;.b.c.c.c.c.c.c.c.z.z.z.z.z.z.z.0.0.0.0.0.0.0.9.9.r.y.n z z z z K.=X=X=X=X=X=X).g ^ n.n.n.C     4X4X4X4X4X4X4X4X",
"4X4X4X4X4X4X    w c.c.c.c.c.c.c.z.z.z.z.z.z.z.z.0.0.0.0.0.0.0.9.9.9.9.9.u.I z z ( =X=X=X=X=X=XL.g O.n.n.n.*   4X4X4X4X4X4X4X4X4X",
"4X4X4X4X4X4X4X  O x.c.c.c.c.c.c.z.z.z.z.z.z.z.0.0.0.0.0.0.0.9.9.9.9.9.9.9.4.b z ( =X=X=X=X=X=XV.d <.n.n.-.    4X4X4X4X4X4X4X4X4X",
"4X4X4X4X4X4X4X    [ c.c.c.c.c.z.z.z.z.z.z.z.0.0.0.0.0.0.0.9.9.9.9.9.9.9.9.4.K z ) %X%X%X%X%X%Xa p n.n.n.0     4X4X4X4X4X4X4X4X4X",
"4X4X4X4X4X4X4X4X  2 c.c.c.c.z.z.z.z.z.z.z.z.0.0.0.0.0.0.0.9.9.9.9.9.9.9.4.4.R z T %X%X%X%X%X#Xd B.n.n.x.X   4X4X4X4X4X4X4X4X4X4X",
"4X4X4X4X4X4X4X4X    8.c.c.c.z.z.z.z.z.z.z.0.0.0.0.0.0.0.9.9.9.9.9.9.9.4.4.4.Q z L %X%X%X%X%XT.y @.n.n.`     4X4X4X4X4X4X4X4X4X4X",
"4X4X4X4X4X4X4X4X    N c.c.z.z.z.z.z.z.z.0.0.0.0.0.0.0.0.9.9.9.9.9.9.9.4.4.4.t.z K $X$X$X$X$XL.y k.n.n.;     4X4X4X4X4X4X4X4X4X4X",
"4X4X4X4X4X4X4X4X4X  $ z.c.z.z.z.z.z.z.z.0.0.0.0.0.0.0.9.9.9.9.9.9.9.4.4.4.4.i.z M $X$X$X$X$XV.a n.n.>.    4X4X4X4X4X4X4X4X4X4X4X",
"4X4X4X4X4X4X4X4X4X     .z.z.z.z.z.z.z.0.0.0.0.0.0.0.9.9.9.9.9.9.9.4.4.4.4.4.w.z b $X$X$X$X$Xp X.n.n.w     4X4X4X4X4X4X4X4X4X4X4X",
"4X4X4X4X4X4X4X4X4X4X  8 z.z.z.z.z.z.0.0.0.0.0.0.0.0.9.9.9.9.9.9.9.4.4.4.4.4.4.v v {.{.{.{.].y 1.n.v.O   4X4X4X4X4X4X4X4X4X4X4X4X",
"4X4X4X4X4X4X4X4X4X4X  . 6.z.z.z.z.z.0.0.0.0.0.0.9.9.9.9.9.9.9.9.4.4.4.4.4.4.4.M z {.{.{.{.Y.y v.n.]     4X4X4X4X4X4X4X4X4X4X4X4X",
"4X4X4X4X4X4X4X4X4X4X    A z.z.z.z.0.0.0.0.0.0.0.9.9.9.9.9.9.9.9.4.4.4.4.4.4.4.W z ].{.{.{.Z.i n.n.>     4X4X4X4X4X4X4X4X4X4X4X4X",
"4X4X4X4X4X4X4X4X4X4X4X  - z.z.z.z.0.0.0.0.0.0.0.9.9.9.9.9.9.9.9.4.4.4.4.4.5.5.Y z }.[.[.[.^ +.n.,.    4X4X4X4X4X4X4X4X4X4X4X4X4X",
"4X4X4X4X4X4X4X4X4X4X4X    3 6.z.0.0.0.0.0.0.0.9.9.9.9.9.9.9.9.4.4.4.4.4.4.5.5.! z _.[.[.[.p <.n.r     4X4X4X4X4X4X4X4X4X4X4X4X4X",
"4X4X4X4X4X4X4X4X4X4X4X4X    X N 0.0.0.0.0.0.9.9.9.9.9.9.9.9.9.4.4.4.4.4.4.4.5.i.z (.[.[._.u n.v.@   4X4X4X4X4X4X4X4X4X4X4X4X4X4X",
"4X4X4X4X4X4X4X4X4X4X4X4X4X      * $.0.0.0.0.9.9.9.9.9.9.9.4.4.4.4.4.4.4.4.4.5.=.z (.'.'.P.P n.}     4X4X4X4X4X4X4X4X4X4X4X4X4X4X",
"4X4X4X4X4X4X4X4X4X4X4X4X4X4X4X      8 q.0.0.9.9.9.9.9.9.4.4.4.4.4.4.4.4.4.4.4.5.z I.'.'.C.@.n.3     4X4X4X4X4X4X4X4X4X4X4X4X4X4X",
"4X4X4X4X4X4X4X4X4X4X4X4X4X4X4X4X      # F 9.9.9.9.9.9.9.4.4.4.4.4.4.4.4.4.4.4.4.b I.'.'.i l.h.    4X4X4X4X4X4X4X4X4X4X4X4X4X4X4X",
"4X4X4X4X4X4X4X4X4X4X4X4X4X4X4X4X4X4X      1 %.9.9.9.9.4.4.4.4.4.4.4.4.4.4.4.4.4.K _ `.`.i n.t     4X4X4X4X4X4X4X4X4X4X4X4X4X4X4X",
"4X4X4X4X4X4X4X4X4X4X4X4X4X4X4X4X4X4X4X4X    . x 4.9.4.4.4.4.4.4.4.4.4.4.4.4.4.4.U / `.(.o.n.$     4X4X4X4X4X4X4X4X4X4X4X4X4X4X4X",
"4X4X4X4X4X4X4X4X4X4X4X4X4X4X4X4X4X4X4X4X4X      & { 4.4.4.4.4.4.4.4.4.4.4.4.4.4.Y / `.G.1.|     4X4X4X4X4X4X4X4X4X4X4X4X4X4X4X4X",
"4X4X4X4X4X4X4X4X4X4X4X4X4X4X4X4X4X4X4X4X4X4X4X      8 2.4.4.4.4.4.4.4.5.4.4.4.4.t.~ ^.B.v.7     4X4X4X4X4X4X4X4X4X4X4X4X4X4X4X4X",
"4X4X4X4X4X4X4X4X4X4X4X4X4X4X4X4X4X4X4X4X4X4X4X4X4X    O B 4.4.4.5.5.5.5.5.5.4.4.=.~ ^.X.j..     4X4X4X4X4X4X4X4X4X4X4X4X4X4X4X4X",
"4X4X4X4X4X4X4X4X4X4X4X4X4X4X4X4X4X4X4X4X4X4X4X4X4X4X      : #.4.5.5.5.5.5.5.4.4.3.H ^.O.C     4X4X4X4X4X4X4X4X4X4X4X4X4X4X4X4X4X",
"4X4X4X4X4X4X4X4X4X4X4X4X4X4X4X4X4X4X4X4X4X4X4X4X4X4X4X4X    . q 3.5.5.5.5.5.5.5.4.T /.<.*     4X4X4X4X4X4X4X4X4X4X4X4X4X4X4X4X4X",
"4X4X4X4X4X4X4X4X4X4X4X4X4X4X4X4X4X4X4X4X4X4X4X4X4X4X4X4X4X      & G 5.4.5.5.4.4.4.T G...      4X4X4X4X4X4X4X4X4X4X4X4X4X4X4X4X4X",
"4X4X4X4X4X4X4X4X4X4X4X4X4X4X4X4X4X4X4X4X4X4X4X4X4X4X4X4X4X4X4X      4 *.4.4.4.4.4.E D.0     4X4X4X4X4X4X4X4X4X4X4X4X4X4X4X4X4X4X",
"4X4X4X4X4X4X4X4X4X4X4X4X4X4X4X4X4X4X4X4X4X4X4X4X4X4X4X4X4X4X4X4X4X    O B 5.4.4.4.E p.X     4X4X4X4X4X4X4X4X4X4X4X4X4X4X4X4X4X4X",
"4X4X4X4X4X4X4X4X4X4X4X4X4X4X4X4X4X4X4X4X4X4X4X4X4X4X4X4X4X4X4X4X4X4X      - #.4.4.i.S     4X4X4X4X4X4X4X4X4X4X4X4X4X4X4X4X4X4X4X",
"4X4X4X4X4X4X4X4X4X4X4X4X4X4X4X4X4X4X4X4X4X4X4X4X4X4X4X4X4X4X4X4X4X4X4X4X    . q 3.*.;     4X4X4X4X4X4X4X4X4X4X4X4X4X4X4X4X4X4X4X",
"4X4X4X4X4X4X4X4X4X4X4X4X4X4X4X4X4X4X4X4X4X4X4X4X4X4X4X4X4X4X4X4X4X4X4X4X4X      # V       4X4X4X4X4X4X4X4X4X4X4X4X4X4X4X4X4X4X4X",
"4X4X4X4X4X4X4X4X4X4X4X4X4X4X4X4X4X4X4X4X4X4X4X4X4X4X4X4X4X4X4X4X4X4X4X4X4X4X4X          4X4X4X4X4X4X4X4X4X4X4X4X4X4X4X4X4X4X4X4X",
"4X4X4X4X4X4X4X4X4X4X4X4X4X4X4X4X4X4X4X4X4X4X4X4X4X4X4X4X4X4X4X4X4X4X4X4X4X4X4X4X4X      4X4X4X4X4X4X4X4X4X4X4X4X4X4X4X4X4X4X4X4X",
"4X4X4X4X4X4X4X4X4X4X4X4X4X4X4X4X4X4X4X4X4X4X4X4X4X4X4X4X4X4X4X4X4X4X4X4X4X4X4X4X4X4X  4X4X4X4X4X4X4X4X4X4X4X4X4X4X4X4X4X4X4X4X4X",
"4X4X4X4X4X4X4X4X4X4X4X4X4X4X4X4X4X4X4X4X4X4X4X4X4X4X4X4X4X4X4X4X4X4X4X4X4X4X4X4X4X4X4X4X4X4X4X4X4X4X4X4X4X4X4X4X4X4X4X4X4X4X4X4X",
"4X4X4X4X4X4X4X4X4X4X4X4X4X4X4X4X4X4X4X4X4X4X4X4X4X4X4X4X4X4X4X4X4X4X4X4X4X4X4X4X4X4X4X4X4X4X4X4X4X4X4X4X4X4X4X4X4X4X4X4X4X4X4X4X"
};
