/* XPM */
static char * file_gear_xpm[] = {
"64 64 7 1",
" 	c None",
".	c #BABDB6",
"+	c #EEEEEC",
"@	c #D3D7CF",
"#	c #000000",
"$	c #555753",
"%	c #888A85",
"        ................................                        ",
"        .++++++++++++++++++++++++++++++..                       ",
"        .+@@@@@@@@@@@@@@@@@@@@@@@@@@@@@.+.                      ",
"        .+@@@@@@@@@@@@@@@@@@@@@@@@@@@@@.++.                     ",
"        .+@@@@@@@@@@@@@@@@@@@@@@@@@@@@@.+@+.                    ",
"        .+@@@@@@@@@@@@@@@@@@@@@@@@@@@@@.+.@+.                   ",
"        .+@@@@@@@@@@@@@@@@@@@@@@@@@@@@@.+@.@+.                  ",
"        .+@@@@@@@@@@@@@@@@@@@@@@@@@@@@@.+.@.@+.                 ",
"        .+@@@@@@@@@@@@@@@@@@@@@@@@@@@@@.+@.@.@+.                ",
"        .+@@@@@@@@@@@@@@@@@@@@@@@@@@@@@.+@@.@.@+.               ",
"        .+@@@@@@@@@@@@@@@@@@@@@@@@@@@@@.+@.@.@.@+.              ",
"        .+@@@@@@@@@@@@@@@@@@@@@@@@@@@@@.+@@@@.@.@+.             ",
"        .+@@@@@@@@@@@@@@@@@@@@@@@@@@@@@.+@.@.@.@.@+.            ",
"        .+@@@@@@@@@@@@@@@@@@@@@@@@@@@@@.+@@@@@@.@.@+.           ",
"        .+@@@@@@@@@@@@@@@@@@@@@@@@@@@@@.+@@@.@.@.@.@+.          ",
"        .+@@@@@@@@@@@@@@@@@@@@@@@@@@@@@................         ",
"        .+@@@@@@@@@@@@@@@@@@@@@@@@@@@@@#################        ",
"        .+@@@@@@@@@@@@@@@@@@@@@@@@@@@@@@@@@@@@@@@@@@@@.#        ",
"        .+@@@@@@@@@@@@@@@@@@@@@@@@@@@@@@@@@@@@@@@@@@@@.#        ",
"        .+@@@@@@@@@@@@@@@@@@@@@@@@@@@@@@@@@@@@@@@@@@@@.#        ",
"        .+@@@@@@@@@@@@@@@@@@@@@@@@@@@@@@@@@@@@@@@@@@@@.#        ",
"        .+@@@@@@@@@@@@@@@@@@@@@@@@@@@@@@@@@@@@@@@@@@@@.#        ",
"        .+@@@@@@@@@@@@@@@@@@@@@@@@@@@@@@@@@@@@@@@@@@@@.#        ",
"        .+@@@@@@@@@@@@@@@@@@@@@@@@@@@@@@@@@@@@@@@@@@@@.#        ",
"        .+@@@@@@@@@@@@@@@@@@@$$$$$$@@@@@@@@@@@@@@@@@@@.#        ",
"        .+@@@@@@@@@@@@@@@@@@#.....$#@@@@@@@@@@@@@@@@@@.#        ",
"        .+@@@@@@@@@@@@@@@@@@#.%%%%$#@@@@@@@@@@@@@@@@@@.#        ",
"        .+@@@@@@@@@@@@@@@@@@#.%%%%$#@@@@@@@@@@@@@@@@@@.#        ",
"        .+@@@@@@@@@@@@@@@@@@#.%%%%$#@@@@@@@@@@@@@@@@@@.#        ",
"        .+@@@@@@@@@$$@@@@@@$.%%%%%%$$@@@@@@$$@@@@@@@@@.#        ",
"        .+@@@@@@@@$..$$@@$$.%%%%%%%%.$$@@$$..#@@@@@@@@.#        ",
"        .+@@@@@@@$.%%..$$..%%%%%%%%%%..$$..%%$#@@@@@@@.#        ",
"        .+@@@@@@@$.%%%%..%%%%%%%%%%%%%%..%%%%$#@@@@@@@.#        ",
"        .+@@@@@@$.%%%%%%%%%%%%%%%%%%%%%%%%%%%%$#@@@@@@.#        ",
"        .+@@@@@@$$%%%%%%%%%%%%%%%%%%%%%%%%%%%%$#@@@@@@.#        ",
"        .+@@@@@@@#$$%%%%%%%%%%%%%%%%%%%%%%%%$$#@@@@@@@.#        ",
"        .+@@@@@@@@##$$%%%%%%%%####%%%%%%%%$$##@@@@@@@@.#        ",
"        .+@@@@@@@@@@##.%%%%%%#@@@@$%%%%%%$##@@@@@@@@@@.#        ",
"        .+@@@@@@@@@@@@$.%%%%#@@@@@@$%%%%$#@@@@@@@@@@@@.#        ",
"        .+@@@@@@@@@@@@$.%%%%#@@@@@@$%%%%$#@@@@@@@@@@@@.#        ",
"        .+@@@@@@@@@@@@$.%%%%#@@@@@@$%%%%$#@@@@@@@@@@@@.#        ",
"        .+@@@@@@@@@@@@$.%%%%#@@@@@@$%%%%$#@@@@@@@@@@@@.#        ",
"        .+@@@@@@@@@@$$.%%%%%%#@@@@$%%%%%%$$$@@@@@@@@@@.#        ",
"        .+@@@@@@@@$$..%%%%%%%%$$$$%%%%%%%%..$$@@@@@@@@.#        ",
"        .+@@@@@@@$..%%%%%%%%%%%%%%%%%%%%%%%%..$@@@@@@@.#        ",
"        .+@@@@@@$.%%%%%%%%%%%%%%%%%%%%%%%%%%%%.#@@@@@@.#        ",
"        .+@@@@@@$.%%%%%%%%%%%%%%%%%%%%%%%%%%%%$#@@@@@@.#        ",
"        .+@@@@@@@$.%%%%$$%%%%%%%%%%%%%%$$%%%%$#@@@@@@@.#        ",
"        .+@@@@@@@$.%%$$##$$%%%%%%%%%%$$##$$%%$#@@@@@@@.#        ",
"        .+@@@@@@@@$$$##@@##$%%%%%%%%$##@@##$$#@@@@@@@@.#        ",
"        .+@@@@@@@@@##@@@@@@#.%%%%%%$#@@@@@@##@@@@@@@@@.#        ",
"        .+@@@@@@@@@@@@@@@@@@$.%%%%$#@@@@@@@@@@@@@@@@@@.#        ",
"        .+@@@@@@@@@@@@@@@@@@$.%%%%$#@@@@@@@@@@@@@@@@@@.#        ",
"        .+@@@@@@@@@@@@@@@@@@$.%%%%$#@@@@@@@@@@@@@@@@@@.#        ",
"        .+@@@@@@@@@@@@@@@@@@$$$$$$$#@@@@@@@@@@@@@@@@@@.#        ",
"        .+@@@@@@@@@@@@@@@@@@@######@@@@@@@@@@@@@@@@@@@.#        ",
"        .+@@@@@@@@@@@@@@@@@@@@@@@@@@@@@@@@@@@@@@@@@@@@.#        ",
"        .+@@@@@@@@@@@@@@@@@@@@@@@@@@@@@@@@@@@@@@@@@@@@.#        ",
"        .+@@@@@@@@@@@@@@@@@@@@@@@@@@@@@@@@@@@@@@@@@@@@.#        ",
"        .+@@@@@@@@@@@@@@@@@@@@@@@@@@@@@@@@@@@@@@@@@@@@.#        ",
"        .+@@@@@@@@@@@@@@@@@@@@@@@@@@@@@@@@@@@@@@@@@@@@.#        ",
"        .+@@@@@@@@@@@@@@@@@@@@@@@@@@@@@@@@@@@@@@@@@@@@.#        ",
"        ...............................................#        ",
"        ################################################        "};
