/* XPM */
static char * file_music_xpm[] = {
"64 64 8 1",
" 	c None",
".	c #BABDB6",
"+	c #EEEEEC",
"@	c #D3D7CF",
"#	c #000000",
"$	c #5C3566",
"%	c #AD7FA8",
"&	c #75507B",
"        ................................                        ",
"        .++++++++++++++++++++++++++++++..                       ",
"        .+@@@@@@@@@@@@@@@@@@@@@@@@@@@@@.+.                      ",
"        .+@@@@@@@@@@@@@@@@@@@@@@@@@@@@@.++.                     ",
"        .+@@@@@@@@@@@@@@@@@@@@@@@@@@@@@.+@+.                    ",
"        .+@@@@@@@@@@@@@@@@@@@@@@@@@@@@@.+.@+.                   ",
"        .+@@@@@@@@@@@@@@@@@@@@@@@@@@@@@.+@.@+.                  ",
"        .+@@@@@@@@@@@@@@@@@@@@@@@@@@@@@.+.@.@+.                 ",
"        .+@@@@@@@@@@@@@@@@@@@@@@@@@@@@@.+@.@.@+.                ",
"        .+@@@@@@@@@@@@@@@@@@@@@@@@@@@@@.+@@.@.@+.               ",
"        .+@@@@@@@@@@@@@@@@@@@@@@@@@@@@@.+@.@.@.@+.              ",
"        .+@@@@@@@@@@@@@@@@@@@@@@@@@@@@@.+@@@@.@.@+.             ",
"        .+@@@@@@@@@@@@@@@@@@@@@@@@@@@@@.+@.@.@.@.@+.            ",
"        .+@@@@@@@@@@@@@@@@@@@@@@@@@@@@@.+@@@@@@.@.@+.           ",
"        .+@@@@@@@@@@@@@@@@@@@@@@@@@@@@@.+@@@.@.@.@.@+.          ",
"        .+@@@@@@@@@@@@@@@@@@@@@@@@@@@@@................         ",
"        .+@@@@@@@@@@@@@@@@@@@@@@@@@@@@@#################        ",
"        .+@@@@@@@@@@@@@@@@@@@@@@@@@@@@@@@@@@@@@@@@@@@@.#        ",
"        .+@@@@@@@@@@@@@@@@@@@@@@@@@@@@@@@@@@@@@@@@@@@@.#        ",
"        .+@@@@@@@@@@@@@@@@@@@@@@@@@@@@@@@@@@@@@@@@@@@@.#        ",
"        .+@@@@@@@@@@@@@@@@@@@@@@@@@@@@@@@@@@@@@@@@@@@@.#        ",
"        .+@@@@@@@@@@@@@@@@@@@@@@@@@@@@@@@@@@@@@@@@@@@@.#        ",
"        .+@@@@@@@@@@@@@@@@@@@@@@@@@@@@@@@@@@@@@@@@@@@@.#        ",
"        .+@@@@@@@@@@@@@@@@@@@@@@@@@@@@@@@@@@@@@@@@@@@@.#        ",
"        .+@@@@@@@@@@@@@@@@@@@@@@@@@@@@@@@@$$$$$$@@@@@@.#        ",
"        .+@@@@@@@@@@@@@@@@@@@@@@@@@@$$$$$$%%%%$.@@@@@@.#        ",
"        .+@@@@@@@@@@@@@@@@@@@@$$$$$$%%%%%%&&&&$.@@@@@@.#        ",
"        .+@@@@@@@@@@@@@@$$$$$$%%%%%%&&&&&&&&&&$.@@@@@@.#        ",
"        .+@@@@@@@@@@@@@@$%%%%%&&&&&&&&&&&&&&&&$.@@@@@@.#        ",
"        .+@@@@@@@@@@@@@@$%++@&&&&&&&&&&&&&&&&&$.@@@@@@.#        ",
"        .+@@@@@@@@@@@@@@$%@&&&&&&&&&&&&&$$$$$&$.@@@@@@.#        ",
"        .+@@@@@@@@@@@@@@$%&&&&&&&&&&$$$$....$%$.@@@@@@.#        ",
"        .+@@@@@@@@@@@@@@$%&&&&&&$$$$....@@@@$%$.@@@@@@.#        ",
"        .+@@@@@@@@@@@@@@$%&$$$$$....@@@@@@@@$%$.@@@@@@.#        ",
"        .+@@@@@@@@@@@@@@$%$.....@@@@@@@@@@@@$%$.@@@@@@.#        ",
"        .+@@@@@@@@@@@@@@$%$.@@@@@@@@@@@@@@@@$%$.@@@@@@.#        ",
"        .+@@@@@@@@@@@@@@$%$.@@@@@@@@@@@@@@@@$%$.@@@@@@.#        ",
"        .+@@@@@@@@@@@@@@$%$.@@@@@@@@@@@@@@@@$%$.@@@@@@.#        ",
"        .+@@@@@@@@@@@@@@$%$.@@@@@@@@@@@@@@@@$%$.@@@@@@.#        ",
"        .+@@@@@@@@@@@@@@$%$.@@@@@@@@@@@@@@@@$%$.@@@@@@.#        ",
"        .+@@@@@@@@@@@@@@$%$.@@@@@@@@@@@@@@@@$%$.@@@@@@.#        ",
"        .+@@@@@@@@@@@@@@$%$.@@@@@@@@@@@@@@@@$%$.@@@@@@.#        ",
"        .+@@@@@@@@@@@@@@$%$.@@@@@@@@@@@@@@@@$%$.@@@@@@.#        ",
"        .+@@@@@@@@@@@@@@$%$.@@@@@@@@@@@@@@@@$%$.@@@@@@.#        ",
"        .+@@@@@@@@@@@@@@$%$.@@@@@@@@@@@$$$$$$%$.@@@@@@.#        ",
"        .+@@@@@@@@@@@@@@$%$.@@@@@@@@@@$%%%%%%&$.@@@@@@.#        ",
"        .+@@@@@@@@@@@@@@$%$.@@@@@@@@@$%+@&&&&&$.@@@@@@.#        ",
"        .+@@@@@@@@@$$$$$$%$.@@@@@@@@$%@+&&&&&&$.@@@@@@.#        ",
"        .+@@@@@@@@$%%%%%%&$.@@@@@@@@$%&&&&&&&&$.@@@@@@.#        ",
"        .+@@@@@@@$%+@&&&&&$.@@@@@@@@$%&&&&&&&&$.@@@@@@.#        ",
"        .+@@@@@@$%@+&&&&&&$.@@@@@@@@@$%&&&&&&$.@@@@@@@.#        ",
"        .+@@@@@@$%&&&&&&&&$.@@@@@@@@@@$$$$$$$.@@@@@@@@.#        ",
"        .+@@@@@@$%&&&&&&&&$.@@@@@@@@@@@......@@@@@@@@@.#        ",
"        .+@@@@@@@$%&&&&&&$.@@@@@@@@@@@@@@@@@@@@@@@@@@@.#        ",
"        .+@@@@@@@@$$$$$$$.@@@@@@@@@@@@@@@@@@@@@@@@@@@@.#        ",
"        .+@@@@@@@@@......@@@@@@@@@@@@@@@@@@@@@@@@@@@@@.#        ",
"        .+@@@@@@@@@@@@@@@@@@@@@@@@@@@@@@@@@@@@@@@@@@@@.#        ",
"        .+@@@@@@@@@@@@@@@@@@@@@@@@@@@@@@@@@@@@@@@@@@@@.#        ",
"        .+@@@@@@@@@@@@@@@@@@@@@@@@@@@@@@@@@@@@@@@@@@@@.#        ",
"        .+@@@@@@@@@@@@@@@@@@@@@@@@@@@@@@@@@@@@@@@@@@@@.#        ",
"        .+@@@@@@@@@@@@@@@@@@@@@@@@@@@@@@@@@@@@@@@@@@@@.#        ",
"        .+@@@@@@@@@@@@@@@@@@@@@@@@@@@@@@@@@@@@@@@@@@@@.#        ",
"        ...............................................#        ",
"        ################################################        "};
