/* XPM */
static char * file_archive_xpm[] = {
"64 64 7 1",
" 	c None",
".	c #BABDB6",
"+	c #EEEEEC",
"@	c #888A85",
"#	c #555753",
"$	c #D3D7CF",
"%	c #000000",
"        ................................                        ",
"        .+++++++++++++++++++++@@##+++++..                       ",
"        .+$$$$$$$$$$$$$$$$$$$$@@##$$$$$.+.                      ",
"        .+$$$$$$$$$$$$$$$$$$$$$$$$$$$$$.++.                     ",
"        .+$$$$$$$$$$$$$$$$$$$$@@##$$$$$.+$+.                    ",
"        .+$$$$$$$$$$$$$$$$$$$$@@##$$$$$.+.$+.                   ",
"        .+$$$$$$$$$$$$$$$$$$$$$$$$$$$$$.+$.$+.                  ",
"        .+$$$$$$$$$$$$$$$$$$$$@@##$$$$$.+.$.$+.                 ",
"        .+$$$$$$$$$$$$$$$$$$$$@@##$$$$$.+$.$.$+.                ",
"        .+$$$$$$$$$$$$$$$$$$$$$$$$$$$$$.+$$.$.$+.               ",
"        .+$$$$$$$$$$$$$$$$$$$$@@##$$$$$.+$.$.$.$+.              ",
"        .+$$$$$$$$$$$$$$$$$$$$@@##$$$$$.+$$$$.$.$+.             ",
"        .+$$$$$$$$$$$$$$$$$$$$$$$$$$$$$.+$.$.$.$.$+.            ",
"        .+$$$$$$$$$$$$$$$$$$$$@@##$$$$$.+$$$$$$.$.$+.           ",
"        .+$$$$$$$$$$$$$$$$$$$$@@##$$$$$.+$$$.$.$.$.$+.          ",
"        .+$$$$$$$$$$$$$$$$$$$$$$$$$$$$$................         ",
"        .+$$$$$$$$$$$$$$$$$$$$@@##$$$$$%%%%%%%%%%%%%%%%%        ",
"        .+$$$$$$$$$$$$$$$$$$$$@@##$$$$$$$$$$$$$$$$$$$$.%        ",
"        .+$$$$$$$$$$$$$$$$$$$$$$$$$$$$$$$$$$$$$$$$$$$$.%        ",
"        .+$$$$$$$$$$$$$$$$$$$$@@##$$$$$$$$$$$$$$$$$$$$.%        ",
"        .+$$$$$$$$$$$$$$$$$$$$@@##$$$$$$$$$$$$$$$$$$$$.%        ",
"        .+$$$$$$$$$$$$$$$$$$$$$$$$$$$$$$$$$$$$$$$$$$$$.%        ",
"        .+$$$$$$$$$$$$$$$$$$$$@@##$$$$$$$$$$$$$$$$$$$$.%        ",
"        .+$$$$$$$$$$$$$$$$$$$$@@##$$$$$$$$$$$$$$$$$$$$.%        ",
"        .+$$$$$$$$$$$$$$$$$$$$$$$$$$$$$$$$$$$$$$$$$$$$.%        ",
"        .+$$$$$$$$$$$$$$$$$$$$@@##$$$$$$$$$$$$$$$$$$$$.%        ",
"        .+$$$$$$$$$$$$$$$$$$$$@@##$$$$$$$$$$$$$$$$$$$$.%        ",
"        .+$$$$$$$$$$$$$$$$$$$$$$$$$$$$$$$$$$$$$$$$$$$$.%        ",
"        .+$$$$$$$$$$$$$$$$$$$$@@##$$$$$$$$$$$$$$$$$$$$.%        ",
"        .+$$$$$$$$$$$$$$$$$$$$@@##$$$$$$$$$$$$$$$$$$$$.%        ",
"        .+$$$$$$$$$$$$$$$$$$$$$$$$$$$$$$$$$$$$$$$$$$$$.%        ",
"        .+$$$$$$$$$$$$$$$$$$$$@@##$$$$$$$$$$$$$$$$$$$$.%        ",
"        .+$$$$$$$$$$$$$$$$$$$$@@##$$$$$$$$$$$$$$$$$$$$.%        ",
"        .+$$$$$$$$$$$$$$$$$$$$$$$$$$$$$$$$$$$$$$$$$$$$.%        ",
"        .+$$$$$$$$$$$$$$$$$$$$@@##$$$$$$$$$$$$$$$$$$$$.%        ",
"        .+$$$$$$$$$$$$$$$$$$$$@@##$$$$$$$$$$$$$$$$$$$$.%        ",
"        .+$$$$$$$$$$$$$$$$$$$$$$$$$$$$$$$$$$$$$$$$$$$$.%        ",
"        .+$$$$$$$$$$$$$$$$$$$$$##$$$$$$$$$$$$$$$$$$$$$.%        ",
"        .+$$$$$$$$$$$$$$$$$$$$#@@#$$$$$$$$$$$$$$$$$$$$.%        ",
"        .+$$$$$$$$$$$$$$$$$$$#@@@@#$$$$$$$$$$$$$$$$$$$.%        ",
"        .+$$$$$$$$$$$$$$$$$$$#@##@#$$$$$$$$$$$$$$$$$$$.%        ",
"        .+$$$$$$$$$$$$$$$$$$$#@##@#$$$$$$$$$$$$$$$$$$$.%        ",
"        .+$$$$$$$$$$$$$$$$$$$#@@@@#$$$$$$$$$$$$$$$$$$$.%        ",
"        .+$$$$$$$$$$$$$$$$$$$#@##@#$$$$$$$$$$$$$$$$$$$.%        ",
"        .+$$$$$$$$$$$$$$$$$$$#@##@#$$$$$$$$$$$$$$$$$$$.%        ",
"        .+$$$$$$$$$$$$$$$$$$$#@@@@#$$$$$$$$$$$$$$$$$$$.%        ",
"        .+$$$$$$$$$$$$$$$$$$$$#@@#$$$$$$$$$$$$$$$$$$$$.%        ",
"        .+$$$$$$$$$$$$$$$$$$$$$##$$$$$$$$$$$$$$$$$$$$$.%        ",
"        .+$$$$$$$$$$$$$$$$$$$$$$$$$$$$$$$$$$$$$$$$$$$$.%        ",
"        .+$$$$$$$$$$$$$$$$$$$$$$$$$$$$$$$$$$$$$$$$$$$$.%        ",
"        .+$$$$$$$$$$$$$$$$$$$$$$$$$$$$$$$$$$$$$$$$$$$$.%        ",
"        .+$$$$$$$$$$$$$$$$$$$$$$$$$$$$$$$$$$$$$$$$$$$$.%        ",
"        .+$$$$$$$$$$$$$$$$$$$$$$$$$$$$$$$$$$$$$$$$$$$$.%        ",
"        .+$$$$$$$$$$$$$$$$$$$$$$$$$$$$$$$$$$$$$$$$$$$$.%        ",
"        .+$$$$$$$$$$$$$$$$$$$$$$$$$$$$$$$$$$$$$$$$$$$$.%        ",
"        .+$$$$$$$$$$$$$$$$$$$$$$$$$$$$$$$$$$$$$$$$$$$$.%        ",
"        .+$$$$$$$$$$$$$$$$$$$$$$$$$$$$$$$$$$$$$$$$$$$$.%        ",
"        .+$$$$$$$$$$$$$$$$$$$$$$$$$$$$$$$$$$$$$$$$$$$$.%        ",
"        .+$$$$$$$$$$$$$$$$$$$$$$$$$$$$$$$$$$$$$$$$$$$$.%        ",
"        .+$$$$$$$$$$$$$$$$$$$$$$$$$$$$$$$$$$$$$$$$$$$$.%        ",
"        .+$$$$$$$$$$$$$$$$$$$$$$$$$$$$$$$$$$$$$$$$$$$$.%        ",
"        .+$$$$$$$$$$$$$$$$$$$$$$$$$$$$$$$$$$$$$$$$$$$$.%        ",
"        ...............................................%        ",
"        %%%%%%%%%%%%%%%%%%%%%%%%%%%%%%%%%%%%%%%%%%%%%%%%        "};
