/* XPM */
static char * file_code_xpm[] = {
"64 64 7 1",
" 	c None",
".	c #BABDB6",
"+	c #EEEEEC",
"@	c #D3D7CF",
"#	c #000000",
"$	c #729FCF",
"%	c #3465A4",
"        ................................                        ",
"        .++++++++++++++++++++++++++++++..                       ",
"        .+@@@@@@@@@@@@@@@@@@@@@@@@@@@@@.+.                      ",
"        .+@@@@@@@@@@@@@@@@@@@@@@@@@@@@@.++.                     ",
"        .+@@@@@@@@@@@@@@@@@@@@@@@@@@@@@.+@+.                    ",
"        .+@@@@@@@@@@@@@@@@@@@@@@@@@@@@@.+.@+.                   ",
"        .+@@@@@@@@@@@@@@@@@@@@@@@@@@@@@.+@.@+.                  ",
"        .+@@@@@@@@@@@@@@@@@@@@@@@@@@@@@.+.@.@+.                 ",
"        .+@@@@@@@@@@@@@@@@@@@@@@@@@@@@@.+@.@.@+.                ",
"        .+@@@@@@@@@@@@@@@@@@@@@@@@@@@@@.+@@.@.@+.               ",
"        .+@@@@@@@@@@@@@@@@@@@@@@@@@@@@@.+@.@.@.@+.              ",
"        .+@@@@@@@@@@@@@@@@@@@@@@@@@@@@@.+@@@@.@.@+.             ",
"        .+@@@@@@@@@@@@@@@@@@@@@@@@@@@@@.+@.@.@.@.@+.            ",
"        .+@@@@@@@@@@@@@@@@@@@@@@@@@@@@@.+@@@@@@.@.@+.           ",
"        .+@@@@@@@@@@@@@@@@@@@@@@@@@@@@@.+@@@.@.@.@.@+.          ",
"        .+@@@@@@@@@@@@@@@@@@@@@@@@@@@@@................         ",
"        .+@@@@@@@@@@@@@@@@@@@@@@@@@@@@@#################        ",
"        .+@@@@@@@@@@@@@@@@@@@@@@@@@@@@@@@@@@@@@@@@@@@@.#        ",
"        .+@@@@@@@@@@@@@@@@@@@@@@@@@@@@@@@@@@@@@@@@@@@@.#        ",
"        .+@@@@@@@@@@@@@@@@@@@@@@@@@@@@@@@@@@@@@@@@@@@@.#        ",
"        .+@@@@@@@@@@@@@@@@@@@@@@@@@@@@@@@@@@@@@@@@@@@@.#        ",
"        .+@@@@@@@@@@@@@@@@@@@@@@@@@@@@@@@@@@@@@@@@@@@@.#        ",
"        .+@@@@@@@@@@@@@@@@@@@@@@@@@@@@@@@@@@@@@@@@@@@@.#        ",
"        .+@@@@@@@@@@@@@@@@@@@@@@@@@@@@@@@@@@@@@@@@@@@@.#        ",
"        .+@@@@@@@@@@@@@@@@@@@@@@@@@@@@@@@@@@@@@@@@@@@@.#        ",
"        .+@@@@@@@@@@@$$%%%.@@@@@@@@@@$%%%..@@@@@@@@@@@.#        ",
"        .+@@@@@@@@@@$%%%..@@@@@@@@@@@@$$%%%.@@@@@@@@@@.#        ",
"        .+@@@@@@@@@$%%%.@@@@@@@@@@@@@@@@$%%%.@@@@@@@@@.#        ",
"        .+@@@@@@@@@$%%%.@@@@@@@@@@@@@@@@$%%%.@@@@@@@@@.#        ",
"        .+@@@@@@@@@$%%%.@@%%%%%@%%%@%%@@$%%%.@@@@@@@@@.#        ",
"        .+@@@@@@@@@$%%%.@@@@@@@@@@@@@@@@$%%%.@@@@@@@@@.#        ",
"        .+@@@@@@@@@$%%%.@@%%@%%%%%@@@@@@$%%%.@@@@@@@@@.#        ",
"        .+@@@@@@@@@$%%%.@@@@@@@@@@@@@@@@$%%%.@@@@@@@@@.#        ",
"        .+@@@@@@@@@$%%%.@@%%@%%%@@@@@@@@$%%%.@@@@@@@@@.#        ",
"        .+@@@@@@@@@$%%%.@@@@@@@@@@@@@@@@$%%%.@@@@@@@@@.#        ",
"        .+@@@@@@@@@$%%%.@@@@@%%@%%%%@@@@$%%%.@@@@@@@@@.#        ",
"        .+@@@@@@@@@$%%%.@@@@@@@@@@@@@@@@$%%%.@@@@@@@@@.#        ",
"        .+@@@@@@@@@$%%%.@@@@@%%%%%@%%@@@$%%%.@@@@@@@@@.#        ",
"        .+@@@@@@@@$%%%.@@@@@@@@@@@@@@@@@@$%%%.@@@@@@@@.#        ",
"        .+@@@@@@@$%%%.@@@@%@@@@@@@@@@@@@@@$%%%.@@@@@@@.#        ",
"        .+@@@@@@$%%%.@@@@@@@@@@@@@@@@@@@@@@$%%%.@@@@@@.#        ",
"        .+@@@@@@@$%%%.@@@@%%%%@%%@@@@@@@@@$%%%.@@@@@@@.#        ",
"        .+@@@@@@@@$%%%.@@@@@@@@@@@@@@@@@@$%%%.@@@@@@@@.#        ",
"        .+@@@@@@@@@$%%%.@@@@@@@@@@@@@@@@$%%%.@@@@@@@@@.#        ",
"        .+@@@@@@@@@$%%%.@@%%@%%%%%@@@@@@$%%%.@@@@@@@@@.#        ",
"        .+@@@@@@@@@$%%%.@@@@@@@@@@@@@@@@$%%%.@@@@@@@@@.#        ",
"        .+@@@@@@@@@$%%%.@@@@@%%@%%%@@@@@$%%%.@@@@@@@@@.#        ",
"        .+@@@@@@@@@$%%%.@@@@@@@@@@@@@@@@$%%%.@@@@@@@@@.#        ",
"        .+@@@@@@@@@$%%%.@@@@@%%%@@@@@@@@$%%%.@@@@@@@@@.#        ",
"        .+@@@@@@@@@$%%%.@@@@@@@@@@@@@@@@$%%%.@@@@@@@@@.#        ",
"        .+@@@@@@@@@$%%%.@@@@@%@@@@@@@@@@$%%%.@@@@@@@@@.#        ",
"        .+@@@@@@@@@$%%%.@@@@@@@@@@@@@@@@$%%%.@@@@@@@@@.#        ",
"        .+@@@@@@@@@$%%%.@@%%@@@@@@@@@@@@$%%%.@@@@@@@@@.#        ",
"        .+@@@@@@@@@$%%%.@@@@@@@@@@@@@@@@$%%%.@@@@@@@@@.#        ",
"        .+@@@@@@@@@@$%%%..@@@@@@@@@@@@$$%%%.@@@@@@@@@@.#        ",
"        .+@@@@@@@@@@@$$%%%.@@@@@@@@@@$%%%..@@@@@@@@@@@.#        ",
"        .+@@@@@@@@@@@@@@@@@@@@@@@@@@@@@@@@@@@@@@@@@@@@.#        ",
"        .+@@@@@@@@@@@@@@@@@@@@@@@@@@@@@@@@@@@@@@@@@@@@.#        ",
"        .+@@@@@@@@@@@@@@@@@@@@@@@@@@@@@@@@@@@@@@@@@@@@.#        ",
"        .+@@@@@@@@@@@@@@@@@@@@@@@@@@@@@@@@@@@@@@@@@@@@.#        ",
"        .+@@@@@@@@@@@@@@@@@@@@@@@@@@@@@@@@@@@@@@@@@@@@.#        ",
"        .+@@@@@@@@@@@@@@@@@@@@@@@@@@@@@@@@@@@@@@@@@@@@.#        ",
"        ...............................................#        ",
"        ################################################        "};
