/* XPM */
static char * file_app_xpm[] = {
"64 64 14 1",
" 	c None",
".	c #BABDB6",
"+	c #EEEEEC",
"@	c #D3D7CF",
"#	c #000000",
"$	c #C4A000",
"%	c #FCE94F",
"&	c #EDD400",
"*	c #204A87",
"=	c #729FCF",
"-	c #EF2929",
";	c #3465A4",
">	c #CC0000",
",	c #A40000",
"        ................................                        ",
"        .++++++++++++++++++++++++++++++..                       ",
"        .+@@@@@@@@@@@@@@@@@@@@@@@@@@@@@.+.                      ",
"        .+@@@@@@@@@@@@@@@@@@@@@@@@@@@@@.++.                     ",
"        .+@@@@@@@@@@@@@@@@@@@@@@@@@@@@@.+@+.                    ",
"        .+@@@@@@@@@@@@@@@@@@@@@@@@@@@@@.+.@+.                   ",
"        .+@@@@@@@@@@@@@@@@@@@@@@@@@@@@@.+@.@+.                  ",
"        .+@@@@@@@@@@@@@@@@@@@@@@@@@@@@@.+.@.@+.                 ",
"        .+@@@@@@@@@@@@@@@@@@@@@@@@@@@@@.+@.@.@+.                ",
"        .+@@@@@@@@@@@@@@@@@@@@@@@@@@@@@.+@@.@.@+.               ",
"        .+@@@@@@@@@@@@@@@@@@@@@@@@@@@@@.+@.@.@.@+.              ",
"        .+@@@@@@@@@@@@@@@@@@@@@@@@@@@@@.+@@@@.@.@+.             ",
"        .+@@@@@@@@@@@@@@@@@@@@@@@@@@@@@.+@.@.@.@.@+.            ",
"        .+@@@@@@@@@@@@@@@@@@@@@@@@@@@@@.+@@@@@@.@.@+.           ",
"        .+@@@@@@@@@@@@@@@@@@@@@@@@@@@@@.+@@@.@.@.@.@+.          ",
"        .+@@@@@@@@@@@@@@@@@@@@@@@@@@@@@................         ",
"        .+@@@@@@@@@@@@@@@@@@@@@@@@@@@@@#################        ",
"        .+@@@@@@@@@@@@@@@@@@@@@@@@@@@@@@@@@@@@@@@@@@@@.#        ",
"        .+@@@@@@@@@@@@@@@@@@@@@@@@@@@@@@@@@@@@@@@@@@@@.#        ",
"        .+@@@@@@@@@@@@@@@@@@@@@@@@@@@@@@@@@@@@@@@@@@@@.#        ",
"        .+@@@@@@@@@@@@@@@@@@@@@@@@@@@@@@@@@@@@@@@@@@@@.#        ",
"        .+@@@@@@@@@@@@@@@@@@@@@@@@@@@@@@@@@@@@@@@@@@@@.#        ",
"        .+@@@@@@@@@@@@@@@@@@@@@@@@@@@@@@@@@@@@@@@@@@@@.#        ",
"        .+@@@@@@@@@@@@@@@@@@@@@@@@@@@@@@@@@@@@@@@@@@@@.#        ",
"        .+@@@@@@@@@@@@@@@@@@@@@$#@@@@@@@@@@@@@@@@@@@@@.#        ",
"        .+@@@@@@@@@@@@@@@@@@@@$%%#@@@@@@@@@@@@@@@@@@@@.#        ",
"        .+@@@@@@@@@@@@@@@@@@@$%%%%#@@@@@@@@@@@@@@@@@@@.#        ",
"        .+@@@@@@@@@@@@@@@@@@$%%%%%%#@@@@@@@@@@@@@@@@@@.#        ",
"        .+@@@@@@@@@@@@@@@@@$%%%%%%%%#@@@@@@@@@@@@@@@@@.#        ",
"        .+@@@@@@@@@@@@@@@@$%%%%%%%%%%#@@@@@@@@@@@@@@@@.#        ",
"        .+@@@@@@@@@@@@@@@$%%%%%%%%%%%%#@@@@@@@@@@@@@@@.#        ",
"        .+@@@@@@@@@@@@@@$+%%%%%%%%%%%%&#@@@@@@@@@@@@@@.#        ",
"        .+@@@@@@@@@@@@@@$%+%%%%%%%%%%&$#@@@@@@@@@@@@@@.#        ",
"        .+@@@@@@@@@@@@@@$%%+%%%%%%%%&$$#@@@@@@@@@@@@@@.#        ",
"        .+@@@@@@@@@@@@@@$%%%+%%%%%%&$$$#@@@@@@@@@@@@@@.#        ",
"        .+@@@@@@@@@@@@@@$%%%%+%%%%&$$$$#@@@@@@@@@@@@@@.#        ",
"        .+@@@@@@@@@@@@@*$%%%%%+%%&$$$$$##@@@@@@@@@@@@@.#        ",
"        .+@@@@@@@@@@@@*==$%%%%%+&$$$$$#--#@@@@@@@@@@@@.#        ",
"        .+@@@@@@@@@@@*====$%%%%%$$$$$#----#@@@@@@@@@@@.#        ",
"        .+@@@@@@@@@@*======$%%%%$$$$#------#@@@@@@@@@@.#        ",
"        .+@@@@@@@@@*========$%%%$$$#--------#@@@@@@@@@.#        ",
"        .+@@@@@@@@*==========$%%$$#----------#@@@@@@@@.#        ",
"        .+@@@@@@@*============$%$#------------#@@@@@@@.#        ",
"        .+@@@@@@*+============;$#+------------>#@@@@@@.#        ",
"        .+@@@@@@*=+==========;*#,-+---------->,#@@@@@@.#        ",
"        .+@@@@@@*==+========;**#,--+-------->,,#@@@@@@.#        ",
"        .+@@@@@@*===+======;***#,---+------>,,,#@@@@@@.#        ",
"        .+@@@@@@*====+====;****#,----+---->,,,,#@@@@@@.#        ",
"        .+@@@@@@*=====+==;*****#,-----+-->,,,,,#@@@@@@.#        ",
"        .+@@@@@@@*=====+;*****#@@,-----+>,,,,,#@@@@@@@.#        ",
"        .+@@@@@@@@*=====*****#@@@@,-----,,,,,#@@@@@@@@.#        ",
"        .+@@@@@@@@@*====****#@@@@@@,----,,,,#@@@@@@@@@.#        ",
"        .+@@@@@@@@@@*===***#@@@@@@@@,---,,,#@@@@@@@@@@.#        ",
"        .+@@@@@@@@@@@*==**#@@@@@@@@@@,--,,#@@@@@@@@@@@.#        ",
"        .+@@@@@@@@@@@@*=*#@@@@@@@@@@@@,-,#@@@@@@@@@@@@.#        ",
"        .+@@@@@@@@@@@@@*#@@@@@@@@@@@@@@,#@@@@@@@@@@@@@.#        ",
"        .+@@@@@@@@@@@@@@@@@@@@@@@@@@@@@@@@@@@@@@@@@@@@.#        ",
"        .+@@@@@@@@@@@@@@@@@@@@@@@@@@@@@@@@@@@@@@@@@@@@.#        ",
"        .+@@@@@@@@@@@@@@@@@@@@@@@@@@@@@@@@@@@@@@@@@@@@.#        ",
"        .+@@@@@@@@@@@@@@@@@@@@@@@@@@@@@@@@@@@@@@@@@@@@.#        ",
"        .+@@@@@@@@@@@@@@@@@@@@@@@@@@@@@@@@@@@@@@@@@@@@.#        ",
"        .+@@@@@@@@@@@@@@@@@@@@@@@@@@@@@@@@@@@@@@@@@@@@.#        ",
"        ...............................................#        ",
"        ################################################        "};
