/* XPM */
static char * file_broken_xpm[] = {
"64 64 9 1",
" 	c None",
".	c #BABDB6",
"+	c #EEEEEC",
"@	c #D3D7CF",
"#	c #000000",
"$	c #737373",
"%	c #555753",
"&	c #2E3436",
"*	c #888A85",
"        ................................                        ",
"        .++++++++++++++++++++++++++++++..                       ",
"        .+@@@@@@@@@@@@@@@@@@@@@@@@@@@@@.+.                      ",
"        .+@@@@@@@@@@@@@@@@@@@@@@@@@@@@@.++.                     ",
"        .+@@@@@@@@@@@@@@@@@@@@@@@@@@@@@.+@+.                    ",
"        .+@@@@@@@@@@@@@@@@@@@@@@@@@@@@@.+.@+.                   ",
"        .+@@@@@@@@@@@@@@@@@@@@@@@@@@@@@.+@.@+.                  ",
"        .+@@@@@@@@@@@@@@@@@@@@@@@@@@@@@.+.@.@+.                 ",
"        .+@@@@@@@@@@@@@@@@@@@@@@@@@@@@@.+@.@.@+.                ",
"        .+@@@@@@@@@@@@@@@@@@@@@@@@@@@@@.+@@.@.@+.               ",
"        .+@@@@@@@@@@@@@@@@@@@@@@@@@@@@@.+@.@.@.@+.              ",
"        .+@@@@@@@@@@@@@@@@@@@@@@@@@@@@@.+@@@@.@.@+.             ",
"        .+@@@@@@@@@@@@@@@@@@@@@@@@@@@@@.+@.@.@.@.@+.            ",
"        .+@@@@@@@@@@@@@@@@@@@@@@@@@@@@@.+@@@@@@.@.@+.           ",
"        .+@@@@@@@@@@@@@@@@@@@@@@@@@@@@@.+@@@.@.@.@.@+.          ",
"        .+@@@@@@@@@@@@@@@@@@@@@@@@@@@@@................         ",
"        .+@@@@@@@@@@@@@@@@@@@@@@@@@@@@@#################        ",
"        .+@@@@@@@@@@@@@@@@@@@@@@@@@@@@@@@@@@@@@@@@@@@@.#        ",
"        .+@@@@@@@@@@@@@@@@@@@@@@@@@@@@@@@@@@@@@@@@@@@@.#        ",
"        .+@@@@@@@@@@@@@@@@@@@@@@@@@@@@@@@@@@@@@@@@@@@@.#        ",
"        .+@@@@@@@@@@@@@@@@@@@@@@@@@@@@@@@@@@@@@@@@@@@@.#        ",
"        .+@@@@@@@@@@@@@@@@@@@@@@@@@@@@@@@@@@@@@@@@@@@@.#        ",
"        .+@@@@@@@@@@@@@@@@@@@@@@@@@@@@@@@@@@@@@@@@@@@@.#        ",
"        .+@@@@@@@@@@@@@@@@@@@@@@@@@@@@@@@@@@@@@@@@@@@@.#        ",
"        .+@@@@@@@@@@@@@@@@@@@@@@@@@@@@@@@@@@@@@@@@@@@@.#        ",
"        .+@@@@@@@@@@@@@@@@@@@@@@@@@@@@@@@@@@@@@@@@@@@@.#        ",
"        .+@@@@@@@@@@@@@@@@@@@@@@@@@@@@@@@@@@@@@@@@@@@@.#        ",
"        .+@@@@@@@@@@@@@@@@@@@@@@@@@@@@@@@@@@@@@.@@@@@@.#        ",
"        .+@@@@@@@@@@@@@@@@@@@@@@@@@@@@@@@@@@@@.#.@@@@@.#        ",
"        .+@@@@@@@@@@@@@@@@@@@@@@@@@@@@@@@@@@@.# #.@@@@.#        ",
"        ......@@@@@@@@@@@@@@@@@@@@@@@@@@@@@..#   #.@@@.#        ",
"        ######.@@@@@@@.@@@@@...@@@@@@@@@@@.##     #.@@.#        ",
"              #.@@@@@.#.@@@.###..@@@@@@@@.#        #...#        ",
"               #.@@@.# #.@.#   ##..@@@@@.#          ####        ",
"                #.@.#   #.#      ##..@@.#                       ",
"                 #.#     #         ##..#                        ",
"        ......    #                  ##         ........        ",
"        .+++++.                                .++++++.#        ",
"        .+@@@@+.               .          .   .+@@@@@@.#        ",
"        .+@@@@@+.     .       .+.        .+. .+@@@@@@@.#        ",
"        .+@@@@@@+.. ..+..    .+@+.      .+@+.+@@@@@@@@.#        ",
"        .+@@@@@@@++.++@++....+@@@+......+@@@+@@@@@@@@@.#        ",
"        .+@@@@@@@@@+@@@@@++++@@@@@++++++@@@@@@@@@@@@@@.#        ",
"        .+@@@@@@@@@@@@@@@@@@@@@@@@@@@@@@@@@@@@@@@@@@@@.#        ",
"        .+@@@@@@@@@@@@@@@@@@@@@@@@@@@@@@@@@@@@@@@@@@@@.#        ",
"        .+@@@@@@@@@@@@@@@@@@@@@@@@@@@@@@@@@@@@@@@@@@@@.#        ",
"        .+@@@@@@@@@@@@@@@@@@@@@@@@@@@@$$$$$$$$$$$$$$$@.#        ",
"        .+@@@@@@@@@@@@@@@@@@@@@@@@@@@@$+++++++++++++.@.#        ",
"        .+@@@@@@@@@@@@@@@@@@@@@@@@@@@@$+++%&&%++++++.@.#        ",
"        .+@@@@@@@@@@@@@@@@@@@@@@@@@@@@$++%*%&&%+++++.@.#        ",
"        .+@@@@@@@@@@@@@@@@@@@@@@@@@@@@$++*++&&&.++++.@.#        ",
"        .+@@@@@@@@@@@@@@@@@@@@@@@@@@@@$++.++.&&&+%++.@.#        ",
"        .+@@@@@@@@@@@@@@@@@@@@@@@@@@@@$++@+++%&&%&++.@.#        ",
"        .+@@@@@@@@@@@@@@@@@@@@@@@@@@@@$++++%&&&&&&++.@.#        ",
"        .+@@@@@@@@@@@@@@@@@@@@@@@@@@@@$+++++%&&&&&++.@.#        ",
"        .+@@@@@@@@@@@@@@@@@@@@@@@@@@@@$++++++%&&&&++.@.#        ",
"        .+@@@@@@@@@@@@@@@@@@@@@@@@@@@@$+++++++%&&&++.@.#        ",
"        .+@@@@@@@@@@@@@@@@@@@@@@@@@@@@$++++++++%&&++.@.#        ",
"        .+@@@@@@@@@@@@@@@@@@@@@@@@@@@@$+++++++++%&++.@.#        ",
"        .+@@@@@@@@@@@@@@@@@@@@@@@@@@@@$+++++++++++++.@.#        ",
"        .+@@@@@@@@@@@@@@@@@@@@@@@@@@@@...............@.#        ",
"        .+@@@@@@@@@@@@@@@@@@@@@@@@@@@@@@@@@@@@@@@@@@@@.#        ",
"        ...............................................#        ",
"        ################################################        "};
