/* XPM */
static char * file_video_xpm[] = {
"64 64 8 1",
" 	c None",
".	c #BABDB6",
"+	c #EEEEEC",
"@	c #D3D7CF",
"#	c #000000",
"$	c #2E3436",
"%	c #888A85",
"&	c #555753",
"        ................................                        ",
"        .++++++++++++++++++++++++++++++..                       ",
"        .+@@@@@@@@@@@@@@@@@@@@@@@@@@@@@.+.                      ",
"        .+@@@@@@@@@@@@@@@@@@@@@@@@@@@@@.++.                     ",
"        .+@@@@@@@@@@@@@@@@@@@@@@@@@@@@@.+@+.                    ",
"        .+@@@@@@@@@@@@@@@@@@@@@@@@@@@@@.+.@+.                   ",
"        .+@@@@@@@@@@@@@@@@@@@@@@@@@@@@@.+@.@+.                  ",
"        .+@@@@@@@@@@@@@@@@@@@@@@@@@@@@@.+.@.@+.                 ",
"        .+@@@@@@@@@@@@@@@@@@@@@@@@@@@@@.+@.@.@+.                ",
"        .+@@@@@@@@@@@@@@@@@@@@@@@@@@@@@.+@@.@.@+.               ",
"        .+@@@@@@@@@@@@@@@@@@@@@@@@@@@@@.+@.@.@.@+.              ",
"        .+@@@@@@@@@@@@@@@@@@@@@@@@@@@@@.+@@@@.@.@+.             ",
"        .+@@@@@@@@@@@@@@@@@@@@@@@@@@@@@.+@.@.@.@.@+.            ",
"        .+@@@@@@@@@@@@@@@@@@@@@@@@@@@@@.+@@@@@@.@.@+.           ",
"        .+@@@@@@@@@@@@@@@@@@@@@@@@@@@@@.+@@@.@.@.@.@+.          ",
"        .+@@@@@@@@@@@@@@@@@@@@@@@@@@@@@................         ",
"        .+@@@@@@@@@@@@@@@@@@@@@@@@@@@@@#################        ",
"        .+@@@@@@@@@@@@@@@@@@@@@@@@@@@@@@@@@@@@@@@@@@@@.#        ",
"        .+@@@@@@@@@@@@@@@@@@@@@@@@@@@@@@@@@@@@@@@@@@@@.#        ",
"        .+@@@@@@@@@@@@@@@@@@@@@@@@@@@@@@@@@@@@@@@@@@@@.#        ",
"        .+@@@@@@@@@@@@@@@@@@@@@@@@@@@@@@@@@@@@@@@@@@@@.#        ",
"        .+@@@@@@@@@@@@@@@@@@@@@@@@@@@@@@@@@@@@@@@@@@@@.#        ",
"        .+@@@@@@@@@@@@@@@@@@@@@@@@@@@@@@@@@@@@@@@@@@@@.#        ",
"        .+@@@@@@@@@@@@@@@@@@@@@@@@@@@@@@@@@@@@@@@@@@@@.#        ",
"        .+@@@@@@$$$$$$$$$$$$$$$$$$$$$$$$$$$$$$$$@@@@@@.#        ",
"        .+@@@@@@$%%%%%%%%%%%%%%%%%%%%%%%%%%%%%$.@@@@@@.#        ",
"        .+@@@@@@$%++++$$$$++++$$$$++++$$$$++++$.@@@@@@.#        ",
"        .+@@@@@@$%$++++$$$$++++$$$$++++$$$$+++$.@@@@@@.#        ",
"        .+@@@@@@$%$$++++$$$$++++$$$$++++$$$$++$.@@@@@@.#        ",
"        .+@@@@@@$%$$$++++$$$$++++$$$$++++$$$$+$.@@@@@@.#        ",
"        .+@@@@@@$%&&&&&&&&&&&&&&&&&&&&&&&&&&&&$.@@@@@@.#        ",
"        .+@@@@@@$%$$$++++$$$$++++$$$$++++$$$$+$.@@@@@@.#        ",
"        .+@@@@@@$%$$++++$$$$++++$$$$++++$$$$++$.@@@@@@.#        ",
"        .+@@@@@@$%$++++$$$$++++$$$$++++$$$$+++$.@@@@@@.#        ",
"        .+@@@@@@$%++++$$$$++++$$$$++++$$$$++++$.@@@@@@.#        ",
"        .+@@@@@@$%&&&&&&&&&&&&&&&&&&&&&&&&&&&&$.@@@@@@.#        ",
"        .+@@@@@@$%&&&&&&&&&&&&&&&&&&&&&&&&&&&&$.@@@@@@.#        ",
"        .+@@@@@@$%&&&&&&&&&&&&&&&&&&&&&&&&&&&&$.@@@@@@.#        ",
"        .+@@@@@@$%&&&&&&&&$$&&&&&&&&&&&&&&&&&&$.@@@@@@.#        ",
"        .+@@@@@@$%&&&&&&&&$$$$&&&&&&&&&&&&&&&&$.@@@@@@.#        ",
"        .+@@@@@@$%&&&&&&&&$$$$$$&&&&&&&&&&&&&&$.@@@@@@.#        ",
"        .+@@@@@@$%&&&&&&&&$$$$$$$$&&&&&&&&&&&&$.@@@@@@.#        ",
"        .+@@@@@@$%&&&&&&&&$$$$$$$$$$&&&&&&&&&&$.@@@@@@.#        ",
"        .+@@@@@@$%&&&&&&&&$$$$$$$$$$$$&&&&&&&&$.@@@@@@.#        ",
"        .+@@@@@@$%&&&&&&&&$$$$$$$$$$$$%&&&&&&&$.@@@@@@.#        ",
"        .+@@@@@@$%&&&&&&&&$$$$$$$$$$%%&&&&&&&&$.@@@@@@.#        ",
"        .+@@@@@@$%&&&&&&&&$$$$$$$$%%&&&&&&&&&&$.@@@@@@.#        ",
"        .+@@@@@@$%&&&&&&&&$$$$$$%%&&&&&&&&&&&&$.@@@@@@.#        ",
"        .+@@@@@@$%&&&&&&&&$$$$%%&&&&&&&&&&&&&&$.@@@@@@.#        ",
"        .+@@@@@@$%&&&&&&&&$$%%&&&&&&&&&&&&&&&&$.@@@@@@.#        ",
"        .+@@@@@@$%&&&&&&&&%%&&&&&&&&&&&&&&&&&&$.@@@@@@.#        ",
"        .+@@@@@@$%&&&&&&&&&&&&&&&&&&&&&&&&&&&&$.@@@@@@.#        ",
"        .+@@@@@@$%&&&&&&&&&&&&&&&&&&&&&&&&&&&&$.@@@@@@.#        ",
"        .+@@@@@@$%&&&&&&&&&&&&&&&&&&&&&&&&&&&&$.@@@@@@.#        ",
"        .+@@@@@@$$$$$$$$$$$$$$$$$$$$$$$$$$$$$$$.@@@@@@.#        ",
"        .+@@@@@@................................@@@@@@.#        ",
"        .+@@@@@@@@@@@@@@@@@@@@@@@@@@@@@@@@@@@@@@@@@@@@.#        ",
"        .+@@@@@@@@@@@@@@@@@@@@@@@@@@@@@@@@@@@@@@@@@@@@.#        ",
"        .+@@@@@@@@@@@@@@@@@@@@@@@@@@@@@@@@@@@@@@@@@@@@.#        ",
"        .+@@@@@@@@@@@@@@@@@@@@@@@@@@@@@@@@@@@@@@@@@@@@.#        ",
"        .+@@@@@@@@@@@@@@@@@@@@@@@@@@@@@@@@@@@@@@@@@@@@.#        ",
"        .+@@@@@@@@@@@@@@@@@@@@@@@@@@@@@@@@@@@@@@@@@@@@.#        ",
"        ...............................................#        ",
"        ################################################        "};
