/* XPM */
static char * file_core_xpm[] = {
"64 64 14 1",
" 	c None",
".	c #BABDB6",
"+	c #EEEEEC",
"@	c #D3D7CF",
"#	c #B2B5AE",
"$	c #191919",
"%	c #777974",
"&	c #F57900",
"*	c #CC0000",
"=	c #EDD400",
"-	c #000000",
";	c #2E3436",
">	c #888A85",
",	c #555753",
"        ................................                        ",
"        .++++++++++++++++++++++++++++++..                       ",
"        .+@@@@@@@@@@@@@@@@@@@@@@@@@@@@@.+.                      ",
"        .+@@@@@@@@@@@@@@@@@@@@@@@@@@@@@.++.                     ",
"        .+@@@@@@@@@@@@@@@@@@@@@@@@@@@@@.+@+.                    ",
"        .+@@@@@@@@@@@@@@@@@@@@@@@@@@@@@.+.@+.                   ",
"        .+@@@@@@@@@@@@@@@@@@@@@@@@@@@@@.+@.@+.                  ",
"        .+@@@@@@@@@@@@@@@@@@@@@@@@@@@@@.+.@.@+.                 ",
"        .+@@@@@@@@@@@@@@@@@@@@@@@@@@@@@.+@.@.@+.                ",
"        .+@@@@@@@@@@@@@@@@@@@@@@@@@@@@@.+@@.@.@+.               ",
"        .+@@@@@@@@@@@@@@@@@@@@@@@@@@@@@.+@.@.@.@+.              ",
"        .+@@@@@@@@@@@@@@@@@@@@@@@@@@@@@.+@@@@.@.@+.             ",
"        .+@@@@@@@@@#$%@@@@@@@@@@@@@@@@@.+@.@.@.@.@+.            ",
"        .+@@@@@@@@@$&$$@@@@@@@@@@@@@@@@.+@@@@@@.@.@+.           ",
"        .+@@@@@@@@$*&&*$$@@@@@@@@@@@@@@.+@@@.@.@.@.@+.          ",
"        .+@@@@@@@$*&&&&**$@@@@@@@@@@@@@................         ",
"        .+@@@@@@@$*&==&&&*$$@@@@@@@@@@@-----------------        ",
"        .+@@@@@@@$*&====&&**$@@@@@@@@@@@@@@@@@@@@@@@@@.-        ",
"        .+@@@@@@$*&&=====&*$@@@@@@@@@@@@@@@@@@@@@@@@@@.-        ",
"        .+@@@@@@$*&====&&*$@@@@@@@@@@@@@@@@@@@@@@@@@@@.-        ",
"        .+@@@@@@$*&===&&*$@@@@@@@@@@@@@@@@@@@@@@@@@@@@.-        ",
"        .+@@@@@@$*&&==&*$@@@@@@@@@@@@@@@@@@@@@@@@@@@@@.-        ",
"        .+@@@@@@@$*&&&&&*$@@@@@@@@@@@@@@@@@@@@@@@@@@@@.-        ",
"        .+@@@@@@;-$**&&&**$@@@@@@@@@@@@@@@@@@@@@@@@@@@.-        ",
"        .+@@@@@;->@$$***$$@@@@@@@@@@@@@@@@@@@@@@@@@@@@.-        ",
"        .+@@@@@;->@@@$$$@@@@@@@@@@@@@@@@@@@@@@@@@@@@@@.-        ",
"        .+@@@@;->@@@@@@@@@@@@@@@@@@@@@@@@@@@@@@@@@@@@@.-        ",
"        .+@@@@;->@@@@@@@@@@@@@@@@@@@@@@@@@@@@@@@@@@@@@.-        ",
"        .+@@@@@;->@@@@@@@@@@;;;;;;;;@@@@@@@@@@@@@@@@@@.-        ",
"        .+@@@@@;->@@@@@@@;;;>>>>>>>>;;;@@@@@@@@@@@@@@@.-        ",
"        .+@@@@@@;->@@@@;;>>>>>>>>,>,>>>;;@@@@@@@@@@@@@.-        ",
"        .+@@@@@@;->@@@;+.>>>>>>>,>,>,,,>>;@@@@@@@@@@@@.-        ",
"        .+@@@@@@@;->@;++.>>>>>>>>,>,,,,,,>;@@@@@@@@@@@.-        ",
"        .+@@@@@@@@;->+++.>>>>>>>,>,>,,,,,,>-@@@@@@@@@@.-        ",
"        .+@@@@@@@@@;->+.>>>>>>>,>,>,,,,,,;,;-@@@@@@@@@.-        ",
"        .+@@@@@@@@;+;-.>>>>>>>,>,>,,,,,,,,;,;-@@@@@@@@.-        ",
"        .+@@@@@@@@;++.>>>>>>>,>,>,>,,,,,,;,;;-@@@@@@@@.-        ",
"        .+@@@@@@@;++.>>>>>>>>>,>,>,,,,,,,,;,;;-@@@@@@@.-        ",
"        .+@@@@@@@;..>>>>>>>>>,>,>,>,,,,,,;,;;;-@@@@@@@.-        ",
"        .+@@@@@@@;>>>>>>>>>>,>,>,>,,,,,,;,;,;;-@@@@@@@.-        ",
"        .+@@@@@@;>>>>>>>>>>,>,>,>,,,,,,,,;,;;;;-@@@@@@.-        ",
"        .+@@@@@@;>>>>>>>,>,>,>,>,>,,,,,,;,;;;;;-@@@@@@.-        ",
"        .+@@@@@@;>>>>>>,>,>,>,>,>,,,,,,;,;,;;;;-@@@@@@.-        ",
"        .+@@@@@@;>>>>>,>,>,>,>,>,,,,,,,,;,;;;;;-@@@@@@.-        ",
"        .+@@@@@@;>>,>,>,>,>,>,>,,,,,,,,;,;,;;;;-@@@@@@.-        ",
"        .+@@@@@@;>,>,>,>,>,>,>,,,,,,,,;,;,;;;;;-@@@@@@.-        ",
"        .+@@@@@@;>>,>,>,>,>,,,,,,,,,,;,;,;,;;;;-@@@@@@.-        ",
"        .+@@@@@@;>,>,>,,,,,,,,,,,,,,;,;,;,;;;;;-@@@@@@.-        ",
"        .+@@@@@@@;>,,,,,,,,,,,,,,,,;,;,;,;;;;;-@@@@@@@.-        ",
"        .+@@@@@@@;>,,,,,,,,,,,,,,,;,;,;,;,;;;;-@@@@@@@.-        ",
"        .+@@@@@@@;>,,,,,,,,,,,,,,;,;,;,;,;;;;;-@@@@@@@.-        ",
"        .+@@@@@@@@;>,,,,,,,,,,;,;,;,;,;,;;;;;-@@@@@@@@.-        ",
"        .+@@@@@@@@;>,,,,,,,;,;,;,;,;,;,;;;;;;-@@@@@@@@.-        ",
"        .+@@@@@@@@@;>,;,;,;,;,;,;,;,;,;;;;;;-@@@@@@@@@.-        ",
"        .+@@@@@@@@@@;>,;,;,;,;,;,;,;;;;;;;;-@@@@@@@@@@.-        ",
"        .+@@@@@@@@@@@-;,;,;,;;;;;;;;;;;;;;-@@@@@@@@@@@.-        ",
"        .+@@@@@@@@@@@@-;;;;;;;;;;;;;;;;;;-@@@@@@@@@@@@.-        ",
"        .+@@@@@@@@@@@@@--;;;;;;;;;;;;;;--@@@@@@@@@@@@@.-        ",
"        .+@@@@@@@@@@@@@@@---;;;;;;;;---@@@@@@@@@@@@@@@.-        ",
"        .+@@@@@@@@@@@@@@@@@@--------@@@@@@@@@@@@@@@@@@.-        ",
"        .+@@@@@@@@@@@@@@@@@@@@@@@@@@@@@@@@@@@@@@@@@@@@.-        ",
"        .+@@@@@@@@@@@@@@@@@@@@@@@@@@@@@@@@@@@@@@@@@@@@.-        ",
"        ...............................................-        ",
"        ------------------------------------------------        "};
