/* XPM */
static char * file_image_xpm[] = {
"64 64 388 2",
"  	c None",
". 	c #BABDB6",
"+ 	c #EEEEEC",
"@ 	c #D3D7CF",
"# 	c #000000",
"$ 	c #888A85",
"% 	c #2E3436",
"& 	c #4FA3FF",
"* 	c #4AA2FE",
"= 	c #489EFF",
"- 	c #499FFD",
"; 	c #3F90FE",
"> 	c #3B8BFF",
", 	c #3C8BFE",
"' 	c #3586FE",
") 	c #2D80FE",
"! 	c #2A7EFE",
"~ 	c #3583FD",
"{ 	c #4288FD",
"] 	c #7AB2FB",
"^ 	c #B4CBF9",
"/ 	c #71ADFC",
"( 	c #418AFB",
"_ 	c #2172FD",
": 	c #2070FC",
"< 	c #186DFE",
"[ 	c #196CFD",
"} 	c #176CFD",
"| 	c #0F69FD",
"1 	c #2474FD",
"2 	c #2471FD",
"3 	c #61BDFB",
"4 	c #5EB9FD",
"5 	c #4FA8FD",
"6 	c #4FA4FD",
"7 	c #4CA0FD",
"8 	c #489CFD",
"9 	c #4195FE",
"0 	c #3A8CFE",
"a 	c #378CFF",
"b 	c #3089FF",
"c 	c #3187FE",
"d 	c #2C82FD",
"e 	c #3785FE",
"f 	c #4189FD",
"g 	c #448EFE",
"h 	c #8CBFF9",
"i 	c #2278FE",
"j 	c #1D74FD",
"k 	c #1B70FF",
"l 	c #1A72FE",
"m 	c #1970FF",
"n 	c #1B71FF",
"o 	c #1F73FF",
"p 	c #2078FE",
"q 	c #6FC2FB",
"r 	c #68C0FD",
"s 	c #65B9FD",
"t 	c #58B6FD",
"u 	c #5BAFFC",
"v 	c #57ADFC",
"w 	c #53A5FD",
"x 	c #499DFE",
"y 	c #4194FE",
"z 	c #4290FF",
"A 	c #3A8DFD",
"B 	c #378FFE",
"C 	c #398BFF",
"D 	c #5097FD",
"E 	c #3B8BFE",
"F 	c #2E83FE",
"G 	c #2B7FFD",
"H 	c #267BFF",
"I 	c #247BFE",
"J 	c #237AFE",
"K 	c #227AFE",
"L 	c #1A7BFF",
"M 	c #1F7AFF",
"N 	c #3987FD",
"O 	c #7FC7FC",
"P 	c #78C5FB",
"Q 	c #79C3FC",
"R 	c #6AC0FD",
"S 	c #68B6FC",
"T 	c #6CB8FB",
"U 	c #5CAEFD",
"V 	c #57A9FC",
"W 	c #4BA1FD",
"X 	c #4D9FFE",
"Y 	c #4DA2FE",
"Z 	c #4294FF",
"` 	c #429BFC",
" .	c #4391FE",
"..	c #408FFD",
"+.	c #3F8CFD",
"@.	c #3586FD",
"#.	c #E4E8F8",
"$.	c #FAFAFA",
"%.	c #DFEDF8",
"&.	c #2D8AFF",
"*.	c #2E88FE",
"=.	c #2F89FF",
"-.	c #B4D3FC",
";.	c #E1EDF9",
">.	c #F0F5F8",
",.	c #A1C9FA",
"'.	c #7CC2FC",
").	c #81C1FB",
"!.	c #6EC0FC",
"~.	c #6CBAFC",
"{.	c #63B6FC",
"].	c #65AFFE",
"^.	c #CADAF8",
"/.	c #F8F8FA",
"(.	c #73B3FC",
"_.	c #71B4FB",
":.	c #4F9CFC",
"<.	c #4A9AFC",
"[.	c #57A0FD",
"}.	c #5698FD",
"|.	c #92C0F9",
"1.	c #59A4FC",
"2.	c #B6CDFB",
"3.	c #3B94FF",
"4.	c #3D8CFE",
"5.	c #A7CEFB",
"6.	c #ACCEFA",
"7.	c #B5D1FA",
"8.	c #CFE1FA",
"9.	c #88C8FC",
"0.	c #81C6FB",
"a.	c #80C6FA",
"b.	c #7EC2FB",
"c.	c #7FC1FA",
"d.	c #78BFFB",
"e.	c #76BEFB",
"f.	c #F9F8F9",
"g.	c #F3F6F8",
"h.	c #9FC3F9",
"i.	c #BAD0F7",
"j.	c #68AEFB",
"k.	c #F7F7F8",
"l.	c #F3F8F9",
"m.	c #98C2FA",
"n.	c #F8F8F9",
"o.	c #F9F8F8",
"p.	c #F0F5F7",
"q.	c #EFF6F7",
"r.	c #B8CFF8",
"s.	c #B4D5FA",
"t.	c #B3D2FA",
"u.	c #B2D1F9",
"v.	c #ADCDFA",
"w.	c #94CAFA",
"x.	c #A0CAFA",
"y.	c #8DC8FA",
"z.	c #93C7F9",
"A.	c #8CC5FC",
"B.	c #90C5FB",
"C.	c #85C2FA",
"D.	c #83C2FB",
"E.	c #81C3FA",
"F.	c #C9D6F7",
"G.	c #B8CDF8",
"H.	c #C0D2F7",
"I.	c #86C1F6",
"J.	c #A9C8F7",
"K.	c #ABC4FA",
"L.	c #CCDAF7",
"M.	c #E8EFF8",
"N.	c #DCE8F7",
"O.	c #C2D2F7",
"P.	c #A3CCF7",
"Q.	c #BED8F9",
"R.	c #BED9FA",
"S.	c #BBD6F9",
"T.	c #B8D3FA",
"U.	c #B5D1F8",
"V.	c #B4D0F9",
"W.	c #B1CEF9",
"X.	c #AECBF9",
"Y.	c #A0CAF9",
"Z.	c #A3C7F8",
"`.	c #99C5FB",
" +	c #9CC4F9",
".+	c #9BC4F8",
"++	c #93C3F8",
"@+	c #97C3FB",
"#+	c #88C3FA",
"$+	c #82C3F7",
"%+	c #92C2F8",
"&+	c #A0C4F8",
"*+	c #A6C7F8",
"=+	c #98C6F9",
"-+	c #8BC6FA",
";+	c #BBCFFA",
">+	c #D9E4F7",
",+	c #A7CB21",
"'+	c #8AC11F",
")+	c #84B620",
"!+	c #6BA023",
"~+	c #5F8A1D",
"{+	c #5C8121",
"]+	c #658424",
"^+	c #4D6F23",
"/+	c #496724",
"(+	c #415E21",
"_+	c #91B1D1",
":+	c #B3CAF8",
"<+	c #B1C9F7",
"[+	c #AEC9F7",
"}+	c #BDCDF6",
"|+	c #C6D7F6",
"1+	c #B8CAF6",
"2+	c #BFD1F5",
"3+	c #CEDAF7",
"4+	c #CDDCF7",
"5+	c #E9EEF7",
"6+	c #EDF0F7",
"7+	c #F6F6F7",
"8+	c #79AF13",
"9+	c #A8C62D",
"0+	c #8EB725",
"a+	c #9FC619",
"b+	c #698D1D",
"c+	c #90B626",
"d+	c #5B841C",
"e+	c #558211",
"f+	c #7CB128",
"g+	c #7FA126",
"h+	c #5D8A1D",
"i+	c #5E8A2A",
"j+	c #425E1E",
"k+	c #45651E",
"l+	c #435F20",
"m+	c #2A491C",
"n+	c #264518",
"o+	c #32471F",
"p+	c #394C27",
"q+	c #EDEFF8",
"r+	c #E5EAF6",
"s+	c #E1E7F5",
"t+	c #EFF2F7",
"u+	c #CDD8F2",
"v+	c #9FCD0B",
"w+	c #99CA15",
"x+	c #9BC819",
"y+	c #B9D52B",
"z+	c #A1C520",
"A+	c #B3D21C",
"B+	c #8EC121",
"C+	c #93C520",
"D+	c #537F0D",
"E+	c #619408",
"F+	c #7DB21E",
"G+	c #A2C626",
"H+	c #6C911B",
"I+	c #5F8726",
"J+	c #7DA730",
"K+	c #608128",
"L+	c #436319",
"M+	c #58722B",
"N+	c #42601B",
"O+	c #39551C",
"P+	c #304B1C",
"Q+	c #2A431A",
"R+	c #2D491D",
"S+	c #2C4A1C",
"T+	c #6FA412",
"U+	c #81C20D",
"V+	c #73AE11",
"W+	c #7FBB1A",
"X+	c #8EC012",
"Y+	c #83C211",
"Z+	c #7ABC0F",
"`+	c #9ECB13",
" @	c #B3D020",
".@	c #5FA20B",
"+@	c #72AD12",
"@@	c #9FCB25",
"#@	c #6CA915",
"$@	c #87BF19",
"%@	c #6BA30E",
"&@	c #6AAA16",
"*@	c #6EA81F",
"=@	c #6B9922",
"-@	c #659714",
";@	c #5F8D18",
">@	c #496F1B",
",@	c #528019",
"'@	c #466D1B",
")@	c #436419",
"!@	c #5A8717",
"~@	c #6B9110",
"{@	c #33510D",
"]@	c #507908",
"^@	c #446B0A",
"/@	c #79AC11",
"(@	c #83BD24",
"_@	c #70AA1E",
":@	c #6BA20D",
"<@	c #6DA40E",
"[@	c #81C211",
"}@	c #8FC41F",
"|@	c #659F13",
"1@	c #537D0D",
"2@	c #66A60C",
"3@	c #9ACB22",
"4@	c #67A211",
"5@	c #BBD647",
"6@	c #93C11F",
"7@	c #8DC121",
"8@	c #6FA016",
"9@	c #7EC526",
"0@	c #5F8E1A",
"a@	c #578815",
"b@	c #284310",
"c@	c #274405",
"d@	c #28420C",
"e@	c #2B4809",
"f@	c #22390B",
"g@	c #3A5710",
"h@	c #466A0E",
"i@	c #3F610E",
"j@	c #34520C",
"k@	c #33530D",
"l@	c #4B7313",
"m@	c #507712",
"n@	c #4C6B17",
"o@	c #5A8414",
"p@	c #4A7511",
"q@	c #588D10",
"r@	c #5E8712",
"s@	c #527B13",
"t@	c #649516",
"u@	c #84B120",
"v@	c #7FAF20",
"w@	c #86AF1D",
"x@	c #9FC221",
"y@	c #76A51B",
"z@	c #303A1A",
"A@	c #2F3D18",
"B@	c #384D11",
"C@	c #303C1B",
"D@	c #283518",
"E@	c #33450C",
"F@	c #233A02",
"G@	c #36460C",
"H@	c #3B520F",
"I@	c #2A4108",
"J@	c #3B540F",
"K@	c #263B08",
"L@	c #3C5817",
"M@	c #415610",
"N@	c #2E4007",
"O@	c #475916",
"P@	c #354214",
"Q@	c #3C5312",
"R@	c #0E1D03",
"S@	c #263C08",
"T@	c #274318",
"U@	c #4C651E",
"V@	c #374D13",
"W@	c #405C1A",
"X@	c #2D450F",
"Y@	c #2A4911",
"Z@	c #2B4911",
"`@	c #3C540D",
" #	c #2B4512",
".#	c #395015",
"+#	c #B8C62B",
"@#	c #324A11",
"##	c #374E1C",
"$#	c #3E5D12",
"%#	c #3A5511",
"&#	c #274A0C",
"*#	c #375013",
"=#	c #3D5311",
"-#	c #39560F",
";#	c #334C08",
">#	c #3A530F",
",#	c #335313",
"'#	c #345311",
")#	c #2C440E",
"!#	c #375014",
"~#	c #375418",
"{#	c #314F1E",
"]#	c #254006",
"                . . . . . . . . . . . . . . . . . . . . . . . . . . . . . . . .                                                 ",
"                . + + + + + + + + + + + + + + + + + + + + + + + + + + + + + + . .                                               ",
"                . + @ @ @ @ @ @ @ @ @ @ @ @ @ @ @ @ @ @ @ @ @ @ @ @ @ @ @ @ @ . + .                                             ",
"                . + @ @ @ @ @ @ @ @ @ @ @ @ @ @ @ @ @ @ @ @ @ @ @ @ @ @ @ @ @ . + + .                                           ",
"                . + @ @ @ @ @ @ @ @ @ @ @ @ @ @ @ @ @ @ @ @ @ @ @ @ @ @ @ @ @ . + @ + .                                         ",
"                . + @ @ @ @ @ @ @ @ @ @ @ @ @ @ @ @ @ @ @ @ @ @ @ @ @ @ @ @ @ . + . @ + .                                       ",
"                . + @ @ @ @ @ @ @ @ @ @ @ @ @ @ @ @ @ @ @ @ @ @ @ @ @ @ @ @ @ . + @ . @ + .                                     ",
"                . + @ @ @ @ @ @ @ @ @ @ @ @ @ @ @ @ @ @ @ @ @ @ @ @ @ @ @ @ @ . + . @ . @ + .                                   ",
"                . + @ @ @ @ @ @ @ @ @ @ @ @ @ @ @ @ @ @ @ @ @ @ @ @ @ @ @ @ @ . + @ . @ . @ + .                                 ",
"                . + @ @ @ @ @ @ @ @ @ @ @ @ @ @ @ @ @ @ @ @ @ @ @ @ @ @ @ @ @ . + @ @ . @ . @ + .                               ",
"                . + @ @ @ @ @ @ @ @ @ @ @ @ @ @ @ @ @ @ @ @ @ @ @ @ @ @ @ @ @ . + @ . @ . @ . @ + .                             ",
"                . + @ @ @ @ @ @ @ @ @ @ @ @ @ @ @ @ @ @ @ @ @ @ @ @ @ @ @ @ @ . + @ @ @ @ . @ . @ + .                           ",
"                . + @ @ @ @ @ @ @ @ @ @ @ @ @ @ @ @ @ @ @ @ @ @ @ @ @ @ @ @ @ . + @ . @ . @ . @ . @ + .                         ",
"                . + @ @ @ @ @ @ @ @ @ @ @ @ @ @ @ @ @ @ @ @ @ @ @ @ @ @ @ @ @ . + @ @ @ @ @ @ . @ . @ + .                       ",
"                . + @ @ @ @ @ @ @ @ @ @ @ @ @ @ @ @ @ @ @ @ @ @ @ @ @ @ @ @ @ . + @ @ @ . @ . @ . @ . @ + .                     ",
"                . + @ @ @ @ @ @ @ @ @ @ @ @ @ @ @ @ @ @ @ @ @ @ @ @ @ @ @ @ @ . . . . . . . . . . . . . . . .                   ",
"                . + @ @ @ @ @ @ @ @ @ @ @ @ @ @ @ @ @ @ @ @ @ @ @ @ @ @ @ @ @ # # # # # # # # # # # # # # # # #                 ",
"                . + @ @ @ @ @ @ @ @ @ @ @ @ @ @ @ @ @ @ @ @ @ @ @ @ @ @ @ @ @ @ @ @ @ @ @ @ @ @ @ @ @ @ @ @ . #                 ",
"                . + @ @ @ @ @ @ @ @ @ @ @ @ @ @ @ @ @ @ @ @ @ @ @ @ @ @ @ @ @ @ @ @ @ @ @ @ @ @ @ @ @ @ @ @ . #                 ",
"                . + @ @ @ @ @ @ @ @ @ @ @ @ @ @ @ @ @ @ @ @ @ @ @ @ @ @ @ @ @ @ @ @ @ @ @ @ @ @ @ @ @ @ @ @ . #                 ",
"                . + @ @ @ @ @ @ @ @ @ @ @ @ @ @ @ @ @ @ @ @ @ @ @ @ @ @ @ @ @ @ @ @ @ @ @ @ @ @ @ @ @ @ @ @ . #                 ",
"                . + @ @ @ @ @ @ @ @ @ @ @ @ @ @ @ @ @ @ @ @ @ @ @ @ @ @ @ @ @ @ @ @ @ @ @ @ @ @ @ @ @ @ @ @ . #                 ",
"                . + @ @ @ @ @ @ @ @ @ @ @ @ @ @ @ @ @ @ @ @ @ @ @ @ @ @ @ @ @ @ @ @ @ @ @ @ @ @ @ @ @ @ @ @ . #                 ",
"                . + @ @ @ @ @ @ @ @ @ @ @ @ @ @ @ @ @ @ @ @ @ @ @ @ @ @ @ @ @ @ @ @ @ @ @ @ @ @ @ @ @ @ @ @ . #                 ",
"                . + @ @ @ @ @ @ $ $ $ $ $ $ $ $ $ $ $ $ $ $ $ $ $ $ $ $ $ $ $ $ $ $ $ $ $ $ $ $ @ @ @ @ @ @ . #                 ",
"                . + @ @ @ @ @ @ $ @ @ @ @ @ @ @ @ @ @ @ @ @ @ @ @ @ @ @ @ @ @ @ @ @ @ @ @ @ $ % @ @ @ @ @ @ . #                 ",
"                . + @ @ @ @ @ @ $ @ . . . . . . . . . . . . . . . . . . . . . . . . . . . . $ % @ @ @ @ @ @ . #                 ",
"                . + @ @ @ @ @ @ $ @ . $ $ $ $ $ $ $ $ $ $ $ $ $ $ $ $ $ $ $ $ $ $ $ $ $ $ . $ % @ @ @ @ @ @ . #                 ",
"                . + @ @ @ @ @ @ $ @ . $ & * = - ; > , ' ) ! ~ { ] ^ / ( _ : < [ } | 1 2 $ . $ % @ @ @ @ @ @ . #                 ",
"                . + @ @ @ @ @ @ $ @ . $ 3 4 5 6 7 8 9 0 a b c d e f g h i j k l m n o p $ . $ % @ @ @ @ @ @ . #                 ",
"                . + @ @ @ @ @ @ $ @ . $ q r s t u v w x y z A B C D E F G H I J K L M N $ . $ % @ @ @ @ @ @ . #                 ",
"                . + @ @ @ @ @ @ $ @ . $ O P Q R S T U V W X Y Z `  .; ..+.@.#.$.%.&.*.=.$ . $ % @ @ @ @ @ @ . #                 ",
"                . + @ @ @ @ @ @ $ @ . $ -.;.>.,.'.).!.~.{.].^.>./.(._.:.<.[.}.|.1.2.3.4.$ . $ % @ @ @ @ @ @ . #                 ",
"                . + @ @ @ @ @ @ $ @ . $ 5.6.7.8.9.0.a.b.c.d.e.f.g.h.i.j.k.l.m.n.o.p.q.r.$ . $ % @ @ @ @ @ @ . #                 ",
"                . + @ @ @ @ @ @ $ @ . $ s.t.u.v.w.x.y.z.A.B.C.D.E.F.G.H.I.J.K.L.M.N.O.P.$ . $ % @ @ @ @ @ @ . #                 ",
"                . + @ @ @ @ @ @ $ @ . $ Q.R.S.T.U.V.W.X.Y.Z.`. +.+++@+#+$+%+&+*+=+-+;+>+$ . $ % @ @ @ @ @ @ . #                 ",
"                . + @ @ @ @ @ @ $ @ . $ ,+'+)+!+~+{+]+^+/+(+_+:+<+[+}+|+1+2+3+4+5+6+7+f.$ . $ % @ @ @ @ @ @ . #                 ",
"                . + @ @ @ @ @ @ $ @ . $ 8+9+0+a+b+c+d+e+f+g+h+i+j+k+l+m+n+o+p+q+r+s+t+u+$ . $ % @ @ @ @ @ @ . #                 ",
"                . + @ @ @ @ @ @ $ @ . $ v+w+x+y+z+A+B+C+D+E+F+G+H+I+J+K+L+M+N+O+P+Q+R+S+$ . $ % @ @ @ @ @ @ . #                 ",
"                . + @ @ @ @ @ @ $ @ . $ T+U+V+W+X+Y+Z+`+ @.@+@@@#@$@%@&@*@=@-@;@>@,@'@)@$ . $ % @ @ @ @ @ @ . #                 ",
"                . + @ @ @ @ @ @ $ @ . $ !@~@{@]@^@/@(@_@:@<@[@}@|@1@2@3@4@5@6@7@8@9@0@a@$ . $ % @ @ @ @ @ @ . #                 ",
"                . + @ @ @ @ @ @ $ @ . $ b@c@d@e@f@g@h@i@j@k@l@m@n@o@p@q@r@s@t@u@v@w@x@y@$ . $ % @ @ @ @ @ @ . #                 ",
"                . + @ @ @ @ @ @ $ @ . $ z@A@B@C@D@E@F@G@H@I@J@K@L@M@N@O@P@Q@R@S@T@U@V@W@$ . $ % @ @ @ @ @ @ . #                 ",
"                . + @ @ @ @ @ @ $ @ . $ X@Y@Z@`@ #.#+#@###$#%#&#*#=#-#;#>#,#'#)#!#~#{#]#$ . $ % @ @ @ @ @ @ . #                 ",
"                . + @ @ @ @ @ @ $ @ . $ $ $ $ $ $ $ $ $ $ $ $ $ $ $ $ $ $ $ $ $ $ $ $ $ $ . $ % @ @ @ @ @ @ . #                 ",
"                . + @ @ @ @ @ @ $ @ . . . . . . . . . . . . . . . . . . . . . . . . . . . . $ % @ @ @ @ @ @ . #                 ",
"                . + @ @ @ @ @ @ $ @ . . . . . . . . . . . . . . . . . . . . . . . . . . . . $ % @ @ @ @ @ @ . #                 ",
"                . + @ @ @ @ @ @ $ @ . . . . . . . . . . . . . . . . . . . . . . . . . . . . $ % @ @ @ @ @ @ . #                 ",
"                . + @ @ @ @ @ @ $ @ . . . . . . . . . . . . . . . . . . . . . . . . . . . . $ % @ @ @ @ @ @ . #                 ",
"                . + @ @ @ @ @ @ $ @ . . . . . . . . . . . . . . . . . . . . . . . . . . . . $ % @ @ @ @ @ @ . #                 ",
"                . + @ @ @ @ @ @ $ @ . . . . . . . . . . . . . . . . . . . . . . . . . . . . $ % @ @ @ @ @ @ . #                 ",
"                . + @ @ @ @ @ @ $ @ . . . . . . . . . . . . . . . . . . . . . . . . . . . . $ % @ @ @ @ @ @ . #                 ",
"                . + @ @ @ @ @ @ $ @ . . . . . . . . . . . . . . . . . . . . . . . . . . . . $ % @ @ @ @ @ @ . #                 ",
"                . + @ @ @ @ @ @ $ @ . . . . . . . . . . . . . . . . . . . . . . . . . . . . $ % @ @ @ @ @ @ . #                 ",
"                . + @ @ @ @ @ @ $ $ $ $ $ $ $ $ $ $ $ $ $ $ $ $ $ $ $ $ $ $ $ $ $ $ $ $ $ $ $ % @ @ @ @ @ @ . #                 ",
"                . + @ @ @ @ @ @ % % % % % % % % % % % % % % % % % % % % % % % % % % % % % % % % @ @ @ @ @ @ . #                 ",
"                . + @ @ @ @ @ @ @ @ @ @ @ @ @ @ @ @ @ @ @ @ @ @ @ @ @ @ @ @ @ @ @ @ @ @ @ @ @ @ @ @ @ @ @ @ . #                 ",
"                . + @ @ @ @ @ @ @ @ @ @ @ @ @ @ @ @ @ @ @ @ @ @ @ @ @ @ @ @ @ @ @ @ @ @ @ @ @ @ @ @ @ @ @ @ . #                 ",
"                . + @ @ @ @ @ @ @ @ @ @ @ @ @ @ @ @ @ @ @ @ @ @ @ @ @ @ @ @ @ @ @ @ @ @ @ @ @ @ @ @ @ @ @ @ . #                 ",
"                . + @ @ @ @ @ @ @ @ @ @ @ @ @ @ @ @ @ @ @ @ @ @ @ @ @ @ @ @ @ @ @ @ @ @ @ @ @ @ @ @ @ @ @ @ . #                 ",
"                . + @ @ @ @ @ @ @ @ @ @ @ @ @ @ @ @ @ @ @ @ @ @ @ @ @ @ @ @ @ @ @ @ @ @ @ @ @ @ @ @ @ @ @ @ . #                 ",
"                . + @ @ @ @ @ @ @ @ @ @ @ @ @ @ @ @ @ @ @ @ @ @ @ @ @ @ @ @ @ @ @ @ @ @ @ @ @ @ @ @ @ @ @ @ . #                 ",
"                . . . . . . . . . . . . . . . . . . . . . . . . . . . . . . . . . . . . . . . . . . . . . . . #                 ",
"                # # # # # # # # # # # # # # # # # # # # # # # # # # # # # # # # # # # # # # # # # # # # # # # #                 "};
