/* XPM */
static char * file_info_xpm[] = {
"64 64 8 1",
" 	c None",
".	c #BABDB6",
"+	c #EEEEEC",
"@	c #D3D7CF",
"#	c #000000",
"$	c #204A87",
"%	c #729FCF",
"&	c #3465A4",
"        ................................                        ",
"        .++++++++++++++++++++++++++++++..                       ",
"        .+@@@@@@@@@@@@@@@@@@@@@@@@@@@@@.+.                      ",
"        .+@@@@@@@@@@@@@@@@@@@@@@@@@@@@@.++.                     ",
"        .+@@@@@@@@@@@@@@@@@@@@@@@@@@@@@.+@+.                    ",
"        .+@@@@@@@@@@@@@@@@@@@@@@@@@@@@@.+.@+.                   ",
"        .+@@@@@@@@@@@@@@@@@@@@@@@@@@@@@.+@.@+.                  ",
"        .+@@@@@@@@@@@@@@@@@@@@@@@@@@@@@.+.@.@+.                 ",
"        .+@@@@@@@@@@@@@@@@@@@@@@@@@@@@@.+@.@.@+.                ",
"        .+@@@@@@@@@@@@@@@@@@@@@@@@@@@@@.+@@.@.@+.               ",
"        .+@@@@@@@@@@@@@@@@@@@@@@@@@@@@@.+@.@.@.@+.              ",
"        .+@@@@@@@@@@@@@@@@@@@@@@@@@@@@@.+@@@@.@.@+.             ",
"        .+@@@@@@@@@@@@@@@@@@@@@@@@@@@@@.+@.@.@.@.@+.            ",
"        .+@@@@@@@@@@@@@@@@@@@@@@@@@@@@@.+@@@@@@.@.@+.           ",
"        .+@@@@@@@@@@@@@@@@@@@@@@@@@@@@@.+@@@.@.@.@.@+.          ",
"        .+@@@@@@@@@@@@@@@@@@@@@@@@@@@@@................         ",
"        .+@@@@@@@@@@@@@@@@@@@@@@@@@@@@@#################        ",
"        .+@@@@@@@@@@@@@@@@@@@@@@@@@@@@@@@@@@@@@@@@@@@@.#        ",
"        .+@@@@@@@@@@@@@@@@@@@@@@@@@@@@@@@@@@@@@@@@@@@@.#        ",
"        .+@@@@@@@@@@@@@@@@@@@@@@@@@@@@@@@@@@@@@@@@@@@@.#        ",
"        .+@@@@@@@@@@@@@@@@@@@@@@@@@@@@@@@@@@@@@@@@@@@@.#        ",
"        .+@@@@@@@@@@@@@@@@@@@@@@@@@@@@@@@@@@@@@@@@@@@@.#        ",
"        .+@@@@@@@@@@@@@@@@@@@@@@@@@@@@@@@@@@@@@@@@@@@@.#        ",
"        .+@@@@@@@@@@@@@@@@@@@@@@@@@@@@@@@@@@@@@@@@@@@@.#        ",
"        .+@@@@@@@@@@@@@@@@@@$$$$$$$$@@@@@@@@@@@@@@@@@@.#        ",
"        .+@@@@@@@@@@@@@@@$$$%%%%%%%%$$$@@@@@@@@@@@@@@@.#        ",
"        .+@@@@@@@@@@@@@$$%%%&&&&&&&&%%%$$@@@@@@@@@@@@@.#        ",
"        .+@@@@@@@@@@@@$%%&&&&&&&&&&&&&&%%$@@@@@@@@@@@@.#        ",
"        .+@@@@@@@@@@@$%&&&&&&&&&&&&&&&&&&%$@@@@@@@@@@@.#        ",
"        .+@@@@@@@@@@$%&&&&&&&&&%%&&&&&&&&&%.@@@@@@@@@@.#        ",
"        .+@@@@@@@@@$%&&&&&&&&&%...&&&&&&&&&$.@@@@@@@@@.#        ",
"        .+@@@@@@@@$%&&&&&&&&&%.@@+.&&&&&&&&&$.@@@@@@@@.#        ",
"        .+@@@@@@@@$%&&&&&&&&&%.@@+.&&&&&&&&&$.@@@@@@@@.#        ",
"        .+@@@@@@@$%&&&&&&&&&&&%.+.&&&&&&&&&&&$.@@@@@@@.#        ",
"        .+@@@@@@@$%&&&&&&&&&&&&..&&&&&&&&&&&&$.@@@@@@@.#        ",
"        .+@@@@@@@$%&&&&&&&&&&&&&&&&&&&&&&&&&&$.@@@@@@@.#        ",
"        .+@@@@@@$%&&&&&&&&&&&&&&&&&&&&&&&&&&&&$.@@@@@@.#        ",
"        .+@@@@@@$%&&&&&&&&&%%%%%%%%&&&&&&&&&&&$.@@@@@@.#        ",
"        .+@@@@@@$%&&&&&&&&&%.......&&&&&&&&&&&$.@@@@@@.#        ",
"        .+@@@@@@$%&&&&&&&&&%%%.@@+.&&&&&&&&&&&$.@@@@@@.#        ",
"        .+@@@@@@$%&&&&&&&&&&&%.@@+.&&&&&&&&&&&$.@@@@@@.#        ",
"        .+@@@@@@$%&&&&&&&&&&&%.@@+.&&&&&&&&&&&$.@@@@@@.#        ",
"        .+@@@@@@$%&&&&&&&&&&&%.@@+.&&&&&&&&&&&$.@@@@@@.#        ",
"        .+@@@@@@$%&&&&&&&&&&&%.@@+.&&&&&&&&&&&$.@@@@@@.#        ",
"        .+@@@@@@@$%&&&&&&&&&&%.@@+.&&&&&&&&&&$.@@@@@@@.#        ",
"        .+@@@@@@@$%&&&&&&&&&&%.@@+.&&&&&&&&&&$.@@@@@@@.#        ",
"        .+@@@@@@@$%&&&&&&&&&&%.@@+.&&&&&&&&&&$.@@@@@@@.#        ",
"        .+@@@@@@@@$%&&&&&&&&&%.@@+.&&&&&&&&&$.@@@@@@@@.#        ",
"        .+@@@@@@@@$%&&&&&&&%%%.@@+...&&&&&&&$.@@@@@@@@.#        ",
"        .+@@@@@@@@@$%&&&&&&%++++++++.&&&&&&$.@@@@@@@@@.#        ",
"        .+@@@@@@@@@@$%&&&&&..........&&&&&$.@@@@@@@@@@.#        ",
"        .+@@@@@@@@@@@.$&&&&&&&&&&&&&&&&&&$.@@@@@@@@@@@.#        ",
"        .+@@@@@@@@@@@@.$$&&&&&&&&&&&&&&$$.@@@@@@@@@@@@.#        ",
"        .+@@@@@@@@@@@@@..$$$&&&&&&&&$$$..@@@@@@@@@@@@@.#        ",
"        .+@@@@@@@@@@@@@@@...$$$$$$$$...@@@@@@@@@@@@@@@.#        ",
"        .+@@@@@@@@@@@@@@@@@@........@@@@@@@@@@@@@@@@@@.#        ",
"        .+@@@@@@@@@@@@@@@@@@@@@@@@@@@@@@@@@@@@@@@@@@@@.#        ",
"        .+@@@@@@@@@@@@@@@@@@@@@@@@@@@@@@@@@@@@@@@@@@@@.#        ",
"        .+@@@@@@@@@@@@@@@@@@@@@@@@@@@@@@@@@@@@@@@@@@@@.#        ",
"        .+@@@@@@@@@@@@@@@@@@@@@@@@@@@@@@@@@@@@@@@@@@@@.#        ",
"        .+@@@@@@@@@@@@@@@@@@@@@@@@@@@@@@@@@@@@@@@@@@@@.#        ",
"        .+@@@@@@@@@@@@@@@@@@@@@@@@@@@@@@@@@@@@@@@@@@@@.#        ",
"        ...............................................#        ",
"        ################################################        "};
