/* XPM */
static char * folder_apps_xpm[] = {
"64 64 13 1",
" 	c None",
".	c #C4A000",
"+	c #FCE94F",
"@	c #000000",
"#	c #EDD400",
"$	c #BABDB6",
"%	c #EEEEEC",
"&	c #204A87",
"*	c #729FCF",
"=	c #EF2929",
"-	c #3465A4",
";	c #CC0000",
">	c #A40000",
"                                                                ",
"                                                                ",
"                                                                ",
"                                                                ",
"                                                                ",
"                                                                ",
"        ........................                                ",
"       .+++++++++++++++++++++++.@                               ",
"      .+########################.@                              ",
"     .+##########################.@                             ",
"    .+############################.@                            ",
"   .+##############################.@                           ",
"  .+################################.@                          ",
" .+##################################.@                         ",
".+.$$$$$$$$$$$$$$$$$$$$$$$$$$$$$$$$$$.........................  ",
".++.%%%%%%%%%%%%%%%%%%%%%%%%%%%%%%%%.++++++++++++++++++++++++.@ ",
".+#+.%%%%%%%%%%%%%%%%%%%%%%%%%%%%%%.+#########################.@",
".+##+..............................+##########################.@",
".+###++++++++++++++++++++++++++++++###########################.@",
".+############################################################.@",
".+############################################################.@",
".+############################################################.@",
".+############################################################.@",
".+##########################################.@################.@",
".+#########################################.++@###############.@",
".+########################################.++++@##############.@",
".+#######################################.++++++@#############.@",
".+######################################.++++++++@############.@",
".+#####################################.++++++++++@###########.@",
".+####################################.++++++++++++@##########.@",
".+###################################.%++++++++++++#@#########.@",
".+###################################.+%++++++++++#.@#########.@",
".+###################################.++%++++++++#..@#########.@",
".+###################################.+++%++++++#...@#########.@",
".+###################################.++++%++++#....@#########.@",
".+##################################&.+++++%++#.....@@########.@",
".+#################################&**.+++++%#.....@==@#######.@",
".+################################&****.+++++.....@====@######.@",
".+###############################&******.++++....@======@#####.@",
".+##############################&********.+++...@========@####.@",
".+#############################&**********.++..@==========@###.@",
".+############################&************.+.@============@##.@",
".+###########################&%************-.@%============;@#.@",
".+###########################&*%**********-&@>=%==========;>@#.@",
".+###########################&**%********-&&@>==%========;>>@#.@",
".+###########################&***%******-&&&@>===%======;>>>@#.@",
".+###########################&****%****-&&&&@>====%====;>>>>@#.@",
".+###########################&*****%**-&&&&&@>=====%==;>>>>>@#.@",
".+############################&*****%-&&&&&@##>=====%;>>>>>@##.@",
".+#############################&*****&&&&&@####>=====>>>>>@###.@",
".+##############################&****&&&&@######>====>>>>@####.@",
".+###############################&***&&&@########>===>>>@#####.@",
".+################################&**&&@##########>==>>@######.@",
".+#################################&*&@############>=>@#######.@",
".+##################################&@##############>@########.@",
".+############################################################.@",
"...............................................................@",
"@@@@@@@@@@@@@@@@@@@@@@@@@@@@@@@@@@@@@@@@@@@@@@@@@@@@@@@@@@@@@@@@",
"                                                                ",
"                                                                ",
"                                                                ",
"                                                                ",
"                                                                ",
"                                                                "};
