/* XPM */
static char * folder_proj_xpm[] = {
"64 64 9 1",
" 	c None",
".	c #C4A000",
"+	c #FCE94F",
"@	c #000000",
"#	c #EDD400",
"$	c #BABDB6",
"%	c #EEEEEC",
"&	c #555753",
"*	c #888A85",
"                                                                ",
"                                                                ",
"                                                                ",
"                                                                ",
"                                                                ",
"                                                                ",
"        ........................                                ",
"       .+++++++++++++++++++++++.@                               ",
"      .+########################.@                              ",
"     .+##########################.@                             ",
"    .+############################.@                            ",
"   .+##############################.@                           ",
"  .+################################.@                          ",
" .+##################################.@                         ",
".+.$$$$$$$$$$$$$$$$$$$$$$$$$$$$$$$$$$.........................  ",
".++.%%%%%%%%%%%%%%%%%%%%%%%%%%%%%%%%.++++++++++++++++++++++++.@ ",
".+#+.%%%%%%%%%%%%%%%%%%%%%%%%%%%%%%.+#########################.@",
".+##+..............................+##########################.@",
".+###++++++++++++++++++++++++++++++###########################.@",
".+############################################################.@",
".+############################################################.@",
".+############################################################.@",
".+############################################################.@",
".+########################################&&&&&&##############.@",
".+#######################################@$$$$$&@#############.@",
".+#######################################@$****&@#############.@",
".+#######################################@$****&@#############.@",
".+#######################################@$****&@#############.@",
".+##############################&&######&$******&&######&&####.@",
".+#############################&$$&&##&&$********$&&##&&$$@###.@",
".+############################&$**$$&&$$**********$$&&$$**&@##.@",
".+############################&$****$$**************$$****&@##.@",
".+###########################&$****************************&@#.@",
".+###########################&&****************************&@#.@",
".+############################@&&************************&&@##.@",
".+#############################@@&&********@@@@********&&@@###.@",
".+###############################@@$******@####&******&@@#####.@",
".+#################################&$****@######&****&@#######.@",
".+#################################&$****@######&****&@#######.@",
".+#################################&$****@######&****&@#######.@",
".+#################################&$****@######&****&@#######.@",
".+###############################&&$******@####&******&&&#####.@",
".+#############################&&$$********&&&&********$$&&###.@",
".+############################&$$************************$$&##.@",
".+###########################&$****************************$@#.@",
".+###########################&$****************************&@#.@",
".+############################&$****&&**************&&****&@##.@",
".+############################&$**&&@@&&**********&&@@&&**&@##.@",
".+#############################&&&@@##@@&********&@@##@@&&@###.@",
".+##############################@@######@$******&@######@@####.@",
".+#######################################&$****&@#############.@",
".+#######################################&$****&@#############.@",
".+#######################################&$****&@#############.@",
".+#######################################&&&&&&&@#############.@",
".+########################################@@@@@@##############.@",
".+############################################################.@",
"...............................................................@",
"@@@@@@@@@@@@@@@@@@@@@@@@@@@@@@@@@@@@@@@@@@@@@@@@@@@@@@@@@@@@@@@@",
"                                                                ",
"                                                                ",
"                                                                ",
"                                                                ",
"                                                                ",
"                                                                "};
