/* XPM */
static char * folder_image_xpm[] = {
"64 64 390 2",
"  	c None",
". 	c #C4A000",
"+ 	c #FCE94F",
"@ 	c #000000",
"# 	c #EDD400",
"$ 	c #BABDB6",
"% 	c #EEEEEC",
"& 	c #888A85",
"* 	c #D3D7CF",
"= 	c #4FA3FF",
"- 	c #4AA2FE",
"; 	c #489EFF",
"> 	c #499FFD",
", 	c #3F90FE",
"' 	c #3B8BFF",
") 	c #3C8BFE",
"! 	c #3586FE",
"~ 	c #2D80FE",
"{ 	c #2A7EFE",
"] 	c #3583FD",
"^ 	c #4288FD",
"/ 	c #7AB2FB",
"( 	c #B4CBF9",
"_ 	c #71ADFC",
": 	c #418AFB",
"< 	c #2172FD",
"[ 	c #2070FC",
"} 	c #186DFE",
"| 	c #196CFD",
"1 	c #176CFD",
"2 	c #0F69FD",
"3 	c #2474FD",
"4 	c #2471FD",
"5 	c #61BDFB",
"6 	c #5EB9FD",
"7 	c #4FA8FD",
"8 	c #4FA4FD",
"9 	c #4CA0FD",
"0 	c #489CFD",
"a 	c #4195FE",
"b 	c #3A8CFE",
"c 	c #378CFF",
"d 	c #3089FF",
"e 	c #3187FE",
"f 	c #2C82FD",
"g 	c #3785FE",
"h 	c #4189FD",
"i 	c #448EFE",
"j 	c #8CBFF9",
"k 	c #2278FE",
"l 	c #1D74FD",
"m 	c #1B70FF",
"n 	c #1A72FE",
"o 	c #1970FF",
"p 	c #1B71FF",
"q 	c #1F73FF",
"r 	c #2078FE",
"s 	c #6FC2FB",
"t 	c #68C0FD",
"u 	c #65B9FD",
"v 	c #58B6FD",
"w 	c #5BAFFC",
"x 	c #57ADFC",
"y 	c #53A5FD",
"z 	c #499DFE",
"A 	c #4194FE",
"B 	c #4290FF",
"C 	c #3A8DFD",
"D 	c #378FFE",
"E 	c #398BFF",
"F 	c #5097FD",
"G 	c #3B8BFE",
"H 	c #2E83FE",
"I 	c #2B7FFD",
"J 	c #267BFF",
"K 	c #247BFE",
"L 	c #237AFE",
"M 	c #227AFE",
"N 	c #1A7BFF",
"O 	c #1F7AFF",
"P 	c #3987FD",
"Q 	c #7FC7FC",
"R 	c #78C5FB",
"S 	c #79C3FC",
"T 	c #6AC0FD",
"U 	c #68B6FC",
"V 	c #6CB8FB",
"W 	c #5CAEFD",
"X 	c #57A9FC",
"Y 	c #4BA1FD",
"Z 	c #4D9FFE",
"` 	c #4DA2FE",
" .	c #4294FF",
"..	c #429BFC",
"+.	c #4391FE",
"@.	c #408FFD",
"#.	c #3F8CFD",
"$.	c #3586FD",
"%.	c #E4E8F8",
"&.	c #FAFAFA",
"*.	c #DFEDF8",
"=.	c #2D8AFF",
"-.	c #2E88FE",
";.	c #2F89FF",
">.	c #B4D3FC",
",.	c #E1EDF9",
"'.	c #F0F5F8",
").	c #A1C9FA",
"!.	c #7CC2FC",
"~.	c #81C1FB",
"{.	c #6EC0FC",
"].	c #6CBAFC",
"^.	c #63B6FC",
"/.	c #65AFFE",
"(.	c #CADAF8",
"_.	c #F8F8FA",
":.	c #73B3FC",
"<.	c #71B4FB",
"[.	c #4F9CFC",
"}.	c #4A9AFC",
"|.	c #57A0FD",
"1.	c #5698FD",
"2.	c #92C0F9",
"3.	c #59A4FC",
"4.	c #B6CDFB",
"5.	c #3B94FF",
"6.	c #3D8CFE",
"7.	c #A7CEFB",
"8.	c #ACCEFA",
"9.	c #B5D1FA",
"0.	c #CFE1FA",
"a.	c #88C8FC",
"b.	c #81C6FB",
"c.	c #80C6FA",
"d.	c #7EC2FB",
"e.	c #7FC1FA",
"f.	c #78BFFB",
"g.	c #76BEFB",
"h.	c #F9F8F9",
"i.	c #F3F6F8",
"j.	c #9FC3F9",
"k.	c #BAD0F7",
"l.	c #68AEFB",
"m.	c #F7F7F8",
"n.	c #F3F8F9",
"o.	c #98C2FA",
"p.	c #F8F8F9",
"q.	c #F9F8F8",
"r.	c #F0F5F7",
"s.	c #EFF6F7",
"t.	c #B8CFF8",
"u.	c #B4D5FA",
"v.	c #B3D2FA",
"w.	c #B2D1F9",
"x.	c #ADCDFA",
"y.	c #94CAFA",
"z.	c #A0CAFA",
"A.	c #8DC8FA",
"B.	c #93C7F9",
"C.	c #8CC5FC",
"D.	c #90C5FB",
"E.	c #85C2FA",
"F.	c #83C2FB",
"G.	c #81C3FA",
"H.	c #C9D6F7",
"I.	c #B8CDF8",
"J.	c #C0D2F7",
"K.	c #86C1F6",
"L.	c #A9C8F7",
"M.	c #ABC4FA",
"N.	c #CCDAF7",
"O.	c #E8EFF8",
"P.	c #DCE8F7",
"Q.	c #C2D2F7",
"R.	c #A3CCF7",
"S.	c #BED8F9",
"T.	c #BED9FA",
"U.	c #BBD6F9",
"V.	c #B8D3FA",
"W.	c #B5D1F8",
"X.	c #B4D0F9",
"Y.	c #B1CEF9",
"Z.	c #AECBF9",
"`.	c #A0CAF9",
" +	c #A3C7F8",
".+	c #99C5FB",
"++	c #9CC4F9",
"@+	c #9BC4F8",
"#+	c #93C3F8",
"$+	c #97C3FB",
"%+	c #88C3FA",
"&+	c #82C3F7",
"*+	c #92C2F8",
"=+	c #A0C4F8",
"-+	c #A6C7F8",
";+	c #98C6F9",
">+	c #8BC6FA",
",+	c #BBCFFA",
"'+	c #D9E4F7",
")+	c #A7CB21",
"!+	c #8AC11F",
"~+	c #84B620",
"{+	c #6BA023",
"]+	c #5F8A1D",
"^+	c #5C8121",
"/+	c #658424",
"(+	c #4D6F23",
"_+	c #496724",
":+	c #415E21",
"<+	c #91B1D1",
"[+	c #B3CAF8",
"}+	c #B1C9F7",
"|+	c #AEC9F7",
"1+	c #BDCDF6",
"2+	c #C6D7F6",
"3+	c #B8CAF6",
"4+	c #BFD1F5",
"5+	c #CEDAF7",
"6+	c #CDDCF7",
"7+	c #E9EEF7",
"8+	c #EDF0F7",
"9+	c #F6F6F7",
"0+	c #79AF13",
"a+	c #A8C62D",
"b+	c #8EB725",
"c+	c #9FC619",
"d+	c #698D1D",
"e+	c #90B626",
"f+	c #5B841C",
"g+	c #558211",
"h+	c #7CB128",
"i+	c #7FA126",
"j+	c #5D8A1D",
"k+	c #5E8A2A",
"l+	c #425E1E",
"m+	c #45651E",
"n+	c #435F20",
"o+	c #2A491C",
"p+	c #264518",
"q+	c #32471F",
"r+	c #394C27",
"s+	c #EDEFF8",
"t+	c #E5EAF6",
"u+	c #E1E7F5",
"v+	c #EFF2F7",
"w+	c #CDD8F2",
"x+	c #9FCD0B",
"y+	c #99CA15",
"z+	c #9BC819",
"A+	c #B9D52B",
"B+	c #A1C520",
"C+	c #B3D21C",
"D+	c #8EC121",
"E+	c #93C520",
"F+	c #537F0D",
"G+	c #619408",
"H+	c #7DB21E",
"I+	c #A2C626",
"J+	c #6C911B",
"K+	c #5F8726",
"L+	c #7DA730",
"M+	c #608128",
"N+	c #436319",
"O+	c #58722B",
"P+	c #42601B",
"Q+	c #39551C",
"R+	c #304B1C",
"S+	c #2A431A",
"T+	c #2D491D",
"U+	c #2C4A1C",
"V+	c #6FA412",
"W+	c #81C20D",
"X+	c #73AE11",
"Y+	c #7FBB1A",
"Z+	c #8EC012",
"`+	c #83C211",
" @	c #7ABC0F",
".@	c #9ECB13",
"+@	c #B3D020",
"@@	c #5FA20B",
"#@	c #72AD12",
"$@	c #9FCB25",
"%@	c #6CA915",
"&@	c #87BF19",
"*@	c #6BA30E",
"=@	c #6AAA16",
"-@	c #6EA81F",
";@	c #6B9922",
">@	c #659714",
",@	c #5F8D18",
"'@	c #496F1B",
")@	c #528019",
"!@	c #466D1B",
"~@	c #436419",
"{@	c #5A8717",
"]@	c #6B9110",
"^@	c #33510D",
"/@	c #507908",
"(@	c #446B0A",
"_@	c #79AC11",
":@	c #83BD24",
"<@	c #70AA1E",
"[@	c #6BA20D",
"}@	c #6DA40E",
"|@	c #81C211",
"1@	c #8FC41F",
"2@	c #659F13",
"3@	c #537D0D",
"4@	c #66A60C",
"5@	c #9ACB22",
"6@	c #67A211",
"7@	c #BBD647",
"8@	c #93C11F",
"9@	c #8DC121",
"0@	c #6FA016",
"a@	c #7EC526",
"b@	c #5F8E1A",
"c@	c #578815",
"d@	c #284310",
"e@	c #274405",
"f@	c #28420C",
"g@	c #2B4809",
"h@	c #22390B",
"i@	c #3A5710",
"j@	c #466A0E",
"k@	c #3F610E",
"l@	c #34520C",
"m@	c #33530D",
"n@	c #4B7313",
"o@	c #507712",
"p@	c #4C6B17",
"q@	c #5A8414",
"r@	c #4A7511",
"s@	c #588D10",
"t@	c #5E8712",
"u@	c #527B13",
"v@	c #649516",
"w@	c #84B120",
"x@	c #7FAF20",
"y@	c #86AF1D",
"z@	c #9FC221",
"A@	c #76A51B",
"B@	c #303A1A",
"C@	c #2F3D18",
"D@	c #384D11",
"E@	c #303C1B",
"F@	c #283518",
"G@	c #33450C",
"H@	c #233A02",
"I@	c #36460C",
"J@	c #3B520F",
"K@	c #2A4108",
"L@	c #3B540F",
"M@	c #263B08",
"N@	c #3C5817",
"O@	c #415610",
"P@	c #2E4007",
"Q@	c #475916",
"R@	c #354214",
"S@	c #3C5312",
"T@	c #0E1D03",
"U@	c #263C08",
"V@	c #274318",
"W@	c #4C651E",
"X@	c #374D13",
"Y@	c #405C1A",
"Z@	c #2D450F",
"`@	c #2A4911",
" #	c #2B4911",
".#	c #3C540D",
"+#	c #2B4512",
"@#	c #395015",
"##	c #B8C62B",
"$#	c #324A11",
"%#	c #374E1C",
"&#	c #3E5D12",
"*#	c #3A5511",
"=#	c #274A0C",
"-#	c #375013",
";#	c #3D5311",
">#	c #39560F",
",#	c #334C08",
"'#	c #3A530F",
")#	c #335313",
"!#	c #345311",
"~#	c #2C440E",
"{#	c #375014",
"]#	c #375418",
"^#	c #314F1E",
"/#	c #254006",
"                                                                                                                                ",
"                                                                                                                                ",
"                                                                                                                                ",
"                                                                                                                                ",
"                                                                                                                                ",
"                                                                                                                                ",
"                . . . . . . . . . . . . . . . . . . . . . . . .                                                                 ",
"              . + + + + + + + + + + + + + + + + + + + + + + + . @                                                               ",
"            . + # # # # # # # # # # # # # # # # # # # # # # # # . @                                                             ",
"          . + # # # # # # # # # # # # # # # # # # # # # # # # # # . @                                                           ",
"        . + # # # # # # # # # # # # # # # # # # # # # # # # # # # # . @                                                         ",
"      . + # # # # # # # # # # # # # # # # # # # # # # # # # # # # # # . @                                                       ",
"    . + # # # # # # # # # # # # # # # # # # # # # # # # # # # # # # # # . @                                                     ",
"  . + # # # # # # # # # # # # # # # # # # # # # # # # # # # # # # # # # # . @                                                   ",
". + . $ $ $ $ $ $ $ $ $ $ $ $ $ $ $ $ $ $ $ $ $ $ $ $ $ $ $ $ $ $ $ $ $ $ . . . . . . . . . . . . . . . . . . . . . . . . .     ",
". + + . % % % % % % % % % % % % % % % % % % % % % % % % % % % % % % % % . + + + + + + + + + + + + + + + + + + + + + + + + . @   ",
". + # + . % % % % % % % % % % % % % % % % % % % % % % % % % % % % % % . + # # # # # # # # # # # # # # # # # # # # # # # # # . @ ",
". + # # + . . . . . . . . . . . . . . . . . . . . . . . . . . . . . . + # # # # # # # # # # # # # # # # # # # # # # # # # # . @ ",
". + # # # + + + + + + + + + + + + + + + + + + + + + + + + + + + + + + # # # # # # # # # # # # # # # # # # # # # # # # # # # . @ ",
". + # # # # # # # # # # # # # # # # # # # # # # # # # # # # # # # # # # # # # # # # # # # # # # # # # # # # # # # # # # # # . @ ",
". + # # # # # # # # # # # # # # # # # # # # # # # # # # # # # # # # # # # # # # # # # # # # # # # # # # # # # # # # # # # # . @ ",
". + # # # # # # # # # # # # # # # # # # # # # # # # # # # # # # # # # # # # # # # # # # # # # # # # # # # # # # # # # # # # . @ ",
". + # # # # # # # # # # # # # # # # # # # # # # # # # # # # # # # # # # # # # # # # # # # # # # # # # # # # # # # # # # # # . @ ",
". + # # # # # # # # # # # # # # # # # # # # # # # # # # # & & & & & & & & & & & & & & & & & & & & & & & & & & & & & & & & # . @ ",
". + # # # # # # # # # # # # # # # # # # # # # # # # # # # & * * * * * * * * * * * * * * * * * * * * * * * * * * * * * & . # . @ ",
". + # # # # # # # # # # # # # # # # # # # # # # # # # # # & * $ $ $ $ $ $ $ $ $ $ $ $ $ $ $ $ $ $ $ $ $ $ $ $ $ $ $ $ & . # . @ ",
". + # # # # # # # # # # # # # # # # # # # # # # # # # # # & * $ & & & & & & & & & & & & & & & & & & & & & & & & & & $ & . # . @ ",
". + # # # # # # # # # # # # # # # # # # # # # # # # # # # & * $ & = - ; > , ' ) ! ~ { ] ^ / ( _ : < [ } | 1 2 3 4 & $ & . # . @ ",
". + # # # # # # # # # # # # # # # # # # # # # # # # # # # & * $ & 5 6 7 8 9 0 a b c d e f g h i j k l m n o p q r & $ & . # . @ ",
". + # # # # # # # # # # # # # # # # # # # # # # # # # # # & * $ & s t u v w x y z A B C D E F G H I J K L M N O P & $ & . # . @ ",
". + # # # # # # # # # # # # # # # # # # # # # # # # # # # & * $ & Q R S T U V W X Y Z `  ...+., @.#.$.%.&.*.=.-.;.& $ & . # . @ ",
". + # # # # # # # # # # # # # # # # # # # # # # # # # # # & * $ & >.,.'.).!.~.{.].^./.(.'._.:.<.[.}.|.1.2.3.4.5.6.& $ & . # . @ ",
". + # # # # # # # # # # # # # # # # # # # # # # # # # # # & * $ & 7.8.9.0.a.b.c.d.e.f.g.h.i.j.k.l.m.n.o.p.q.r.s.t.& $ & . # . @ ",
". + # # # # # # # # # # # # # # # # # # # # # # # # # # # & * $ & u.v.w.x.y.z.A.B.C.D.E.F.G.H.I.J.K.L.M.N.O.P.Q.R.& $ & . # . @ ",
". + # # # # # # # # # # # # # # # # # # # # # # # # # # # & * $ & S.T.U.V.W.X.Y.Z.`. +.+++@+#+$+%+&+*+=+-+;+>+,+'+& $ & . # . @ ",
". + # # # # # # # # # # # # # # # # # # # # # # # # # # # & * $ & )+!+~+{+]+^+/+(+_+:+<+[+}+|+1+2+3+4+5+6+7+8+9+h.& $ & . # . @ ",
". + # # # # # # # # # # # # # # # # # # # # # # # # # # # & * $ & 0+a+b+c+d+e+f+g+h+i+j+k+l+m+n+o+p+q+r+s+t+u+v+w+& $ & . # . @ ",
". + # # # # # # # # # # # # # # # # # # # # # # # # # # # & * $ & x+y+z+A+B+C+D+E+F+G+H+I+J+K+L+M+N+O+P+Q+R+S+T+U+& $ & . # . @ ",
". + # # # # # # # # # # # # # # # # # # # # # # # # # # # & * $ & V+W+X+Y+Z+`+ @.@+@@@#@$@%@&@*@=@-@;@>@,@'@)@!@~@& $ & . # . @ ",
". + # # # # # # # # # # # # # # # # # # # # # # # # # # # & * $ & {@]@^@/@(@_@:@<@[@}@|@1@2@3@4@5@6@7@8@9@0@a@b@c@& $ & . # . @ ",
". + # # # # # # # # # # # # # # # # # # # # # # # # # # # & * $ & d@e@f@g@h@i@j@k@l@m@n@o@p@q@r@s@t@u@v@w@x@y@z@A@& $ & . # . @ ",
". + # # # # # # # # # # # # # # # # # # # # # # # # # # # & * $ & B@C@D@E@F@G@H@I@J@K@L@M@N@O@P@Q@R@S@T@U@V@W@X@Y@& $ & . # . @ ",
". + # # # # # # # # # # # # # # # # # # # # # # # # # # # & * $ & Z@`@ #.#+#@###$#%#&#*#=#-#;#>#,#'#)#!#~#{#]#^#/#& $ & . # . @ ",
". + # # # # # # # # # # # # # # # # # # # # # # # # # # # & * $ & & & & & & & & & & & & & & & & & & & & & & & & & & $ & . # . @ ",
". + # # # # # # # # # # # # # # # # # # # # # # # # # # # & * $ $ $ $ $ $ $ $ $ $ $ $ $ $ $ $ $ $ $ $ $ $ $ $ $ $ $ $ & . # . @ ",
". + # # # # # # # # # # # # # # # # # # # # # # # # # # # & * $ $ $ $ $ $ $ $ $ $ $ $ $ $ $ $ $ $ $ $ $ $ $ $ $ $ $ $ & . # . @ ",
". + # # # # # # # # # # # # # # # # # # # # # # # # # # # & * $ $ $ $ $ $ $ $ $ $ $ $ $ $ $ $ $ $ $ $ $ $ $ $ $ $ $ $ & . # . @ ",
". + # # # # # # # # # # # # # # # # # # # # # # # # # # # & * $ $ $ $ $ $ $ $ $ $ $ $ $ $ $ $ $ $ $ $ $ $ $ $ $ $ $ $ & . # . @ ",
". + # # # # # # # # # # # # # # # # # # # # # # # # # # # & * $ $ $ $ $ $ $ $ $ $ $ $ $ $ $ $ $ $ $ $ $ $ $ $ $ $ $ $ & . # . @ ",
". + # # # # # # # # # # # # # # # # # # # # # # # # # # # & * $ $ $ $ $ $ $ $ $ $ $ $ $ $ $ $ $ $ $ $ $ $ $ $ $ $ $ $ & . # . @ ",
". + # # # # # # # # # # # # # # # # # # # # # # # # # # # & * $ $ $ $ $ $ $ $ $ $ $ $ $ $ $ $ $ $ $ $ $ $ $ $ $ $ $ $ & . # . @ ",
". + # # # # # # # # # # # # # # # # # # # # # # # # # # # & * $ $ $ $ $ $ $ $ $ $ $ $ $ $ $ $ $ $ $ $ $ $ $ $ $ $ $ $ & . # . @ ",
". + # # # # # # # # # # # # # # # # # # # # # # # # # # # & * $ $ $ $ $ $ $ $ $ $ $ $ $ $ $ $ $ $ $ $ $ $ $ $ $ $ $ $ & . # . @ ",
". + # # # # # # # # # # # # # # # # # # # # # # # # # # # & & & & & & & & & & & & & & & & & & & & & & & & & & & & & & & . # . @ ",
". + # # # # # # # # # # # # # # # # # # # # # # # # # # # . . . . . . . . . . . . . . . . . . . . . . . . . . . . . . . . # . @ ",
". + # # # # # # # # # # # # # # # # # # # # # # # # # # # # # # # # # # # # # # # # # # # # # # # # # # # # # # # # # # # # . @ ",
". . . . . . . . . . . . . . . . . . . . . . . . . . . . . . . . . . . . . . . . . . . . . . . . . . . . . . . . . . . . . . . @ ",
"@ @ @ @ @ @ @ @ @ @ @ @ @ @ @ @ @ @ @ @ @ @ @ @ @ @ @ @ @ @ @ @ @ @ @ @ @ @ @ @ @ @ @ @ @ @ @ @ @ @ @ @ @ @ @ @ @ @ @ @ @ @ @ @ ",
"                                                                                                                                ",
"                                                                                                                                ",
"                                                                                                                                ",
"                                                                                                                                ",
"                                                                                                                                ",
"                                                                                                                                "};
