/* XPM */
static char * folder_music_xpm[] = {
"64 64 11 1",
" 	c None",
".	c #C4A000",
"+	c #FCE94F",
"@	c #000000",
"#	c #EDD400",
"$	c #BABDB6",
"%	c #EEEEEC",
"&	c #5C3566",
"*	c #AD7FA8",
"=	c #75507B",
"-	c #D3D7CF",
"                                                                ",
"                                                                ",
"                                                                ",
"                                                                ",
"                                                                ",
"                                                                ",
"        ........................                                ",
"       .+++++++++++++++++++++++.@                               ",
"      .+########################.@                              ",
"     .+##########################.@                             ",
"    .+############################.@                            ",
"   .+##############################.@                           ",
"  .+################################.@                          ",
" .+##################################.@                         ",
".+.$$$$$$$$$$$$$$$$$$$$$$$$$$$$$$$$$$.........................  ",
".++.%%%%%%%%%%%%%%%%%%%%%%%%%%%%%%%%.++++++++++++++++++++++++.@ ",
".+#+.%%%%%%%%%%%%%%%%%%%%%%%%%%%%%%.+#########################.@",
".+##+..............................+##########################.@",
".+###++++++++++++++++++++++++++++++###########################.@",
".+############################################################.@",
".+############################################################.@",
".+############################################################.@",
".+############################################################.@",
".+#####################################################&&&&&&#.@",
".+###############################################&&&&&&****&.#.@",
".+#########################################&&&&&&******====&.#.@",
".+###################################&&&&&&******==========&.#.@",
".+###################################&*****================&.#.@",
".+###################################&*%%-=================&.#.@",
".+###################################&*-=============&&&&&=&.#.@",
".+###################################&*==========&&&&....&*&.#.@",
".+###################################&*======&&&&....####&*&.#.@",
".+###################################&*=&&&&&....########&*&.#.@",
".+###################################&*&.....############&*&.#.@",
".+###################################&*&.################&*&.#.@",
".+###################################&*&.################&*&.#.@",
".+###################################&*&.################&*&.#.@",
".+###################################&*&.################&*&.#.@",
".+###################################&*&.################&*&.#.@",
".+###################################&*&.################&*&.#.@",
".+###################################&*&.################&*&.#.@",
".+###################################&*&.################&*&.#.@",
".+###################################&*&.################&*&.#.@",
".+###################################&*&.###########&&&&&&*&.#.@",
".+###################################&*&.##########&******=&.#.@",
".+###################################&*&.#########&*%-=====&.#.@",
".+##############################&&&&&&*&.########&*-%======&.#.@",
".+#############################&******=&.########&*========&.#.@",
".+############################&*%-=====&.########&*========&.#.@",
".+###########################&*-%======&.#########&*======&.##.@",
".+###########################&*========&.##########&&&&&&&.###.@",
".+###########################&*========&.###########......####.@",
".+############################&*======&.######################.@",
".+#############################&&&&&&&.#######################.@",
".+##############################......########################.@",
".+############################################################.@",
"...............................................................@",
"@@@@@@@@@@@@@@@@@@@@@@@@@@@@@@@@@@@@@@@@@@@@@@@@@@@@@@@@@@@@@@@@",
"                                                                ",
"                                                                ",
"                                                                ",
"                                                                ",
"                                                                ",
"                                                                "};
