/* XPM */
static char * folder_download_xpm[] = {
"64 64 10 1",
" 	c None",
".	c #C4A000",
"+	c #FCE94F",
"@	c #000000",
"#	c #EDD400",
"$	c #BABDB6",
"%	c #EEEEEC",
"&	c #4E9A06",
"*	c #8AE234",
"=	c #73D216",
"                                                                ",
"                                                                ",
"                                                                ",
"                                                                ",
"                                                                ",
"                                                                ",
"        ........................                                ",
"       .+++++++++++++++++++++++.@                               ",
"      .+########################.@                              ",
"     .+##########################.@                             ",
"    .+############################.@                            ",
"   .+##############################.@                           ",
"  .+################################.@                          ",
" .+##################################.@                         ",
".+.$$$$$$$$$$$$$$$$$$$$$$$$$$$$$$$$$$.........................  ",
".++.%%%%%%%%%%%%%%%%%%%%%%%%%%%%%%%%.++++++++++++++++++++++++.@ ",
".+#+.%%%%%%%%%%%%%%%%%%%%%%%%%%%%%%.+#########################.@",
".+##+..............................+##########################.@",
".+###++++++++++++++++++++++++++++++###########################.@",
".+############################################################.@",
".+############################################################.@",
".+############################################################.@",
".+############################################################.@",
".+############################################################.@",
".+####################################&&&########&&&##########.@",
".+##################################&&*&.########&**&&########.@",
".+#################################&**=&.########&*=**&#######.@",
".+################################&*===&.########&*===*&######.@",
".+###############################&*====&.########&*====*.#####.@",
".+##############################&*=====&.########&*=====&.####.@",
".+#############################&*======&.########&*======&.###.@",
".+#############################&*======&.########&*======&.###.@",
".+############################&*=======&.########&*=======&.##.@",
".+############################&*=======&.########&*=======&.##.@",
".+############################&*=======&.########&*=======&.##.@",
".+###########################&*========&.########&*========&.#.@",
".+###########################&*========&.########&*========&.#.@",
".+###########################&*========&.########&*========&.#.@",
".+###########################&*=====&&&&.########&&&&&=====&.#.@",
".+###########################&*=====.....########.....=====&.#.@",
".+###########################&*=====.################&=====&.#.@",
".+###########################&*=====&.##############&*=====&.#.@",
".+###########################&*======&.############&*======&.#.@",
".+############################&*======&.##########&*======&.##.@",
".+############################&*=======&.########&*=======&.##.@",
".+############################&*========&.######&*========&.##.@",
".+#############################&*========&.####&*========&.###.@",
".+#############################&*=========&.##&*=========&.###.@",
".+##############################&*=========&&&*=========&.####.@",
".+###############################&&=========**=========&.#####.@",
".+################################.&==================&.######.@",
".+#################################.&&==============&&.#######.@",
".+##################################..&&&========&&&..########.@",
".+####################################...&&&&&&&&...##########.@",
".+#######################################........#############.@",
".+############################################################.@",
"...............................................................@",
"@@@@@@@@@@@@@@@@@@@@@@@@@@@@@@@@@@@@@@@@@@@@@@@@@@@@@@@@@@@@@@@@",
"                                                                ",
"                                                                ",
"                                                                ",
"                                                                ",
"                                                                ",
"                                                                "};
