/* XPM */
static char * folder_meme_xpm[] = {
"64 64 17 1",
" 	c None",
".	c #C4A000",
"+	c #FCE94F",
"@	c #000000",
"#	c #EDD400",
"$	c #BABDB6",
"%	c #EEEEEC",
"&	c #4E9A06",
"*	c #8AE234",
"=	c #73D216",
"-	c #D3D7CF",
";	c #204A87",
">	c #A40000",
",	c #729FCF",
"'	c #EF2929",
")	c #3465A4",
"!	c #CC0000",
"                                                                ",
"                                                                ",
"                                                                ",
"                                                                ",
"                                                                ",
"                                                                ",
"        ........................                                ",
"       .+++++++++++++++++++++++.@                               ",
"      .+########################.@                              ",
"     .+##########################.@                             ",
"    .+############################.@                            ",
"   .+##############################.@                           ",
"  .+################################.@                          ",
" .+##################################.@                         ",
".+.$$$$$$$$$$$$$$$$$$$$$$$$$$$$$$$$$$.........................  ",
".++.%%%%%%%%%%%%%%%%%%%%%%%%%%%%%%%%.++++++++++++++++++++++++.@ ",
".+#+.%%%%%%%%%%%%%%%%%%%%%%%%%%%%%%.+#########################.@",
".+##+..............................+##########################.@",
".+###++++++++++++++++++++++++++++++###########################.@",
".+############################################################.@",
".+############################################################.@",
".+############################################################.@",
".+############################################################.@",
".+############################################################.@",
".+############################################################.@",
".+#################################&&&&&&&&########&&&&&&&&###.@",
".+#################################&*****&@########&*****&@###.@",
".+#################################&*====&@########&*====&@###.@",
".+#################################&*====&@########&*====&@###.@",
".+#############################&&&&&*====&&&&&&&&&&&*====&@###.@",
".+#############################&****======**********=====&@###.@",
".+#############################&*========================&@###.@",
".+#############################&*========================&@###.@",
".+#############################&*======$$$$@@@@====$$$$@@@@###.@",
".+#############################&*======$---@@@@====$---@@@@###.@",
".+#############################&*======$-%%@@@@====$-%%@@@@###.@",
".+#############################&*======$$$$@@@@====$$$$@@@@###.@",
".+#############################&*========================&@###.@",
".+#############################&*========================&@###.@",
".+#############################&*========================&@###.@",
".+#############################&&&&&*====================&@###.@",
".+#############################;;;;&*==>>>>>>>>>>>>>>>>>>>@###.@",
".+#############################;,,;&*==>'''''''''''''''''>@###.@",
".+#############################;,);&*==>'!!!!!!!!!!!!!>>>>@###.@",
".+#############################;,);&*==>>>>>>>>>>>>>>>>@@@@###.@",
".+#############################;,);&*================&@#######.@",
".+#############################;,);&*================&@#######.@",
".+#############################;,);&*================&@#######.@",
".+#############################;,);&&&&&&&&&&&&&&&&&&&@#######.@",
".+#############################;,);;;;;;;;;;;;;;;;;;;;@#######.@",
".+#############################;,))))))))))))))))))));@#######.@",
".+#############################;;;;;;;;;;;;;;;;;;;;;;;@#######.@",
".+#############################@@@@@@@@@@@@@@@@@@@@@@@@#######.@",
".+############################################################.@",
".+############################################################.@",
".+############################################################.@",
"...............................................................@",
"@@@@@@@@@@@@@@@@@@@@@@@@@@@@@@@@@@@@@@@@@@@@@@@@@@@@@@@@@@@@@@@@",
"                                                                ",
"                                                                ",
"                                                                ",
"                                                                ",
"                                                                ",
"                                                                "};
