/* XPM */
static char * folder_trash_xpm[] = {
"64 64 13 1",
" 	c None",
".	c #C4A000",
"+	c #FCE94F",
"@	c #000000",
"#	c #EDD400",
"$	c #BABDB6",
"%	c #EEEEEC",
"&	c #4E9A06",
"*	c #888A85",
"=	c #555753",
"-	c #2E3436",
";	c #8AE234",
">	c #73D216",
"                                                                ",
"                                                                ",
"                                                                ",
"                                                                ",
"                                                                ",
"                                                                ",
"        ........................                                ",
"       .+++++++++++++++++++++++.@                               ",
"      .+########################.@                              ",
"     .+##########################.@                             ",
"    .+############################.@                            ",
"   .+##############################.@                           ",
"  .+################################.@                          ",
" .+##################################.@                         ",
".+.$$$$$$$$$$$$$$$$$$$$$$$$$$$$$$$$$$.........................  ",
".++.%%%%%%%%%%%%%%%%%%%%%%%%%%%%%%%%.++++++++++++++++++++++++.@ ",
".+#+.%%%%%%%%%%%%%%%%%%%%%%%%%%%%%%.+#########################.@",
".+##+..............................+##########################.@",
".+###++++++++++++++++++++++++++++++###########################.@",
".+############################################################.@",
".+############################################################.@",
".+############################################################.@",
".+############################################################.@",
".+############################################################.@",
".+############################################################.@",
".+############################################################.@",
".+############################################################.@",
".+###############################&&&&&&&&&&&&&&&&&&&&&&&&&&###.@",
".+##############################&**************************&##.@",
".+#############################&*===========================@#.@",
".+#############################&*=-------------------------=@#.@",
".+#############################&*=-------------------------=@#.@",
".+#############################&*=-------------------------=@#.@",
".+#############################&==************************=@@#.@",
".+#############################&;==========================&@#.@",
".+#############################&;;;;;;;;;;;;;;;;;;;;;;;;;;;&@#.@",
".+#############################&;>>>>>>>>>>;;;;;>>>>>>>>>>>&@#.@",
".+##############################&;>>>>;;;;;&&&&&;;>>>>>>>>&@##.@",
".+##############################&;>>>;&&&&&;;&&&&&;>>;>>>>&@##.@",
".+##############################&;>>>>;;&&&;>;;&&&&;;&;>>>&@##.@",
".+##############################&;>>>>;&&&&;>>>;&&&&&&;>>>&@##.@",
".+###############################&;>>>;&&&&;>>>>;&&&&&;>>&@###.@",
".+###############################&;>>;&&&;&;>>>>>;&&&&;>>&@###.@",
".+###############################&;>>;&&;>;>>>>>;&&&&&;>>&@###.@",
".+###############################&;>>;&&;>>>>>>>>;;;;;>>>&@###.@",
".+################################&;>;&&;>>>>>;>>>>;&;>>&@####.@",
".+################################&;>;&&;>>>>;&;>>;&&;>>&@####.@",
".+################################&;>>;&&;>>;&&;;;&&;>>>&@####.@",
".+################################&;>>;&&;>;&&&&&&&&;>>>&@####.@",
".+#################################&;>>;&;;&&&&&&&&;>>>&@#####.@",
".+#################################&;>>>;&;;&&&&&&;>>>>&@#####.@",
".+#################################&;>>>>;>>;&&&;;>>>>>&@#####.@",
".+#################################&;>>>>>>>>;&;>>>>>>>&@#####.@",
".+##################################&&&&&&&&&&&&&&&&&&&@######.@",
".+###################################@@@@@@@@@@@@@@@@@@#######.@",
".+############################################################.@",
"...............................................................@",
"@@@@@@@@@@@@@@@@@@@@@@@@@@@@@@@@@@@@@@@@@@@@@@@@@@@@@@@@@@@@@@@@",
"                                                                ",
"                                                                ",
"                                                                ",
"                                                                ",
"                                                                ",
"                                                                "};
