/* XPM */
static char * folder_book_xpm[] = {
"64 64 12 1",
" 	c None",
".	c #C4A000",
"+	c #FCE94F",
"@	c #000000",
"#	c #EDD400",
"$	c #BABDB6",
"%	c #EEEEEC",
"&	c #D3D7CF",
"*	c #A40000",
"=	c #2E3436",
"-	c #EF2929",
";	c #CC0000",
"                                                                ",
"                                                                ",
"                                                                ",
"                                                                ",
"                                                                ",
"                                                                ",
"        ........................                                ",
"       .+++++++++++++++++++++++.@                               ",
"      .+########################.@                              ",
"     .+##########################.@                             ",
"    .+############################.@                            ",
"   .+##############################.@                           ",
"  .+################################.@                          ",
" .+##################################.@                         ",
".+.$$$$$$$$$$$$$$$$$$$$$$$$$$$$$$$$$$.........................  ",
".++.%%%%%%%%%%%%%%%%%%%%%%%%%%%%%%%%.++++++++++++++++++++++++.@ ",
".+#+.%%%%%%%%%%%%%%%%%%%%%%%%%%%%%%.+#########################.@",
".+##+..............................+##########################.@",
".+###++++++++++++++++++++++++++++++###########################.@",
".+############################################################.@",
".+############################################################.@",
".+############################################################.@",
".+############################################################.@",
".+############################################################.@",
".+############################################################.@",
".+############################################################.@",
".+############################################################.@",
".+##################################$$$$$#####################.@",
".+##############################$$$$$%%%%$$#####$$$$$$$$$$####.@",
".+##############################$%%%$%&&&%%$#$$$%%%%%$%%%$####.@",
".+#############################*$%&&$%===&&%$%%%&&&&&$%&&$*###.@",
".+############################*-$%==$%&&&==&$%&&=====$%=&$;*##.@",
".+###########################*-;$%&&$%==&&&=$%==&&&&&$%&&$;*@#.@",
".+###########################*-;$%==$%&&&=&&$%&&===&=$%=&$;*@#.@",
".+###########################*-;$%&&$%===&&=$%&=&&&&&$%&&$;*@#.@",
".+###########################*-;$%=&$%&&&==&$%&&=====$%=&$;*@#.@",
".+###########################*-;$%&&$%=&=&&=$%==&&&&&$%&&$;*@#.@",
".+###########################*-;$%==$%&&&==&$%&&==&==$%=&$;*@#.@",
".+###########################*-;$%&&$%==&&&=$%==&&&&&$%&&$;*@#.@",
".+###########################*-;$%==$%&&&==&$%&&&====$%=&$;*@#.@",
".+###########################*-;$%&&$%===&&=$%=&&&&&&$%&&$;*@#.@",
".+###########################*-;$%==$%&&&=&&$%&&=====$%=&$;*@#.@",
".+###########################*-;$%&&$%===&&=$%==&&&&&$%&&$;*@#.@",
".+###########################*-;$%==$%&&&&=&$%&&=====$%=&$;*@#.@",
".+###########################*-;$%&&$%==&&&=$%==&&&&&$%&&$;*@#.@",
".+###########################*-;$%==$%&&&==&$%&&====&$%=&$;*@#.@",
".+###########################*-;$%&&$%===&&=$%==&&&&&$%&&$;*@#.@",
".+###########################*-;$%%%$$$$&&=&$%&&$$$$$$$$$$;*@#.@",
".+###########################*-;;;;;;;;;;;&&$%&&;;;;;;;;;;;*@#.@",
".+############################@***********;&$%&;***********@##.@",
".+#############################@@@@@@@@@@@*;;;;*@@@@@@@@@@@###.@",
".+########################################@****@##############.@",
".+#########################################@@@@###############.@",
".+############################################################.@",
".+############################################################.@",
".+############################################################.@",
"...............................................................@",
"@@@@@@@@@@@@@@@@@@@@@@@@@@@@@@@@@@@@@@@@@@@@@@@@@@@@@@@@@@@@@@@@",
"                                                                ",
"                                                                ",
"                                                                ",
"                                                                ",
"                                                                ",
"                                                                "};
