/* XPM */
static char * folder_db_xpm[] = {
"64 64 10 1",
" 	c None",
".	c #C4A000",
"+	c #FCE94F",
"@	c #000000",
"#	c #EDD400",
"$	c #BABDB6",
"%	c #EEEEEC",
"&	c #204A87",
"*	c #729FCF",
"=	c #3465A4",
"                                                                ",
"                                                                ",
"                                                                ",
"                                                                ",
"                                                                ",
"                                                                ",
"        ........................                                ",
"       .+++++++++++++++++++++++.@                               ",
"      .+########################.@                              ",
"     .+##########################.@                             ",
"    .+############################.@                            ",
"   .+##############################.@                           ",
"  .+################################.@                          ",
" .+##################################.@                         ",
".+.$$$$$$$$$$$$$$$$$$$$$$$$$$$$$$$$$$.........................  ",
".++.%%%%%%%%%%%%%%%%%%%%%%%%%%%%%%%%.++++++++++++++++++++++++.@ ",
".+#+.%%%%%%%%%%%%%%%%%%%%%%%%%%%%%%.+#########################.@",
".+##+..............................+##########################.@",
".+###++++++++++++++++++++++++++++++###########################.@",
".+############################################################.@",
".+############################################################.@",
".+############################################################.@",
".+############################################################.@",
".+######################################&&&&&&&&&&############.@",
".+##################################&&&&**********&&&&########.@",
".+###############################&&&****==========****&&&#####.@",
".+#############################&&***==================***&&###.@",
".+############################&**========================**&##.@",
".+###########################&*============================&@#.@",
".+###########################&*&&========================&&&@#.@",
".+###########################&***&&&==================&&&**&@#.@",
".+###########################&*==***&&&&==========&&&&***==&@#.@",
".+###########################&*=====****&&&&&&&&&&****=====&@#.@",
".+###########################&*=========**********=========&@#.@",
".+############################@============================@##.@",
".+#############################@@========================@@###.@",
".+############################&==@@@==================@@@==@##.@",
".+###########################&*&&===@@@@==========@@@@===&&&@#.@",
".+###########################&***&&&====@@@@@@@@@@====&&&**&@#.@",
".+###########################&*==***&&&&==========&&&&***==&@#.@",
".+###########################&*=====****&&&&&&&&&&****=====&@#.@",
".+###########################&*=========**********=========&@#.@",
".+############################@============================@##.@",
".+#############################@@========================@@###.@",
".+############################&==@@@==================@@@==@##.@",
".+###########################&*&&===@@@@==========@@@@===&&&@#.@",
".+###########################&***&&&====@@@@@@@@@@====&&&**&@#.@",
".+###########################&*==***&&&&==========&&&&***==&@#.@",
".+###########################&*=====****&&&&&&&&&&****=====&@#.@",
".+###########################&&=========**********=========&@#.@",
".+############################@&&========================&&@##.@",
".+#############################@@&&&==================&&&@@###.@",
".+###############################@@@&&&&==========&&&&@@@#####.@",
".+##################################@@@@&&&&&&&&&&@@@@########.@",
".+######################################@@@@@@@@@@############.@",
".+############################################################.@",
"...............................................................@",
"@@@@@@@@@@@@@@@@@@@@@@@@@@@@@@@@@@@@@@@@@@@@@@@@@@@@@@@@@@@@@@@@",
"                                                                ",
"                                                                ",
"                                                                ",
"                                                                ",
"                                                                ",
"                                                                "};
