/* XPM */
static char * folder_game_xpm[] = {
"64 64 14 1",
" 	c None",
".	c #C4A000",
"+	c #FCE94F",
"@	c #000000",
"#	c #EDD400",
"$	c #BABDB6",
"%	c #EEEEEC",
"&	c #D3D7CF",
"*	c #2E3436",
"=	c #A40000",
"-	c #555753",
";	c #CC0000",
">	c #888A85",
",	c #EF2929",
"                                                                ",
"                                                                ",
"                                                                ",
"                                                                ",
"                                                                ",
"                                                                ",
"        ........................                                ",
"       .+++++++++++++++++++++++.@                               ",
"      .+########################.@                              ",
"     .+##########################.@                             ",
"    .+############################.@                            ",
"   .+##############################.@                           ",
"  .+################################.@                          ",
" .+##################################.@                         ",
".+.$$$$$$$$$$$$$$$$$$$$$$$$$$$$$$$$$$.........................  ",
".++.%%%%%%%%%%%%%%%%%%%%%%%%%%%%%%%%.++++++++++++++++++++++++.@ ",
".+#+.%%%%%%%%%%%%%%%%%%%%%%%%%%%%%%.+#########################.@",
".+##+..............................+##########################.@",
".+###++++++++++++++++++++++++++++++###########################.@",
".+############################################################.@",
".+############################################################.@",
".+############################################################.@",
".+############################################################.@",
".+############################################################.@",
".+############################################################.@",
".+############################################################.@",
".+#############################$$$$##################$$$$#####.@",
".+############################$%%%%$################$%%%%$####.@",
".+###########################$%&&&&%$$############$$%&&&&%$###.@",
".+###########################$%&&&&&%%$##########$%%&&&&&%$###.@",
".+##########################$%&&&&&&&&%$$$$$$$$$$%&&&&&&&&$@##.@",
".+##########################$%&&&****&&%%%%%%%%%%&&====&&&$@##.@",
".+##########################$%&&*----*&&&&&&&&&&&&=;;;;=&&$@##.@",
".+##########################$%&*-->>--*&&&&&&&&&&=;,;;,;=&$@##.@",
".+##########################$%*--->>---*&&&&&&&&=;,,,,,,;=$@##.@",
".+##########################$%*->>>>>>-*&&&&&&&&=;;,,,,;;=$@##.@",
".+##########################$%*->>>>>>-*&&&&&&&&=;;,,,,;;=$@##.@",
".+##########################$%*--->>---*&&&&&&&&=;,,,,,,;=$@##.@",
".+##########################$%&*-->>--*&&*&&&&*&&=;,;;,;=&$@##.@",
".+##########################$%&&*----*&&*-*&&*>*&&=;;;;=&&$@##.@",
".+##########################$%&&&****&&&&*%%%%*&&&&====&&&$@##.@",
".+##########################$%&&&&&&&&&&&$$$$$%&&&&&&&&&&&$@##.@",
".+##########################$%&&&&&&&&&&$@####$%&&&&&&&&&&$@##.@",
".+##########################$%&&&&&&&&&$@######$%&&&&&&&&&$@##.@",
".+##########################$%&&&&&&&&$@########$%&&&&&&&&$@##.@",
".+##########################$%&&&&&&&$@##########$%&&&&&&&$@##.@",
".+##########################$%&&&&&&&$@##########$%&&&&&&&$@##.@",
".+##########################$%&&&&&&&$@##########$%&&&&&&&$@##.@",
".+##########################$%&&&&&&&$@##########$%&&&&&&&$@##.@",
".+###########################$%&&&&&$@############$%&&&&&$@###.@",
".+############################$$$$$$@##############$$$$$$@####.@",
".+#############################@@@@@################@@@@@#####.@",
".+############################################################.@",
".+############################################################.@",
".+############################################################.@",
".+############################################################.@",
"...............................................................@",
"@@@@@@@@@@@@@@@@@@@@@@@@@@@@@@@@@@@@@@@@@@@@@@@@@@@@@@@@@@@@@@@@",
"                                                                ",
"                                                                ",
"                                                                ",
"                                                                ",
"                                                                ",
"                                                                "};
