/* XPM */
static char * folder_mount_xpm[] = {
"64 64 10 1",
" 	c None",
".	c #C4A000",
"+	c #FCE94F",
"@	c #000000",
"#	c #EDD400",
"$	c #BABDB6",
"%	c #EEEEEC",
"&	c #2E3436",
"*	c #888A85",
"=	c #555753",
"                                                                ",
"                                                                ",
"                                                                ",
"                                                                ",
"                                                                ",
"                                                                ",
"        ........................                                ",
"       .+++++++++++++++++++++++.@                               ",
"      .+########################.@                              ",
"     .+##########################.@                             ",
"    .+############################.@                            ",
"   .+##############################.@                           ",
"  .+################################.@                          ",
" .+##################################.@                         ",
".+.$$$$$$$$$$$$$$$$$$$$$$$$$$$$$$$$$$.........................  ",
".++.%%%%%%%%%%%%%%%%%%%%%%%%%%%%%%%%.++++++++++++++++++++++++.@ ",
".+#+.%%%%%%%%%%%%%%%%%%%%%%%%%%%%%%.+#########################.@",
".+##+..............................+##########################.@",
".+###++++++++++++++++++++++++++++++###########################.@",
".+############################################################.@",
".+############################################################.@",
".+############################################################.@",
".+############################################################.@",
".+###############################################&&###########.@",
".+##############################################&**@##########.@",
".+#############################################&*==&@#########.@",
".+#############################################@@=&@@#########.@",
".+###############################################&@###########.@",
".+###############################################&@#&&&&&&####.@",
".+###############################################&@#&***&@####.@",
".+#########################################&&&&##&@#&*==&@####.@",
".+########################################&***&@#&@#&*==&@####.@",
".+########################################&*==&@#&@#&&&&&@####.@",
".+########################################&*==&@#&@#@@@@@@####.@",
".+########################################&&&&&@#&@###&@######.@",
".+#########################################@&@@##&@###&@######.@",
".+##########################################&@###&@###&@######.@",
".+##########################################&@###&@##&=@######.@",
".+##########################################&@###&@#&=@#######.@",
".+##########################################&@###&=&=@########.@",
".+##########################################&@###&==@#########.@",
".+##########################################@=&##&@@##########.@",
".+###########################################@=&#&@###########.@",
".+############################################@=&=@###########.@",
".+#############################################@==@###########.@",
".+##############################################@=@###########.@",
".+###############################################&@###########.@",
".+###############################################&@###########.@",
".+###############################################&@###########.@",
".+##############################################&&@@##########.@",
".+#############################################&**=&@#########.@",
".+#############################################&*==&@#########.@",
".+#############################################&*==&@#########.@",
".+#############################################&&&&&@#########.@",
".+##############################################@@@@##########.@",
".+############################################################.@",
"...............................................................@",
"@@@@@@@@@@@@@@@@@@@@@@@@@@@@@@@@@@@@@@@@@@@@@@@@@@@@@@@@@@@@@@@@",
"                                                                ",
"                                                                ",
"                                                                ",
"                                                                ",
"                                                                ",
"                                                                "};
