/* XPM */
static char * folder_mail_xpm[] = {
"64 64 11 1",
" 	c None",
".	c #C4A000",
"+	c #FCE94F",
"@	c #000000",
"#	c #EDD400",
"$	c #BABDB6",
"%	c #EEEEEC",
"&	c #B9A29B",
"*	c #FEF9ED",
"=	c #685854",
"-	c #FFEDC8",
"                                                                ",
"                                                                ",
"                                                                ",
"                                                                ",
"                                                                ",
"                                                                ",
"        ........................                                ",
"       .+++++++++++++++++++++++.@                               ",
"      .+########################.@                              ",
"     .+##########################.@                             ",
"    .+############################.@                            ",
"   .+##############################.@                           ",
"  .+################################.@                          ",
" .+##################################.@                         ",
".+.$$$$$$$$$$$$$$$$$$$$$$$$$$$$$$$$$$.........................  ",
".++.%%%%%%%%%%%%%%%%%%%%%%%%%%%%%%%%.++++++++++++++++++++++++.@ ",
".+#+.%%%%%%%%%%%%%%%%%%%%%%%%%%%%%%.+#########################.@",
".+##+..............................+##########################.@",
".+###++++++++++++++++++++++++++++++###########################.@",
".+############################################################.@",
".+############################################################.@",
".+############################################################.@",
".+############################################################.@",
".+############################################################.@",
".+############################################################.@",
".+############################################################.@",
".+############################################################.@",
".+############################################################.@",
".+############################################################.@",
".+############################################################.@",
".+############################################################.@",
".+###########################&&&&&&&&&&&&&&&&&&&&&&&&&&&&&&&&#.@",
".+###########################&*****************************&.#.@",
".+###########################&*=*------------------------*=&.#.@",
".+###########################&*&=*----------------------*=&&.#.@",
".+###########################&*-&=*--------------------*=&-&.#.@",
".+###########################&*--&=*------------------*=&--&.#.@",
".+###########################&*---&=*----------------*=&---&.#.@",
".+###########################&*----&=*--------------*=&----&.#.@",
".+###########################&*-----&=*------------*=&-----&.#.@",
".+###########################&*------&=*----------*=&------&.#.@",
".+###########################&*-------&=*--------*=&-------&.#.@",
".+###########################&*--------&=*------*=&--------&.#.@",
".+###########################&*--------&&=*----*=&&--------&.#.@",
".+###########################&*-------&=*&=****=&*=&-------&.#.@",
".+###########################&*------&=*--&====&--*=&------&.#.@",
".+###########################&*-----&=*----&&&&----*=&-----&.#.@",
".+###########################&*----&=*--------------*=&----&.#.@",
".+###########################&*---&=*----------------*=&---&.#.@",
".+###########################&*--&=*------------------*=&--&.#.@",
".+###########################&*-&=*--------------------*=&-&.#.@",
".+###########################&*&=*----------------------*=&&.#.@",
".+###########################&*=*------------------------*=&.#.@",
".+###########################&&&&&&&&&&&&&&&&&&&&&&&&&&&&&&&.#.@",
".+###########################................................#.@",
".+############################################################.@",
"...............................................................@",
"@@@@@@@@@@@@@@@@@@@@@@@@@@@@@@@@@@@@@@@@@@@@@@@@@@@@@@@@@@@@@@@@",
"                                                                ",
"                                                                ",
"                                                                ",
"                                                                ",
"                                                                ",
"                                                                "};
