/* XPM */
static char * winicon16x16_xpm[] = {
"16 16 6 1",
" 	c None",
".	c #C4A000",
"+	c #000000",
"@	c #EDD400",
"#	c #EEEEEC",
"$	c #FCE94F",
"                ",
"                ",
"  ......+       ",
" .@@@@@@.+      ",
"..######....... ",
".$......$$$$$$.+",
".$$$$$$$$@@@.@.+",
".$@$@$@$@@@@@@.+",
".$$@$@@@@@.@.@.+",
".$@$@$@@@@@.@@.+",
".$$@@@@@.@.@.@.+",
".$@$@@@@@.@.@@.+",
".$@@@@@@@@@@@@.+",
"...............+",
"++++++++++++++++",
"                "};
