/* XPM */
static char * winicon48x48_xpm[] = {
"48 48 8 1",
" 	c None",
".	c #C4A000",
"+	c #FCE94F",
"@	c #101010",
"#	c #EDD400",
"$	c #BABDB6",
"%	c #EEEEEC",
"&	c #000000",
"                                                ",
"                                                ",
"                                                ",
"                                                ",
"                                                ",
"      ..................                        ",
"     .+++++++++++++++++.@                       ",
"    .+##################.@                      ",
"   .+####################.@                     ",
"  .+######################.@                    ",
" .+########################.@                   ",
".+.$$$$$$$$$$$$$$$$$$$$$$$.+.................   ",
".++.%%%%%%%%%%%%%%%%%%%%%.+#++++++++++++++++.&  ",
".+#+.%%%%%%%%%%%%%%%%%%%.+###################.& ",
".+##+...................+#####################.&",
".+###+++++++++++++++++++######################.&",
".+############################################.&",
".+############################################.&",
".+############################################.&",
".+############################################.&",
".+############################################.&",
".+############################################.&",
".+############################################.&",
".+############################################.&",
".+############################################.&",
".+############################################.&",
".+############################################.&",
".+############################################.&",
".+############################################.&",
".+############################################.&",
".+############################################.&",
".+############################################.&",
".+############################################.&",
".+############################################.&",
".+############################################.&",
".+############################################.&",
".+############################################.&",
".+############################################.&",
".+############################################.&",
".+############################################.&",
".+############################################.&",
"...............................................&",
"&&&&&&&&&&&&&&&&&&&&&&&&&&&&&&&&&&&&&&&&&&&&&&&&",
"                                                ",
"                                                ",
"                                                ",
"                                                ",
"                                                "};
