/* XPM */
static char * winicon32x32_xpm[] = {
"32 32 6 1",
" 	c None",
".	c #C4A000",
"+	c #FCE94F",
"@	c #EDD400",
"#	c #EEEEEC",
"$	c #000000",
"                                ",
"                                ",
"                                ",
"                                ",
"    ............                ",
"   .++++++++++++.               ",
"  .+@@@@@@@@@@@@+.              ",
" .+@@@@@@@@@@@@@@+.             ",
".+.##############.+...........  ",
".++.############.+@++++++++++.$ ",
".+@+............+@@@@@@@@@@@@@.$",
".+@@++++++++++++@@@@@@@@@@@@@@.$",
".+@@@@@@@@@@@@@@@@@@@@@@@@@@@@.$",
".+@@@@@@@@@@@@@@@@@@@@@@@@@@@@.$",
".+@@@@@@@@@@@@@@@@@@@@@@@@@@@@.$",
".+@@@@@@@@@@@@@@@@@@@@@@@@@@@@.$",
".+@@@@@@@@@@@@@@@@@@@@@@@@@@@@.$",
".+@@@@@@@@@@@@@@@@@@@@@@@@@@@@.$",
".+@@@@@@@@@@@@@@@@@@@@@@@@@@@@.$",
".+@@@@@@@@@@@@@@@@@@@@@@@@@@@@.$",
".+@@@@@@@@@@@@@@@@@@@@@@@@@@@@.$",
".+@@@@@@@@@@@@@@@@@@@@@@@@@@@@.$",
".+@@@@@@@@@@@@@@@@@@@@@@@@@@@@.$",
".+@@@@@@@@@@@@@@@@@@@@@@@@@@@@.$",
".+@@@@@@@@@@@@@@@@@@@@@@@@@@@@.$",
".+@@@@@@@@@@@@@@@@@@@@@@@@@@@@.$",
".+@@@@@@@@@@@@@@@@@@@@@@@@@@@@.$",
".+@@@@@@@@@@@@@@@@@@@@@@@@@@@@.$",
"...............................$",
"$$$$$$$$$$$$$$$$$$$$$$$$$$$$$$$$",
"                                ",
"                                "};
