/* XPM */
static char * x_xpm[] = {
"64 64 5 1",
" 	c None",
".	c #A40000",
"+	c #EF2929",
"@	c #000000",
"#	c #CC0000",
"                                                                ",
"                                                                ",
"                                                                ",
"                                                                ",
"                                                                ",
"                                                                ",
"                                                                ",
"                                                                ",
"..................                                       .......",
".++++++++++++++++.@                                     .+++++.@",
" .+###############.@                                   .+####.@ ",
"  .+###############.@                                 .+####.@  ",
"   .+###############.@                               .+####.@   ",
"    .+###############.@                             .+####.@    ",
"     .+###############.@                           .+####.@     ",
"      .+###############.@                         .+####.@      ",
"       .+###############.@                       .+####.@       ",
"        .+###############.@                     .+####.@        ",
"         .+###############.@                   .+####.@         ",
"          .+###############.@                 .+####.@          ",
"           .+###############.@               .+####.@           ",
"            .+###############.@             .+####.@            ",
"             .+###############.@           .+####.@             ",
"              .+###############.@         .+####.@              ",
"               .+###############.@       .+####.@               ",
"                .+###############.@     .+####.@                ",
"                 .+###############.@   .+####.@                 ",
"                  .+#############.@   .+####.@                  ",
"                   .+###########.@   .+####.@                   ",
"                    .+#########.@   .+####.@                    ",
"                     .+#######.@   .+####.@                     ",
"                      .+#####.@   .+####.@                      ",
"                      .+####.@   .+#####.@                      ",
"                     .+####.@   .+#######.@                     ",
"                    .+####.@   .+#########.@                    ",
"                   .+####.@   .+###########.@                   ",
"                  .+####.@   .+#############.@                  ",
"                 .+####.@   .+###############.@                 ",
"                .+####.@     .+###############.@                ",
"               .+####.@       .+###############.@               ",
"              .+####.@         .+###############.@              ",
"             .+####.@           .+###############.@             ",
"            .+####.@             .+###############.@            ",
"           .+####.@               .+###############.@           ",
"          .+####.@                 .+###############.@          ",
"         .+####.@                   .+###############.@         ",
"        .+####.@                     .+###############.@        ",
"       .+####.@                       .+###############.@       ",
"      .+####.@                         .+###############.@      ",
"     .+####.@                           .+###############.@     ",
"    .+####.@                             .+###############.@    ",
"   .+####.@                               .+###############.@   ",
"  .+####.@                                 .+###############.@  ",
" .+####.@                                   .+###############.@ ",
".......@                                     ..................@",
"@@@@@@@                                       @@@@@@@@@@@@@@@@@@",
"                                                                ",
"                                                                ",
"                                                                ",
"                                                                ",
"                                                                ",
"                                                                ",
"                                                                ",
"                                                                "};
